<?xml version="1.0" standalone="no"?><!-- Generator: Gravit.io --><svg xmlns="http://www.w3.org/2000/svg" xmlns:xlink="http://www.w3.org/1999/xlink" style="isolation:isolate" viewBox="0 0 945.405 945.405" width="945.405px" height="945.405px"><defs><clipPath id="_clipPath_pyUxxiQ3Rsjyr5vUjHZOXolcIxD8FtRt"><rect width="945.405" height="945.405"/></clipPath></defs><g clip-path="url(#_clipPath_pyUxxiQ3Rsjyr5vUjHZOXolcIxD8FtRt)"><g><path d=" M 615.6 894.153 L 0 894.153 L 0 836.753 C 11.2 845.653 25.5 851.054 40.9 851.054 L 573.1 851.054 L 615.6 894.153 Z  M 266.4 51.252 C 233.4 51.252 206.6 78.052 206.6 111.052 C 206.6 131.552 216.9 149.652 232.7 160.452 C 239.5 141.652 250.5 124.352 265.1 109.752 C 279.7 95.152 297 84.152 315.8 77.352 C 305 61.553 286.9 51.252 266.4 51.252 Z  M 249.3 207.953 C 249.3 270.953 300.401 321.953 363.3 321.953 C 426.2 321.953 477.3 270.853 477.3 207.953 C 477.3 144.953 426.2 93.953 363.3 93.953 C 349.901 93.953 337.1 96.253 325.2 100.453 C 292.9 111.953 267.2 137.553 255.8 169.853 C 251.6 181.853 249.3 194.652 249.3 207.953 Z  M 187.4 365.252 C 160.7 424.452 102.5 575.752 86.5 613.852 L 285.1 613.852 C 289.5 603.053 294.401 592.553 299.8 582.653 C 318.5 547.753 376.901 530.452 363 481.753 C 362.9 481.353 362.7 480.952 362.6 480.452 L 414.901 530.054 C 418.8 533.753 423.501 536.753 428.501 538.654 L 571.501 593.254 C 576.301 595.055 581.301 595.953 586.201 595.953 C 602.801 595.953 618.401 585.853 624.6 569.453 C 632.701 548.254 622.1 524.453 600.8 516.353 L 474.4 468.053 C 468.5 465.753 463.099 462.353 458.5 458.053 C 458.5 458.053 347.2 352.453 347.1 352.353 C 342.401 347.853 336.3 344.953 329.901 342.853 C 328.401 342.353 326.8 341.853 325.201 341.453 C 323.501 340.953 321.701 340.453 319.901 340.053 C 292.1 332.653 261.201 326.353 232.601 328.853 C 223.201 329.653 212.901 332.053 204.901 337.553 C 195.7 344.152 191.9 355.353 187.4 365.252 Z  M 40.9 826.053 L 583.5 826.053 L 635.5 878.752 C 640.4 883.752 646.3 887.652 652.6 890.252 C 658.8 892.752 665.401 894.152 672.201 894.152 L 893.801 894.152 C 922.601 894.152 945.801 870.552 945.402 841.752 C 944.902 813.451 921.301 791.053 893.002 791.053 L 693.8 791.053 L 558.4 653.653 C 547.9 642.952 541.7 638.553 522.9 638.553 C 490.5 638.553 40.9 638.852 40.9 638.852 C 18.3 638.852 0 657.153 0 679.752 L 0 774.553 L 0 785.153 C 0 807.752 18.3 826.053 40.9 826.053 Z  M 871 637.452 C 871 572.153 818 519.153 752.7 519.153 C 687.4 519.153 634.4 572.153 634.4 637.452 C 634.4 702.753 687.4 755.753 752.7 755.753 C 818 755.753 871 702.852 871 637.452 Z " fill="rgb(80,132,67)"/></g></g></svg>