<?xml version="1.0" standalone="no"?><!-- Generator: Gravit.io --><svg xmlns="http://www.w3.org/2000/svg" xmlns:xlink="http://www.w3.org/1999/xlink" style="isolation:isolate" viewBox="0 0 156.516 156.516" width="156.516px" height="156.516px"><defs><clipPath id="_clipPath_K3cykm7ve8czLfDDRC10SG8pRR9mcdCJ"><rect width="156.516" height="156.516"/></clipPath></defs><g clip-path="url(#_clipPath_K3cykm7ve8czLfDDRC10SG8pRR9mcdCJ)"><g><path d=" M 31.634 79.062 C 31.441 79.67 29.861 84.586 29.722 85.02 C 29.582 85.45 29.251 85.336 29.251 85.336 C 27.824 84.877 24.096 83.681 22.179 83.065 C 21.563 82.867 21.156 82.735 21.156 82.735 C 21.156 82.735 20.679 84.227 20.38 85.164 C 20.08 86.096 19.605 85.167 19.605 85.167 C 19.605 85.167 15.978 78.385 15.6 77.655 C 15.33 77.124 15.899 76.884 15.899 76.884 L 23.39 72.902 L 23.39 72.902 C 23.39 72.902 24.286 72.411 24.038 73.177 C 23.792 73.949 23.195 75.807 23.195 75.807 C 23.195 75.807 23.647 75.948 24.34 76.169 C 26.323 76.808 29.93 77.964 31.399 78.436 C 31.399 78.436 31.828 78.458 31.634 79.062 Z  M 51.4 20.827 C 52.322 20.487 53.792 19.943 53.792 19.943 C 53.792 19.943 53.938 20.344 54.163 20.952 C 54.857 22.842 56.213 26.514 56.731 27.921 C 56.731 27.921 56.846 28.252 57.271 28.098 C 57.697 27.94 62.543 26.155 63.142 25.934 C 63.737 25.714 63.49 25.362 63.49 25.362 C 62.957 23.915 61.644 20.361 60.926 18.405 C 60.672 17.723 60.505 17.281 60.505 17.281 C 60.505 17.281 62.338 16.605 63.097 16.325 C 63.852 16.045 62.914 15.643 62.914 15.643 L 55.16 12.196 C 55.16 12.196 54.621 11.897 54.369 12.436 C 54.026 13.183 50.92 20.219 50.92 20.219 C 50.92 20.219 50.482 21.164 51.4 20.827 Z  M 75.985 7.752 C 76.96 7.623 78.512 7.418 78.512 7.418 C 78.512 7.418 78.567 7.842 78.651 8.484 C 78.911 10.481 79.42 14.361 79.613 15.849 C 79.613 15.849 79.652 16.198 80.101 16.14 C 80.551 16.08 85.672 15.412 86.306 15.328 C 86.934 15.246 86.771 14.848 86.771 14.848 C 86.572 13.319 86.079 9.563 85.81 7.496 C 85.713 6.775 85.649 6.306 85.649 6.306 C 85.649 6.306 87.586 6.054 88.387 5.947 C 89.186 5.844 88.36 5.243 88.36 5.243 L 81.561 0.167 C 81.561 0.167 81.102 -0.246 80.737 0.226 C 80.238 0.878 75.651 7.052 75.651 7.052 C 75.651 7.052 75.014 7.877 75.985 7.752 Z  M 104.889 15.819 C 105.869 15.885 107.433 15.99 107.433 15.99 C 107.433 15.99 107.402 16.416 107.359 17.063 C 107.22 19.071 106.956 22.976 106.852 24.473 C 106.852 24.473 106.822 24.823 107.273 24.854 C 107.727 24.884 112.878 25.238 113.517 25.28 C 114.148 25.323 114.068 24.901 114.068 24.901 C 114.172 23.362 114.429 19.583 114.572 17.504 C 114.62 16.777 114.649 16.305 114.649 16.305 C 114.649 16.305 116.597 16.44 117.403 16.493 C 118.208 16.548 117.516 15.796 117.516 15.796 L 111.849 9.48 C 111.849 9.48 111.48 8.985 111.029 9.376 C 110.412 9.917 104.7 15.067 104.7 15.067 C 104.7 15.067 103.913 15.751 104.889 15.819 Z  M 140.867 40.189 L 137.417 32.438 C 137.417 32.438 137.218 31.853 136.667 32.085 C 135.914 32.41 128.895 35.555 128.895 35.555 C 128.895 35.555 127.936 35.963 128.844 36.329 C 129.757 36.692 131.213 37.274 131.213 37.274 C 131.213 37.274 131.052 37.67 130.812 38.271 C 130.063 40.139 128.61 43.774 128.052 45.167 C 128.052 45.167 127.915 45.49 128.335 45.659 C 128.758 45.828 133.551 47.748 134.146 47.983 C 134.733 48.218 134.786 47.793 134.786 47.793 C 135.36 46.36 136.766 42.844 137.541 40.908 C 137.81 40.231 137.983 39.791 137.983 39.791 C 137.983 39.791 139.795 40.519 140.546 40.816 C 141.295 41.117 140.867 40.189 140.867 40.189 Z  M 134.877 63.764 C 135.403 77.298 137.173 102.13 136.998 103.994 C 136.998 103.994 136.958 124.255 129.329 148.637 L 126.995 156.516 L 83.542 156.077 L 83.542 156.077 C 83.542 156.077 87.044 153.013 80.916 147.761 C 80.916 147.761 64.864 137.312 55.197 125.646 C 52.697 121.646 45.297 113.735 44.63 107.735 C 44.353 105.244 43.18 101.598 41.904 98.184 C 36.631 97.185 32.64 92.56 32.64 86.996 C 32.64 80.703 37.742 75.601 44.035 75.601 C 50.328 75.601 55.43 80.702 55.43 86.995 C 55.43 88.273 55.21 89.497 54.822 90.644 C 58.751 96.883 61.574 103.557 61.574 103.557 C 61.574 103.557 67.786 108.177 68.974 102.757 C 68.974 102.757 70.863 95.503 68.32 83.259 C 66.08 72.469 63.737 63.45 61.45 50.827 C 56.955 49.301 53.716 45.055 53.716 40.044 C 53.716 33.751 58.818 28.649 65.111 28.649 C 71.404 28.649 76.506 33.751 76.506 40.044 C 76.506 42.403 75.789 44.594 74.562 46.412 C 78.506 59.312 85.479 83.8 88.085 83.025 C 89.753 82.529 82.508 55.526 79.611 38.554 C 76.166 36.594 73.837 32.897 73.837 28.65 C 73.837 22.357 78.939 17.255 85.232 17.255 C 91.525 17.255 96.627 22.356 96.627 28.649 C 96.627 31.333 95.693 33.795 94.141 35.742 C 98.9 53.435 107.96 85.624 108.904 82.548 C 109.85 79.466 106.918 61.836 105.199 48.938 C 101.251 47.148 98.5 43.181 98.5 38.564 C 98.5 32.271 103.602 27.169 109.895 27.169 C 116.188 27.169 121.29 32.271 121.29 38.564 C 121.29 42.121 119.659 45.295 117.105 47.385 C 118.787 62.29 122.257 89.91 124.493 87.675 C 127.2 84.969 125.677 74.666 125.539 64.57 C 122.834 63.121 120.993 60.269 120.993 56.986 C 120.993 52.236 124.844 48.385 129.594 48.385 C 134.344 48.385 138.195 52.236 138.195 56.986 C 138.195 59.742 136.893 62.19 134.877 63.764 Z  M 53.07 86.995 C 53.07 82.005 49.024 77.96 44.035 77.96 C 39.045 77.96 35 82.005 35 86.995 C 35 90.857 37.429 94.145 40.839 95.437 C 39.396 91.836 38.1 89.027 38.1 89.027 C 38.1 89.027 36.379 80.573 44.922 80.37 C 47.685 81.36 50.505 84.386 53.02 87.938 C 53.053 87.628 53.07 87.313 53.07 86.995 Z  M 74.146 40.044 C 74.146 35.054 70.1 31.009 65.111 31.009 C 60.121 31.009 56.076 35.054 56.076 40.044 C 56.076 43.536 58.06 46.559 60.96 48.063 C 60.619 46.093 60.28 44.036 59.943 41.87 C 59.443 30.036 70.871 34.166 71.844 38.702 C 72.076 38.739 72.695 40.463 73.566 43.206 C 73.935 42.22 74.146 41.158 74.146 40.044 Z  M 93.317 32.664 C 93.919 31.453 94.267 30.094 94.267 28.65 C 94.267 23.66 90.221 19.615 85.232 19.615 C 80.242 19.615 76.197 23.66 76.197 28.65 C 76.197 31.263 77.313 33.61 79.087 35.26 C 78.282 29.727 78.149 25.796 79.3 25.151 C 81.807 19.741 90.447 20.989 91.298 24.835 C 91.487 25.688 92.233 28.59 93.317 32.664 Z  M 116.775 44.412 C 118.117 42.835 118.93 40.796 118.93 38.564 C 118.93 33.574 114.884 29.529 109.895 29.529 C 104.905 29.529 100.86 33.574 100.86 38.564 C 100.86 41.673 102.432 44.416 104.824 46.041 C 104.097 40.207 103.747 35.83 104.353 35.105 C 108.56 30.074 115.541 31.451 116.127 38.255 C 116.156 38.584 116.392 40.92 116.775 44.412 Z  M 136.413 56.986 C 136.413 53.22 133.36 50.167 129.594 50.167 C 125.828 50.167 122.775 53.219 122.775 56.986 C 122.775 59.228 123.862 61.211 125.532 62.454 C 125.552 60.118 125.666 57.823 125.95 55.668 C 126.873 48.659 134.733 52.203 134.731 57.899 C 134.731 58.861 134.753 60.043 134.794 61.392 C 135.802 60.203 136.413 58.667 136.413 56.986 Z " fill="rgb(213,31,31)"/></g></g></svg>