<?xml version="1.0" standalone="no"?><!-- Generator: Gravit.io --><svg xmlns="http://www.w3.org/2000/svg" xmlns:xlink="http://www.w3.org/1999/xlink" style="isolation:isolate" viewBox="0 0 700.236 700.236" width="700.236px" height="700.236px"><defs><clipPath id="_clipPath_y9CQxZ6Mah1Y9ccDnaTR5XYH8O6xsm37"><rect width="700.236" height="700.236"/></clipPath></defs><g clip-path="url(#_clipPath_y9CQxZ6Mah1Y9ccDnaTR5XYH8O6xsm37)"><g><path d=" M 645.527 495.815 L 569.918 452.126 L 633.75 414.111 C 644.012 409.167 647.188 395.387 641.352 385.256 C 635.411 374.881 622.588 372.693 612.854 378.366 L 527.747 428.215 L 392.488 349.51 L 527.746 271.616 L 612.853 321.384 C 615.511 323.329 618.931 324.464 622.734 324.464 C 629.947 324.464 636.408 321.06 641.351 314.575 C 647.05 304.281 644.011 290.664 633.749 285.72 L 569.917 247.705 L 645.526 204.017 C 655.381 198.343 658.77 185.617 653.128 175.161 C 647.739 165.11 634.405 161.625 624.249 167.542 L 548.259 211.636 L 547.124 135.606 C 546.946 123.853 538.005 114.369 526.228 114.369 C 514.453 114.369 505.244 124.582 505.333 135.606 L 506.087 235.952 L 371.591 313.846 L 371.591 155.788 L 456.318 107.479 C 466.209 101.886 470.519 88.836 464.675 78.624 C 458.741 68.249 446.56 65.168 436.177 71.005 L 371.591 107.48 L 371.591 21.236 C 371.591 9.483 362.091 0 350.314 0 C 338.537 0 329.418 9.483 329.418 21.236 L 329.418 108.289 L 262.547 71.004 C 252.131 65.249 240.273 68.491 234.429 78.623 C 228.496 88.998 232.184 101.724 242.405 107.478 L 329.418 156.517 L 329.418 313.035 L 191.876 233.682 L 192.638 135.605 C 193.781 124.582 183.9 114.368 172.123 114.368 L 171.361 114.368 C 160.345 114.368 150.587 123.852 150.465 135.605 L 149.703 209.365 L 75.619 166.811 C 65.276 160.813 52.51 164.379 47.12 174.349 C 41.478 184.886 44.396 197.288 54.723 203.286 L 129.569 246.569 L 64.215 285.719 C 53.96 290.664 50.758 304.443 57 314.575 C 61.02 321.141 66.873 324.464 74.856 324.464 C 79.03 324.464 82.507 323.41 85.871 321.384 L 171.36 270.886 L 308.522 349.51 L 171.36 428.944 L 85.871 378.366 C 75.609 372.368 62.381 375.205 56.999 385.256 C 51.357 395.712 54.421 408.276 64.213 414.111 L 129.568 452.855 L 54.721 496.544 C 44.419 502.542 41.079 515.187 47.118 525.481 C 51.342 532.614 57 536.1 64.976 536.1 C 66.873 536.1 70.674 534.965 75.619 533.02 L 149.703 490.466 L 150.465 564.226 C 150.587 575.979 160.345 585.057 171.361 585.057 L 172.123 585.057 C 183.9 585.057 192.727 575.249 192.638 563.415 L 191.876 465.419 L 329.418 386.796 L 329.418 542.503 L 242.405 591.541 C 232.022 597.377 228.39 610.103 234.429 620.397 C 238.652 627.611 244.31 631.096 252.285 631.096 C 256.087 631.096 259.588 630.448 262.547 628.745 L 329.418 590.81 L 329.418 679.323 C 329.418 691.076 338.537 700.235 350.314 700.235 C 362.091 700.235 371.591 691.076 371.591 679.323 L 371.591 592.269 L 436.177 628.745 C 439.134 630.447 442.636 631.096 446.058 631.096 C 454.413 631.096 460.574 627.692 464.675 620.397 C 470.446 610.184 466.718 597.376 456.318 591.541 L 371.591 544.043 L 371.591 385.985 L 506.087 463.879 L 505.333 563.415 C 505.235 575.249 514.452 585.057 526.229 585.057 C 538.006 585.057 546.946 575.979 547.124 564.226 L 548.259 487.791 L 624.249 532.29 C 627.183 533.992 631.089 534.56 635.272 534.56 C 643.249 534.56 649.1 531.237 653.127 524.671 C 659.363 514.539 655.382 501.489 645.527 495.815 Z " fill="rgb(34,0,255)"/></g></g></svg>