<?xml version="1.0" encoding="UTF-8"?>
<!DOCTYPE svg PUBLIC "-//W3C//DTD SVG 1.1//EN" "http://www.w3.org/Graphics/SVG/1.1/DTD/svg11.dtd">
<!-- Creator: CorelDRAW X6 -->
<svg xmlns="http://www.w3.org/2000/svg" xml:space="preserve" width="13.8889in" height="11.1111in" version="1.1" style="shape-rendering:geometricPrecision; text-rendering:geometricPrecision; image-rendering:optimizeQuality; fill-rule:evenodd; clip-rule:evenodd"
viewBox="0 0 13889 11111"
 xmlns:xlink="http://www.w3.org/1999/xlink">
 <defs>
  <style type="text/css">
   <![CDATA[
    .fil11 {fill:#2F75B6;fill-rule:nonzero}
    .fil1 {fill:#396BB2;fill-rule:nonzero}
    .fil10 {fill:#4283BD;fill-rule:nonzero}
    .fil9 {fill:#444444;fill-rule:nonzero}
    .fil0 {fill:#5484C2;fill-rule:nonzero}
    .fil8 {fill:#5B544D;fill-rule:nonzero}
    .fil3 {fill:#97B3D7;fill-rule:nonzero}
    .fil2 {fill:#A0C2E6;fill-rule:nonzero}
    .fil4 {fill:#ECEDEE;fill-rule:nonzero}
    .fil12 {fill:#F05949;fill-rule:nonzero}
    .fil6 {fill:#F6D7C8;fill-rule:nonzero}
    .fil7 {fill:#F9E7DD;fill-rule:nonzero}
    .fil5 {fill:#FEFEFE;fill-rule:nonzero}
    .fil14 {fill:#FFCC30;fill-rule:nonzero}
    .fil13 {fill:#FFD652;fill-rule:nonzero}
   ]]>
  </style>
 </defs>
 <g id="Layer_x0020_1">
  <metadata id="CorelCorpID_0Corel-Layer"/>
  <polygon class="fil0" points="0,11111 13889,11111 13889,0 0,0 "/>
  <path class="fil1" d="M4934 7542l0 83 -625 0 0 -250 458 0c92,0 167,75 167,167z"/>
  <path class="fil1" d="M3205 7625l0 -83c0,-92 75,-167 167,-167l458 0 0 250 -625 0z"/>
  <path class="fil1" d="M5635 5172l-824 -982c-16,-23 -34,-44 -53,-64l-5 -6c-10,-12 -22,-22 -35,-30 -84,-69 -191,-110 -308,-112 237,-90 429,-271 533,-501 7,1 15,1 23,1 127,0 229,-103 229,-229 0,-65 -27,-124 -71,-166 19,-81 30,-165 30,-251 0,-580 -456,-1054 -1030,-1082 -18,-1 -36,-1 -54,-1l-1042 0 0 292c0,112 25,219 69,314 -71,144 -111,306 -111,477 0,86 10,170 30,251 -44,42 -71,100 -71,166 0,127 103,229 229,229 8,0 15,0 23,-1 104,230 296,411 533,501 -117,2 -224,43 -308,112 -13,8 -25,18 -35,30l-5 6c-19,20 -37,41 -53,64l-824 982c-89,22 -151,105 -142,198 9,103 100,179 203,170 99,-9 173,-93 171,-191l500 -596 0 684c0,147 51,282 135,388l0 1549 458 0 0 -1313c10,1 21,1 31,1l417 0c10,0 21,0 31,-1l0 1313 458 0 0 -1549c85,-107 135,-242 135,-388l0 -684 500 596c-2,98 72,182 171,191 103,9 194,-67 203,-170 8,-94 -54,-177 -142,-198z"/>
  <path class="fil1" d="M2073 7542l0 83 -625 0 0 -250 458 0c92,0 167,75 167,167z"/>
  <path class="fil1" d="M344 7625l0 -83c0,-92 75,-167 167,-167l458 0 0 250 -625 0z"/>
  <path class="fil1" d="M2774 5172l-824 -982c-16,-23 -34,-44 -53,-64l-5 -6c-10,-12 -22,-22 -35,-30 -84,-69 -191,-110 -308,-112 237,-90 429,-271 533,-501 7,1 15,1 23,1 127,0 229,-103 229,-229 0,-65 -27,-124 -71,-166 19,-81 30,-165 30,-251 0,-580 -456,-1054 -1030,-1082 -18,-1 -36,-1 -54,-1l-1042 0 0 292c0,112 25,219 69,314 -71,144 -111,306 -111,477 0,86 10,170 30,251 -44,42 -71,100 -71,166 0,127 103,229 229,229 8,0 15,0 23,-1 104,230 296,411 533,501 -117,2 -224,43 -308,112 -13,8 -25,18 -35,30l-5 6c-19,20 -37,41 -53,64l-467 557 0 454 375 -447 0 684c0,147 51,282 135,388l0 1549 458 0 0 -1313c10,1 21,1 31,1l417 0c10,0 21,0 31,-1l0 1313 458 0 0 -1549c85,-107 135,-242 135,-388l0 -684 500 596c-2,98 72,182 171,191 103,9 194,-67 203,-170 8,-94 -54,-177 -142,-198z"/>
  <path class="fil1" d="M8927 7542l0 83 625 0 0 -250 -458 0c-92,0 -167,75 -167,167z"/>
  <path class="fil1" d="M10656 7625l0 -83c0,-92 -75,-167 -167,-167l-458 0 0 250 625 0z"/>
  <path class="fil1" d="M11357 5172l-824 -982c-16,-23 -34,-44 -53,-64l-5 -6c-10,-12 -22,-22 -35,-30 -84,-69 -191,-110 -308,-112 237,-90 429,-271 533,-501 7,1 15,1 23,1 127,0 229,-103 229,-229 0,-65 -27,-124 -71,-166 19,-81 30,-165 30,-251 0,-580 -456,-1054 -1030,-1082 -18,-1 -36,-1 -54,-1l-1042 0 0 292c0,112 25,219 69,314 -71,144 -111,306 -111,477 0,86 10,170 30,251 -44,42 -71,100 -71,166 0,127 103,229 229,229 8,0 15,0 23,-1 104,230 296,411 533,501 -117,2 -224,43 -308,112 -13,8 -25,18 -35,30l-5 6c-19,20 -37,41 -53,64l-824 982c-89,22 -151,105 -142,198 9,103 100,179 203,170 99,-9 173,-93 171,-191l500 -596 0 684c0,147 51,282 135,388l0 1549 458 0 0 -1313c10,1 21,1 31,1l417 0c10,0 21,0 31,-1l0 1313 458 0 0 -1549c85,-107 135,-242 135,-388l0 -684 500 596c-2,98 72,182 171,191 103,9 194,-67 203,-170 8,-94 -54,-177 -142,-198z"/>
  <path class="fil1" d="M11788 7542l0 83 625 0 0 -250 -458 0c-92,0 -167,75 -167,167z"/>
  <path class="fil1" d="M13517 7625l0 -83c0,-92 -75,-167 -167,-167l-458 0 0 250 625 0z"/>
  <path class="fil1" d="M13889 4780l0 454 -403 -480 0 684c0,147 -51,282 -135,388l0 1549 -458 0 0 -1313c-10,1 -21,1 -31,1l-417 0c-10,0 -21,0 -31,-1l0 1313 -458 0 0 -1549c-42,-53 -76,-114 -99,-179 -23,-65 -36,-136 -36,-209l0 -684 -500 596c2,98 -72,182 -171,191 -103,9 -194,-67 -203,-170 -8,-94 54,-177 142,-198l824 -982c16,-23 34,-44 53,-64l5 -6c10,-12 22,-22 35,-30 84,-69 191,-110 308,-112 -237,-90 -429,-271 -533,-501 -8,1 -15,1 -23,1 -127,0 -229,-103 -229,-229 0,-65 28,-124 71,-166 -19,-81 -30,-165 -30,-251 0,-171 40,-333 111,-477 -44,-96 -69,-202 -69,-314l0 -292 1042 0c18,0 36,0 54,1 573,28 1030,502 1030,1082 0,86 -10,170 -29,251 44,42 71,100 71,166 0,127 -103,229 -229,229 -8,0 -15,0 -23,-1 -104,230 -296,411 -533,501 117,2 224,43 308,112 13,8 25,18 35,30l5 6c20,20 37,41 53,64l495 590z"/>
  <path class="fil2" d="M6944 8806c-1534,0 -2778,-220 -2778,-491 0,-13 3,-27 9,-40l162 -649 596 0 0 -83c0,-92 -75,-167 -167,-167l0 -1472 29 -117c67,-100 106,-219 106,-348l0 -78 117 -467 384 457c-2,98 72,182 171,191 6,0 11,1 17,1 96,0 178,-74 187,-171 8,-94 -54,-177 -142,-198l-528 -629 877 -3515 1922 0 871 3489 -550 655c-89,22 -151,105 -142,198 9,98 90,171 187,171 5,0 11,0 17,-1 99,-9 173,-93 171,-191l405 -483 95 380 0 190c0,147 51,282 135,388l0 1549c-92,0 -167,75 -167,167l0 83 624 0 163 651c5,13 8,25 8,38 0,271 -1244,491 -2778,491z"/>
  <path class="fil3" d="M4934 7625l-596 0 62 -250 367 0c92,0 167,75 167,167l0 83z"/>
  <path class="fil3" d="M4767 7375l-367 0 367 -1472 0 1472zm29 -1589l106 -426 0 78c0,129 -39,249 -106,348zm794 -244c-5,0 -11,0 -17,-1 -99,-9 -173,-93 -171,-191l-384 -457 87 -350 528 629c89,22 151,105 142,198 -9,98 -90,171 -187,171z"/>
  <path class="fil3" d="M9552 7625l-624 0 0 -83c0,-92 75,-167 167,-167l395 0 62 250z"/>
  <path class="fil3" d="M9489 7375l-395 0 0 -1549c-85,-107 -135,-242 -135,-388l0 -190 531 2128zm-1219 -1833c-96,0 -178,-74 -187,-171 -8,-94 54,-177 142,-198l550 -655 87 350 -405 483c2,98 -72,182 -171,191 -6,0 -11,1 -17,1z"/>
  <polygon class="fil4" points="9959,9737 10108,9963 10954,9404 10805,9179 "/>
  <polygon class="fil5" points="12163,11111 10786,11111 9995,9914 10052,9877 10897,9318 10953,9281 "/>
  <path class="fil0" d="M10793 9834c-47,31 -110,18 -140,-29 -31,-47 -18,-110 29,-140 47,-31 110,-18 140,29 31,47 18,110 -29,140z"/>
  <path class="fil6" d="M9392 8817l-187 -38 -27 299c-7,80 34,157 104,196l686 378 57 -245 -632 -590z"/>
  <path class="fil7" d="M9944 8007c-60,43 -73,126 -32,187l7 11c5,7 4,18 -3,23 -8,6 -19,5 -25,-4l-65 -99c-40,-61 -122,-82 -185,-44 -66,40 -84,126 -42,190l67 101c5,8 3,18 -5,23l0 0c-8,5 -18,3 -23,-5l-102 -155c-40,-61 -122,-82 -185,-44 -66,40 -84,126 -42,190l104 158c5,8 3,18 -5,23l0 0c-8,5 -18,3 -23,-5l-419 -635c-40,-61 -122,-82 -185,-44 -66,40 -84,126 -42,190l812 1229c102,154 249,278 419,351l76 30 677 -447 -9 -109c-13,-158 -66,-311 -153,-444l-423 -640c-42,-64 -129,-80 -191,-35z"/>
  <path class="fil5" d="M8934 7945l19 28c21,31 12,73 -19,94l-56 37c-31,21 -73,12 -94,-19l-19 -28c-31,-47 -18,-110 29,-140 47,-31 110,-18 140,29z"/>
  <polygon class="fil7" points="3141,9234 1698,11111 3075,11111 3817,9681 "/>
  <path class="fil6" d="M4469 8817l187 -38 27 299c7,80 -34,157 -104,196l-686 378 -57 -245 632 -590z"/>
  <path class="fil7" d="M3917 8007c60,43 73,126 32,187l-7 11c-5,7 -4,18 3,23 8,6 19,5 25,-4l65 -99c40,-61 122,-82 185,-44 66,40 84,126 42,190l-67 101c-5,8 -3,18 5,23l0 0c8,5 18,3 23,-5l102 -155c40,-61 122,-82 185,-44 66,40 84,126 42,190l-104 158c-5,8 -3,18 5,23l0 0c8,5 18,3 23,-5l419 -635c40,-61 122,-82 185,-44 66,40 84,126 42,190l-812 1229c-102,154 -249,278 -419,351l-76 30 -677 -447 9 -109c13,-158 66,-311 153,-444l423 -640c42,-64 129,-80 191,-35z"/>
  <path class="fil5" d="M4927 7945l-19 28c-21,31 -12,73 19,94l56 37c31,21 73,12 94,-19l19 -28c31,-47 18,-110 -29,-140 -47,-31 -110,-18 -140,29z"/>
  <polygon class="fil8" points="6247,7375 6705,7375 6705,5708 6247,5708 "/>
  <path class="fil9" d="M6705 7625l-625 0 0 -83c0,-92 75,-167 167,-167l458 0 0 250z"/>
  <polygon class="fil8" points="7184,7375 7642,7375 7642,5708 7184,5708 "/>
  <path class="fil9" d="M7184 7625l625 0 0 -83c0,-92 -75,-167 -167,-167l-458 0 0 250z"/>
  <path class="fil5" d="M6111 5438l1667 0 0 -958c0,-276 -224,-500 -500,-500l-667 0c-276,0 -500,224 -500,500l0 958z"/>
  <path class="fil8" d="M6736 6063l417 0c345,0 625,-280 625,-625l-1667 0 0 0c0,345 280,625 625,625z"/>
  <polygon class="fil10" points="6840,4271 7049,4271 7132,3979 6757,3979 "/>
  <polygon class="fil11" points="6840,4271 7049,4271 7132,5229 6944,5354 6757,5229 "/>
  <path class="fil5" d="M8578 5254l-951 -1133c-52,-62 -144,-70 -205,-18l0 0c-62,52 -70,144 -18,205l951 1133c52,62 144,70 205,18l0 0c62,-52 70,-144 18,-205z"/>
  <path class="fil6" d="M8449 5541c-103,-9 -179,-100 -170,-203 9,-103 100,-179 203,-170 103,9 179,100 170,203 -9,103 -100,179 -203,170z"/>
  <path class="fil5" d="M5310 5254l951 -1133c52,-62 144,-70 205,-18l0 0c62,52 70,144 18,205l-951 1133c-52,62 -144,70 -205,18l0 0c-62,-52 -70,-144 -18,-205z"/>
  <path class="fil6" d="M5440 5541c103,-9 179,-100 170,-203 -9,-103 -100,-179 -203,-170 -103,9 -179,100 -170,203 9,103 100,179 203,170z"/>
  <path class="fil9" d="M8028 2833c0,598 -485,1083 -1083,1083 -598,0 -1083,-485 -1083,-1083 0,-598 485,-1083 1083,-1083 598,0 1083,485 1083,1083z"/>
  <path class="fil6" d="M6278 3250c0,127 -103,229 -229,229 -127,0 -229,-103 -229,-229 0,-127 103,-229 229,-229 127,0 229,103 229,229z"/>
  <path class="fil6" d="M8069 3250c0,127 -103,229 -229,229 -127,0 -229,-103 -229,-229 0,-127 103,-229 229,-229 127,0 229,103 229,229z"/>
  <path class="fil6" d="M7903 3083c0,529 -429,958 -958,958 -529,0 -958,-429 -958,-958 0,-529 429,-958 958,-958 529,0 958,429 958,958z"/>
  <path class="fil9" d="M6590 3250c0,58 -47,104 -104,104 -58,0 -104,-47 -104,-104 0,-58 47,-104 104,-104 58,0 104,47 104,104z"/>
  <path class="fil9" d="M7507 3250c0,58 -47,104 -104,104 -58,0 -104,-47 -104,-104 0,-58 47,-104 104,-104 58,0 104,47 104,104z"/>
  <path class="fil12" d="M7194 3583c0,138 -112,250 -250,250 -138,0 -250,-112 -250,-250l500 0z"/>
  <path class="fil9" d="M7986 2792l-1333 0c-414,0 -750,-336 -750,-750l0 -292 1042 0c575,0 1042,466 1042,1042l0 0z"/>
  <path class="fil13" d="M7002 0l0 293c0,38 -31,69 -70,69 -38,0 -69,-31 -69,-69l0 -293 139 0z"/>
  <path class="fil14" d="M7906 1028l-1922 0 0 0c0,-460 373,-833 833,-833l256 0c460,0 833,373 833,833l0 0z"/>
  <polygon class="fil5" points="6490,10322 7504,10322 7504,10052 6490,10052 "/>
  <polygon class="fil9" points="6423,11111 7571,11111 7571,10219 6423,10219 "/>
  <path class="fil14" d="M7132 10592c-56,0 -101,-45 -101,-101 0,-56 45,-101 101,-101 56,0 101,45 101,101 0,56 -45,101 -101,101z"/>
  <path class="fil6" d="M6524 8971l-135 -135 -187 234c-50,63 -59,150 -21,221l364 693 182 -173 -203 -841z"/>
  <path class="fil7" d="M7431 8599c-73,3 -130,65 -130,138l0 13c0,9 -6,17 -15,18 -10,1 -19,-7 -19,-17l0 -118c0,-73 -57,-136 -130,-138 -77,-3 -140,59 -140,135l0 121c0,9 -8,17 -17,17l0 0c-9,0 -17,-8 -17,-17l0 -186c0,-73 -57,-136 -130,-138 -77,-3 -140,59 -140,135l0 189c0,9 -8,17 -17,17l0 0c-9,0 -17,-8 -17,-17l0 -761c0,-73 -57,-136 -130,-138 -77,-3 -140,59 -140,135l0 1473c0,185 54,369 156,524l47 68 811 0 52 -96c76,-139 117,-296 117,-455l0 -767c0,-76 -63,-138 -140,-135z"/>
  <path class="fil5" d="M6623 7991l0 34c0,37 -30,68 -68,68l-68 0c-37,0 -68,-30 -68,-68l0 -34c0,-56 45,-101 101,-101 56,0 101,45 101,101z"/>
 </g>
</svg>
