<?xml version="1.0" encoding="UTF-8" standalone="no"?>
<svg
   xmlns:dc="http://purl.org/dc/elements/1.1/"
   xmlns:cc="http://creativecommons.org/ns#"
   xmlns:rdf="http://www.w3.org/1999/02/22-rdf-syntax-ns#"
   xmlns:svg="http://www.w3.org/2000/svg"
   xmlns="http://www.w3.org/2000/svg"
   viewBox="0 0 386.79999 376.17334"
   height="376.17334"
   width="386.79999"
   xml:space="preserve"
   id="svg2"
   version="1.1"><metadata
     id="metadata8"><rdf:RDF><cc:Work
         rdf:about=""><dc:format>image/svg+xml</dc:format><dc:type
           rdf:resource="http://purl.org/dc/dcmitype/StillImage" /></cc:Work></rdf:RDF></metadata><defs
     id="defs6" /><g
     transform="matrix(1.3333333,0,0,-1.3333333,0,376.17333)"
     id="g10"><g
       transform="scale(0.1)"
       id="g12"><path
         id="path14"
         style="fill:#f4d6b7;fill-opacity:1;fill-rule:nonzero;stroke:none"
         d="m 428.113,1481.58 c 0,0 154.481,-267.54 392.567,-426.13 l -26.196,-61.93 c 0,0 -321.515,164.98 -454.546,451.51 l 88.175,36.55" /><path
         id="path16"
         style="fill:#f4d6b7;fill-opacity:1;fill-rule:nonzero;stroke:none"
         d="m 962.703,990.031 c -16.426,-4.73 -33.68,0.938 -49.609,5.028 -21.254,5.411 -42.766,2.281 -62.985,-5.528 -1.523,-0.582 -3.437,-1.179 -4.804,-2.019 4.441,-9 47.695,-61.84 35.972,-64.762 l -2.043,-0.379 c -0.875,-0.949 -2.207,-1.402 -3.675,-0.851 l -1.618,0.671 c -8.906,0.739 -17.156,6.61 -24.117,13.688 -24.613,25.012 -65.918,52.019 -64.949,91.571 1.137,50.84 58.051,76.61 101.18,82.73 9.812,1.38 21.226,1.95 30.937,-0.35 4.313,-1 6.098,-5.79 2.688,-8.97 -8.567,-7.98 -20.071,-10.98 -31.676,-13.79 18.75,2.71 36.426,2.36 48.637,0.38 25.347,-3.89 22.754,-21.72 7.625,-21.47 -21.903,0.39 -33.293,-0.77 -50.93,-6.5 -3.203,-1.02 -6.508,-2.44 -9.734,-4.05 7.785,1.43 15.519,2.32 22.8,2.95 17.668,1.43 46.586,-3.2 55.961,-12.29 3.254,-3.17 0.262,-7.94 -3.429,-8.91 -16.789,-4.32 -36.594,-0.52 -54.079,-2.95 -8.339,-1.16 -16.246,-3.25 -24.066,-5.74 31.18,0.88 65.125,-7.43 85.824,-28.25 3.758,-3.771 0.157,-9.021 -3.91,-10.209" /><path
         id="path18"
         style="fill:#e1b485;fill-opacity:1;fill-rule:nonzero;stroke:none"
         d="m 428.113,1481.58 c 0,0 154.481,-267.54 392.567,-426.13 l -26.196,-61.93 c 0,0 -321.515,164.98 -454.546,451.51 l 88.175,36.55" /><path
         id="path20"
         style="fill:#e1b485;fill-opacity:1;fill-rule:nonzero;stroke:none"
         d="m 962.703,990.031 c -16.426,-4.73 -33.68,0.938 -49.609,5.028 -21.254,5.411 -42.766,2.281 -62.985,-5.528 -1.523,-0.582 -3.437,-1.179 -4.804,-2.019 4.441,-9 47.695,-61.84 35.972,-64.762 l -2.043,-0.379 c -0.875,-0.949 -2.207,-1.402 -3.675,-0.851 l -1.618,0.671 c -8.906,0.739 -17.156,6.61 -24.117,13.688 -24.613,25.012 -65.918,52.019 -64.949,91.571 1.137,50.84 58.051,76.61 101.18,82.73 9.812,1.38 21.226,1.95 30.937,-0.35 4.313,-1 6.098,-5.79 2.688,-8.97 -8.567,-7.98 -20.071,-10.98 -31.676,-13.79 18.75,2.71 36.426,2.36 48.637,0.38 25.347,-3.89 22.754,-21.72 7.625,-21.47 -21.903,0.39 -33.293,-0.77 -50.93,-6.5 -3.203,-1.02 -6.508,-2.44 -9.734,-4.05 7.785,1.43 15.519,2.32 22.8,2.95 17.668,1.43 46.586,-3.2 55.961,-12.29 3.254,-3.17 0.262,-7.94 -3.429,-8.91 -16.789,-4.32 -36.594,-0.52 -54.079,-2.95 -8.339,-1.16 -16.246,-3.25 -24.066,-5.74 31.18,0.88 65.125,-7.43 85.824,-28.25 3.758,-3.771 0.157,-9.021 -3.91,-10.209" /><path
         id="path22"
         style="fill:#e1b485;fill-opacity:1;fill-rule:nonzero;stroke:none"
         d="M 751.125,845.789 712.297,686.57 734.598,664.66 h 0.007 C 695.988,611.871 634.539,523.461 584.777,431.461 c 33.055,-0.41 47.403,-34.539 58.051,-67.551 l 218.477,280.481 v 14.32 C 891.145,781 751.125,845.789 751.125,845.789" /><path
         id="path24"
         style="fill:#d79f6b;fill-opacity:1;fill-rule:nonzero;stroke:none"
         d="m 830.223,604.492 c 1.269,19.477 -2.868,37.399 -19.059,48.738 -12.105,8.489 -25.277,12.122 -38.625,12.122 -16.039,0 -32.336,-5.25 -47.316,-13.614 3.254,4.492 6.406,8.844 9.382,12.922 h -0.007 l -15.219,14.949 c 2.801,2.852 5.527,5.789 8.18,8.821 1.937,-0.469 3.894,-0.942 5.859,-1.43 0.004,0 0.004,0.012 0.008,0.012 39.406,-9.68 83.734,-21.563 97.57,-23 l 18.899,-34.274 -19.672,-25.246" /><path
         id="path26"
         style="fill:#9683af;fill-opacity:1;fill-rule:nonzero;stroke:none"
         d="m 687.027,482.211 c -12.242,11.871 -27.789,23.168 -45.218,25.641 -4.172,0.597 -8.293,0.668 -12.391,0.679 -15.289,-24.929 -30.453,-50.832 -44.641,-77.07 33.059,-0.41 47.403,-34.539 58.051,-67.551 l 66.871,85.86 c -6.195,11.718 -13.222,23.3 -22.672,32.441" /><path
         id="path28"
         style="fill:#f4d6b7;fill-opacity:1;fill-rule:nonzero;stroke:none"
         d="m 1075.99,367.371 c -21.85,70.711 -133.9,305.527 -159.049,377.867 -14.511,41.684 -109.343,83.453 -174.972,119.75 7.453,-66.476 -19.239,-119.34 -69.324,-165.398 29.929,-2.469 135.55,-33.211 158.351,-35.578 L 1010.99,337.621 c 23.03,-18.902 51.99,4.629 65,29.75" /><path
         id="path30"
         style="fill:#e1b485;fill-opacity:1;fill-rule:nonzero;stroke:none"
         d="m 779.273,730.488 c 19.961,34.91 28.2,65.801 25.305,101.231 -21.551,11.461 -43.332,22.621 -62.609,33.269 7.453,-66.476 -19.239,-119.34 -69.324,-165.398 11.761,-0.969 35.246,-6.32 60.773,-12.59 21.297,9.359 34.156,23.059 45.855,43.488" /><path
         id="path32"
         style="fill:#d51e27;fill-opacity:1;fill-rule:nonzero;stroke:none"
         d="m 639.461,401.648 c -17.176,18.032 -36.953,30.422 -59.734,39.434 -19.973,-6.66 -57.539,-19.883 -65.079,-27.523 -10.378,-10.477 -3.523,-199.418 62.961,-261.649 56.274,-52.7498 75.668,157.801 80.278,223.539 -5.153,9.512 -11.071,18.473 -18.426,26.199" /><path
         id="path34"
         style="fill:#fcfbc2;fill-opacity:1;fill-rule:nonzero;stroke:none"
         d="m 597.441,143.461 c 11.106,34.09 -1.16,94.648 -4.089,121.527 -5.622,51.473 4.234,146.563 -61.247,155.801 -8.535,-2.391 -15.078,-4.828 -17.457,-7.23 -10.378,-10.477 -3.523,-199.418 62.961,-261.649 7.438,-7 13.985,-9.379 19.832,-8.449" /><path
         id="path36"
         style="fill:#d3d4d3;fill-opacity:1;fill-rule:nonzero;stroke:none"
         d="m 587.836,147 c 8.719,9.422 2.258,22.832 0.828,33.52 -1.758,13.089 -3.18,26.242 -3.988,39.41 -1.485,23.832 -2.028,47.691 -3.555,71.48 -1.652,25.922 -3.262,53.059 -10.641,78.129 -7.796,26.422 -30.625,53.473 -55.031,44.609 l -0.801,-0.589 c -10.378,-10.477 -3.523,-199.418 62.961,-261.649 3.204,-3.031 6.266,-5.219 9.18,-6.64 l 1.047,1.73" /><path
         id="path38"
         style="fill:#d3d4d3;fill-opacity:1;fill-rule:nonzero;stroke:none"
         d="m 514.441,413.32 c 0.004,0 0.004,0.012 0.008,0.012 -0.004,0 -0.004,-0.012 -0.008,-0.012 m 0.016,0.02 c 0.063,0.082 0.129,0.148 0.191,0.219 -0.062,-0.071 -0.128,-0.137 -0.191,-0.219" /><path
         id="path40"
         style="fill:#cfd29e;fill-opacity:1;fill-rule:nonzero;stroke:none"
         d="m 515.449,414.148 c 3.227,1.172 6.426,1.723 9.563,1.723 1.531,0 3.051,-0.129 4.547,-0.383 -1.496,0.254 -3.012,0.383 -4.539,0.383 -3.145,0 -6.34,-0.551 -9.571,-1.723 m 14.203,1.321 c -0.015,0.011 -0.031,0.011 -0.043,0.011 0.012,0 0.028,0 0.043,-0.011" /><path
         id="path42"
         style="fill:#a9adac;fill-opacity:1;fill-rule:nonzero;stroke:none"
         d="m 565.926,381.422 c -18.321,5.91 -36.488,12.238 -54.363,19.418 0.64,6.48 1.613,10.871 2.878,12.48 0.004,0 0.004,0.012 0.008,0.012 0,0 0.004,0 0.008,0.008 0.063,0.082 0.129,0.148 0.191,0.219 v 0 l 0.801,0.589 v 0 c 3.231,1.172 6.426,1.723 9.571,1.723 1.527,0 3.043,-0.129 4.539,-0.383 0.019,0 0.035,-0.008 0.05,-0.008 0.012,0 0.028,0 0.043,-0.011 15.121,-2.559 28.442,-17.278 36.274,-34.047" /><path
         id="path44"
         style="fill:#a9adac;fill-opacity:1;fill-rule:nonzero;stroke:none"
         d="m 573.863,354.48 c -21.484,5.129 -42.738,10.84 -63.008,19.02 -0.093,4.82 -0.117,9.43 -0.027,13.551 19.91,-7.821 40.145,-14.672 60.52,-21.153 1.023,-3.738 1.718,-7.589 2.515,-11.418" /><path
         id="path46"
         style="fill:#a9adac;fill-opacity:1;fill-rule:nonzero;stroke:none"
         d="m 579.188,316.91 c -22.43,6.399 -44.68,13.371 -66.305,21.981 -0.637,7.007 -1.149,13.82 -1.485,20.16 21.02,-7.871 42.969,-13.379 65.024,-18.629 1.176,-7.793 2.043,-15.66 2.766,-23.512" /><path
         id="path48"
         style="fill:#a9adac;fill-opacity:1;fill-rule:nonzero;stroke:none"
         d="m 580.969,293.57 c -6.77,2.039 -13.531,4.168 -20.313,6.36 -14.785,4.769 -29.941,7.929 -44.742,12.23 -0.566,4.078 -1.07,8.102 -1.523,12.09 21.562,-8.211 43.64,-14.98 65.879,-21.32 0.234,-3.11 0.48,-6.25 0.699,-9.36" /><path
         id="path50"
         style="fill:#cfd29e;fill-opacity:1;fill-rule:nonzero;stroke:none"
         d="m 583.34,246.262 c -0.004,0 -0.012,0 -0.02,0.008 -0.043,0.98 -0.086,1.972 -0.129,2.949 0.051,-0.989 0.106,-1.969 0.149,-2.957" /><path
         id="path52"
         style="fill:#a9adac;fill-opacity:1;fill-rule:nonzero;stroke:none"
         d="m 583.32,246.27 c -8.199,2.031 -16.394,4.121 -24.59,6.21 -9.437,2.411 -21.757,3.602 -32.742,6.352 -1.242,5.129 -2.441,10.277 -3.511,15.449 18.851,-5.73 38.011,-10.441 57.199,-15.301 0.98,-0.25 2.039,-0.449 3.047,-0.691 0.132,-3.019 0.308,-6.039 0.468,-9.07 0.043,-0.977 0.086,-1.969 0.129,-2.949" /><path
         id="path54"
         style="fill:#cfd29e;fill-opacity:1;fill-rule:nonzero;stroke:none"
         d="m 585.668,208.039 c -0.035,0.012 -0.07,0.02 -0.105,0.02 -0.344,3.961 -0.645,7.91 -0.887,11.871 0.242,-3.961 0.629,-7.93 0.992,-11.891 m -1.094,13.5 c -0.222,3.68 -0.422,7.359 -0.609,11.051 0.019,-0.008 0.043,-0.008 0.066,-0.02 0.192,-3.679 0.332,-7.351 0.543,-11.031" /><path
         id="path56"
         style="fill:#a9adac;fill-opacity:1;fill-rule:nonzero;stroke:none"
         d="m 585.563,208.059 c -17.059,4.273 -33.735,9.871 -49.711,16.961 -2.168,6.378 -4.235,12.851 -6.079,19.48 8.84,-1.68 17.856,-2.852 25.434,-4.77 9.598,-2.429 19.184,-4.832 28.758,-7.14 0.187,-3.692 0.387,-7.371 0.609,-11.051 0.031,-0.539 0.067,-1.07 0.102,-1.609 v 0 c 0.242,-3.961 0.543,-7.91 0.887,-11.871" /><path
         id="path58"
         style="fill:#d3d4d3;fill-opacity:1;fill-rule:nonzero;stroke:none"
         d="m 577.492,152.02 c -0.668,0.621 -1.328,1.261 -1.98,1.91 0.652,-0.649 1.316,-1.289 1.98,-1.91 m -2.054,1.98 c -0.012,0.02 -0.028,0.031 -0.04,0.039 0.012,-0.008 0.028,-0.019 0.04,-0.039" /><path
         id="path60"
         style="fill:#cfd29e;fill-opacity:1;fill-rule:nonzero;stroke:none"
         d="m 586.805,145.301 v 0 l 1.031,1.699 c 3.371,3.641 4.473,7.879 4.473,12.328 0,-4.449 -1.102,-8.687 -4.473,-12.328 l -1.031,-1.699 m 1.859,35.219 c -0.609,4.539 -1.18,9.089 -1.695,13.64 0.023,-0.012 0.047,-0.012 0.066,-0.019 0.52,-4.539 1.024,-9.09 1.629,-13.621" /><path
         id="path62"
         style="fill:#a9adac;fill-opacity:1;fill-rule:nonzero;stroke:none"
         d="m 586.789,145.27 c -2.914,1.421 -5.976,3.609 -9.18,6.64 v 0 c -0.039,0.031 -0.078,0.07 -0.117,0.11 -0.664,0.621 -1.328,1.261 -1.98,1.91 -0.024,0.031 -0.047,0.05 -0.074,0.07 -0.012,0.02 -0.028,0.031 -0.04,0.039 -13.578,13.57 -24.472,32.52 -33.242,54 14.551,-5.687 29.547,-10.277 44.813,-13.879 0.515,-4.551 1.086,-9.101 1.695,-13.64 v 0 c 0.879,-6.559 3.645,-14.141 3.645,-21.192 0,-4.449 -1.102,-8.687 -4.473,-12.328 l -1.031,-1.699 -0.016,-0.031" /><path
         id="path64"
         style="fill:#a9adac;fill-opacity:1;fill-rule:nonzero;stroke:none"
         d="m 582.078,271.84 c -20.93,4.84 -41.91,10.109 -62.34,16.871 -0.558,3.059 -1.187,6.141 -1.679,9.187 9.05,-2.449 18.207,-4.668 27.464,-6.968 12.25,-3.032 24.211,-6.68 36.145,-10.321 0.148,-2.918 0.281,-5.847 0.41,-8.769" /><path
         id="path66"
         style="fill:#472c1a;fill-opacity:1;fill-rule:nonzero;stroke:none"
         d="m 611.207,223.859 -2.324,0.129 -330.535,34.352 c -12.141,1.269 -20.934,12.129 -19.696,24.262 1.266,12.128 12.118,20.769 24.266,19.687 L 613.453,267.91 c 12.141,-1.25 20.942,-12.109 19.692,-24.25 -1.176,-11.359 -10.766,-19.801 -21.938,-19.801" /><path
         id="path68"
         style="fill:#472c1a;fill-opacity:1;fill-rule:nonzero;stroke:none"
         d="m 640.699,72.5195 c -10.691,0 -20.094,7.8008 -21.797,18.6993 L 525.68,691.172 c -1.86,12.047 6.379,23.34 18.437,25.219 12.098,1.738 23.332,-6.403 25.207,-18.43 L 662.559,98 c 1.871,-12.0508 -6.391,-23.3594 -18.426,-25.2187 -1.149,-0.1602 -2.301,-0.2618 -3.434,-0.2618" /><path
         id="path70"
         style="fill:#332116;fill-opacity:1;fill-rule:nonzero;stroke:none"
         d="m 275.133,91.3594 h -0.469 c -12.187,0.2422 -21.883,10.3316 -21.641,22.5386 l 11.055,551.032 c 0.231,12.031 10.07,21.64 22.067,21.64 h 0.453 c 12.203,-0.261 21.886,-10.351 21.64,-22.55 L 297.184,112.992 C 296.949,100.969 287.109,91.3594 275.133,91.3594" /><path
         id="path72"
         style="fill:#563620;fill-opacity:1;fill-rule:nonzero;stroke:none"
         d="m 139.23,183.391 c -8.175,0 -16.05,4.558 -19.875,12.39 -5.332,10.981 -0.792,24.199 10.176,29.539 l 135.907,66.27 c 10.984,5.301 24.207,0.769 29.527,-10.18 5.344,-10.969 0.797,-24.191 -10.18,-29.531 l -135.898,-66.27 c -3.11,-1.519 -6.414,-2.218 -9.657,-2.218" /><path
         id="path74"
         style="fill:#563620;fill-opacity:1;fill-rule:nonzero;stroke:none"
         d="m 491.797,151.469 c -8.082,0 -15.859,4.441 -19.731,12.172 -5.472,10.89 -1.113,24.168 9.801,29.648 l 126.774,63.793 c 10.882,5.508 24.156,1.098 29.64,-9.812 5.489,-10.891 1.102,-24.161 -9.797,-29.661 L 501.715,153.832 c -3.192,-1.613 -6.578,-2.363 -9.918,-2.363" /><path
         id="path76"
         style="fill:#472c1a;fill-opacity:1;fill-rule:nonzero;stroke:none"
         d="m 471.445,141.051 c -0.941,0 -1.882,0.058 -2.84,0.16 l -332.179,42.348 c -12.11,1.55 -20.656,12.613 -19.106,24.691 1.524,12.129 12.524,20.641 24.688,19.129 l 332.187,-42.34 c 12.114,-1.551 20.66,-12.609 19.125,-24.687 -1.418,-11.153 -10.925,-19.301 -21.875,-19.301" /><path
         id="path78"
         style="fill:#5f3d26;fill-opacity:1;fill-rule:nonzero;stroke:none"
         d="m 115.871,25.1094 -2.555,0.1289 C 101.18,26.6602 92.5,37.6094 93.8984,49.7188 L 169.355,702.109 c 1.407,12.121 12.629,20.813 24.481,19.411 12.113,-1.411 20.805,-12.372 19.406,-24.469 L 137.77,44.6602 C 136.48,33.3984 126.926,25.1094 115.871,25.1094" /><path
         id="path80"
         style="fill:#5f3d26;fill-opacity:1;fill-rule:nonzero;stroke:none"
         d="m 491.746,-0.0117188 c -11.324,0 -20.973,8.6914088 -21.953,20.1914188 l -56.27,652.4023 c -1.062,12.148 7.954,22.848 20.09,23.898 12.27,0.911 22.852,-7.968 23.914,-20.109 L 513.785,23.9805 C 514.832,11.8281 505.832,1.12891 493.684,0.0898438 l -1.938,-0.1015626" /><path
         id="path82"
         style="fill:#714b2f;fill-opacity:1;fill-rule:nonzero;stroke:none"
         d="M 622.082,736.992 C 572.938,759 479.762,773.941 372.723,773.941 265.668,773.941 172.48,759 123.359,736.992 H 86.3672 V 701.41 c 0,-40.051 128.1958,-72.512 286.3558,-72.512 158.148,0 286.363,32.461 286.363,72.512 v 35.582 h -37.004" /><path
         id="path84"
         style="fill:#8b5d3b;fill-opacity:1;fill-rule:nonzero;stroke:none"
         d="m 659.086,736.992 c 0,-40.043 -128.215,-72.5 -286.363,-72.5 -158.16,0 -286.3558,32.457 -286.3558,72.5 0,40.067 128.1958,72.528 286.3558,72.528 158.148,0 286.363,-32.461 286.363,-72.528" /><path
         id="path86"
         style="fill:#3a7699;fill-opacity:1;fill-rule:nonzero;stroke:none"
         d="m 280.633,800.039 c 0,0 84.109,-16.68 157.695,3.84 0,0 49.852,-61.508 82.988,-87.25 l -25.48,-30.059 -112.137,9.969 c 0,0 -63.39,36.813 -103.066,103.5" /><path
         id="path88"
         style="fill:#356e8e;fill-opacity:1;fill-rule:nonzero;stroke:none"
         d="M 780.359,857.98 C 718.406,891.102 662.82,914.059 662.82,914.059 l -12.941,35.39 -485.805,40.86 c 0,0 -37.195,-127.797 37.524,-216.129 61.836,-73.098 323.203,-94.871 501.285,-109.52 54.801,44 89.558,124.891 77.476,193.32" /><path
         id="path90"
         style="fill:#3385a9;fill-opacity:1;fill-rule:nonzero;stroke:none"
         d="m 254.574,861.57 c -35.277,5.532 -69.441,16.25 -99.125,35.602 2.547,-39.402 13.879,-84.84 46.149,-122.992 15.582,-18.438 43.898,-33.59 80.336,-46.219 -21.922,40.73 -28.094,87.019 -27.36,133.609" /><path
         id="path92"
         style="fill:#7da9b8;fill-opacity:1;fill-rule:nonzero;stroke:none"
         d="m 703.063,664.809 c 0.042,0.031 0.082,0.062 0.125,0.089 -0.043,-0.027 -0.083,-0.058 -0.125,-0.089 m 0.16,0.121 c 2.277,1.84 4.523,3.742 6.726,5.711 -2.203,-1.961 -4.449,-3.871 -6.726,-5.711 m 6.797,5.769 c 0.031,0.031 0.066,0.063 0.097,0.082 -0.031,-0.019 -0.066,-0.051 -0.097,-0.082" /><path
         id="path94"
         style="fill:#224664;fill-opacity:1;fill-rule:nonzero;stroke:none"
         d="m 702.883,664.66 c -48.391,3.981 -102.93,8.488 -157.945,14.399 -30.09,3.242 -60.305,6.902 -89.75,11.132 -100.977,14.5 -192.719,35.668 -237.766,69.379 16.105,-12.05 38.191,-22.488 64.512,-31.609 -3.539,6.578 -6.668,13.301 -9.426,20.148 44.015,-14.949 92.285,-22.57 133.129,-28.027 32.148,-4.293 64.261,-9 96.433,-13.102 37.961,-4.832 80.801,-11.808 121.532,-11.808 15.617,0 30.929,1.019 45.531,3.59 50.64,8.91 90.719,49.886 110.551,98.297 -8.418,-47.75 -34.215,-94.75 -69.567,-126.278 -0.031,-0.019 -0.066,-0.051 -0.097,-0.082 -0.024,-0.019 -0.047,-0.039 -0.071,-0.058 -2.203,-1.969 -4.449,-3.871 -6.726,-5.711 -0.012,-0.008 -0.024,-0.008 -0.035,-0.032 -0.043,-0.027 -0.083,-0.058 -0.125,-0.089 -0.059,-0.047 -0.122,-0.098 -0.18,-0.149 v 0 m -485.496,94.93 c -0.008,0.012 -0.02,0.019 -0.032,0.031 0.012,-0.012 0.024,-0.019 0.032,-0.031" /><path
         id="path96"
         style="fill:#225479;fill-opacity:1;fill-rule:nonzero;stroke:none"
         d="m 281.934,727.961 c -26.321,9.121 -48.407,19.559 -64.512,31.609 v 0 c -0.012,0 -0.024,0.012 -0.035,0.02 v 0 c -0.008,0.012 -0.02,0.019 -0.032,0.031 v 0 c -6.16,4.609 -11.445,9.461 -15.757,14.559 v 0 c -5.903,6.98 -10.899,14.281 -15.485,21.672 23.231,-21.411 53.633,-36.614 86.395,-47.743 2.758,-6.847 5.887,-13.57 9.426,-20.148" /><path
         id="path98"
         style="fill:#224664;fill-opacity:1;fill-rule:nonzero;stroke:none"
         d="m 463.477,876.57 c -108.211,0 -216.157,24.102 -306.454,75.629 0.711,5.992 1.528,11.442 2.344,16.223 26.926,-19.66 62.789,-29.934 93.477,-36.641 47.234,-10.32 95.937,-16.199 144.039,-20.73 34.59,-3.262 70.832,-5.68 107.324,-5.68 52.387,0 105.301,4.981 154.633,19.578 l 3.98,-10.89 c 0,0 5.02,-2.118 13.75,-5.911 C 608.906,887.43 536.137,876.559 463.477,876.57" /><path
         id="path100"
         style="fill:#fbc817;fill-opacity:1;fill-rule:nonzero;stroke:none"
         d="m 693.727,1178.72 c 3.761,59.99 15.871,119.04 18.05,179.28 3.918,108.54 -13.711,216.38 -79.613,305.48 -0.918,1.22 -1.144,2.41 -1.121,3.54 -21.281,20.72 -36.363,26.07 -36.363,26.07 -40.235,12.79 -98.196,7.32 -98.196,7.32 -181.222,-108.7 -314.476,-447.1 -361.476,-707.66 25.566,-36.379 76.414,-51.91 117.836,-60.969 47.234,-10.32 95.937,-16.199 144.039,-20.73 90.445,-8.52 192.14,-11.27 280.254,19.82 8.886,69.649 14.461,145.129 16.886,182.009 -1.128,21.96 -1.664,43.92 -0.296,65.84" /><path
         id="path102"
         style="fill:#fbc817;fill-opacity:1;fill-rule:nonzero;stroke:none"
         d="m 675.379,930.262 c 0.012,0 0.012,0 0.023,0 -0.007,0 -0.015,0 -0.023,0 m 0.309,0.097 c 0.031,0.012 0.058,0.02 0.089,0.032 -0.031,-0.012 -0.058,-0.02 -0.089,-0.032 m 0.308,0.11 c 0.047,0.019 0.098,0.031 0.141,0.051 -0.047,-0.02 -0.09,-0.032 -0.141,-0.051 m 0.313,0.113 c 0.054,0.02 0.109,0.039 0.164,0.059 -0.055,-0.02 -0.11,-0.039 -0.164,-0.059 m 0.332,0.117 c 0.058,0.02 0.109,0.031 0.168,0.063 -0.055,-0.024 -0.114,-0.043 -0.168,-0.063" /><path
         id="path104"
         style="fill:#f7980f;fill-opacity:1;fill-rule:nonzero;stroke:none"
         d="m 584.172,909.941 c 0.941,22.93 -1.192,46.141 -3.438,68.969 -4.765,48.45 -17.73,229.97 -38.828,257.32 -6.121,7.93 -11.437,10.59 -16.984,10.59 -8.484,0 -17.504,-6.22 -30.734,-9.27 -19.036,73.98 -27.61,312.03 -19.797,350.9 4.25,21.14 12.836,43.84 3.668,64.69 -0.914,2.08 -3.473,3.28 -5.782,3.28 -0.586,0 -1.156,-0.08 -1.679,-0.24 -21.438,-6.54 -41.27,-15.86 -59.762,-27.12 25.18,26.98 51.594,49.85 79.168,67.35 17.375,-27.72 37.445,-39.13 37.445,-39.13 20.317,11.09 33.129,26.88 41.164,41.54 8.621,-1.24 17.16,-2.98 25.047,-5.41 0.34,-0.11 0.68,-0.22 1.02,-0.32 v 0 c 0,0 15.082,-5.35 36.363,-26.07 0,-0.05 -0.004,-0.11 -0.004,-0.16 0.004,-1.08 0.25,-2.21 1.125,-3.38 60.238,-81.45 80.145,-178.54 80.129,-277.52 0,-9.31 -0.18,-18.63 -0.516,-27.96 -0.91,-25.13 -3.547,-50.05 -6.586,-74.92 -2.808,-1.92 -5.503,-3.65 -8.066,-5.15 0,0 -2.723,6.62 -7.238,19.12 0.004,0.01 0.004,0.01 0.008,0.01 -3.872,10.7 -9.036,25.65 -14.942,44.49 -0.008,0.03 -0.019,0.07 -0.027,0.1 -0.016,0.04 -0.028,0.08 -0.039,0.12 -0.016,0.05 -0.035,0.11 -0.051,0.16 -0.008,0.02 -0.012,0.04 -0.02,0.06 -0.714,2.28 -1.437,4.62 -2.171,7.01 l -124.922,-16.53 v 0 c 0,0 17.297,-95.92 64.543,-149.16 9.187,-10.35 22.089,-15.38 37.914,-15.39 12.726,0 27.347,3.26 43.476,9.63 -0.523,-8.86 -0.746,-17.72 -0.742,-26.59 0.004,-12.69 0.457,-25.38 1.109,-38.08 -0.902,-13.74 -2.242,-32.84 -4.031,-54.99 -3.008,-37.32 -7.281,-83.32 -12.855,-127.019 v 0 c -0.11,-0.043 -0.219,-0.082 -0.328,-0.109 -0.059,-0.032 -0.11,-0.043 -0.168,-0.063 -0.055,-0.019 -0.114,-0.039 -0.168,-0.058 -0.055,-0.02 -0.11,-0.039 -0.164,-0.059 -0.055,-0.023 -0.118,-0.043 -0.172,-0.062 -0.043,-0.02 -0.094,-0.032 -0.141,-0.051 -0.07,-0.02 -0.144,-0.047 -0.219,-0.078 -0.031,-0.012 -0.058,-0.02 -0.089,-0.032 -0.094,-0.027 -0.192,-0.058 -0.286,-0.097 -0.011,0 -0.011,0 -0.023,0 -29.219,-10.153 -59.93,-16.543 -91.207,-20.321" /><path
         id="path106"
         style="fill:#efc59a;fill-opacity:1;fill-rule:nonzero;stroke:none"
         d="m 547.723,1332.47 c 0,0 17.297,-95.92 64.543,-149.16 47.234,-53.19 192.289,33.89 331.238,224.49 0,0 30.402,-13.63 58.736,22.29 28.31,35.93 34.22,44.06 34.22,44.06 0,0 74.78,40.1 82.68,54.04 7.93,13.97 -7.98,33.74 -81.55,-19.56 0,0 25.62,44.31 52.53,82.24 26.95,37.95 6.01,48.48 -18.67,29.76 -24.71,-18.67 -61.26,-79.43 -61.26,-79.43 0,0 13.2,48.25 27.51,90.9 16.82,49.99 -12.14,37.15 -25.69,20.03 -18.397,-23.29 -44.455,-91.64 -45.666,-95.5 -1.215,-3.84 8.261,55.42 15.832,84.57 7.539,29.17 -9.754,48.32 -22.805,29.3 -13.016,-18.96 -40.363,-136.42 -40.363,-136.42 0,0 2.762,35.18 -1.422,54.08 -5.781,26.35 -24.055,10.79 -33.805,-12.38 -9.761,-23.19 -2.144,-80.79 11.18,-100.57 0,0 -136.348,-161.2 -197.836,-197.28 0,0 -10.512,25.55 -24.48,71.07 l -124.922,-16.53" /><path
         id="path108"
         style="fill:#ec7117;fill-opacity:1;fill-rule:nonzero;stroke:none"
         d="m 689.887,1297.05 c -3.864,10.69 -9.032,25.67 -14.934,44.5 5.906,-18.84 11.07,-33.79 14.942,-44.49 -0.004,0 -0.004,0 -0.008,-0.01 m -14.961,44.6 c -0.016,0.04 -0.028,0.08 -0.039,0.12 0.011,-0.04 0.023,-0.08 0.039,-0.12 m -0.09,0.28 c -0.008,0.02 -0.012,0.04 -0.02,0.06 0.008,-0.02 0.012,-0.04 0.02,-0.06" /><path
         id="path110"
         style="fill:#df9659;fill-opacity:1;fill-rule:nonzero;stroke:none"
         d="m 595.344,1256.52 c -8.875,0 -17.789,1.12 -26.617,3.52 -14.832,38.6 -21.004,72.43 -21.004,72.43 v 0 L 672.645,1349 c 0.734,-2.39 1.457,-4.73 2.171,-7.01 0.008,-0.02 0.012,-0.04 0.02,-0.06 0.016,-0.05 0.035,-0.11 0.051,-0.16 0.011,-0.04 0.023,-0.08 0.039,-0.12 0.008,-0.03 0.019,-0.06 0.027,-0.1 5.902,-18.83 11.07,-33.81 14.934,-44.5 -25.981,-23.59 -59.953,-40.53 -94.543,-40.53" /><path
         id="path112"
         style="fill:#fbc817;fill-opacity:1;fill-rule:nonzero;stroke:none"
         d="m 645.891,1590.95 c 0,0 -55.2,115.28 -120.989,35.83 -65.773,-79.45 -3.586,-362.06 -3.586,-362.06 0,0 124.575,-3.31 185.727,54.53 0,0 -29.75,199.63 -61.152,271.7" /><path
         id="path114"
         style="fill:#e1b485;fill-opacity:1;fill-rule:nonzero;stroke:none"
         d="m 594.68,1693.09 22.621,88.42 -110.473,-12.36 c 0,0 0,0 -10.344,-68.74 0,0 57.961,5.47 98.196,-7.32" /><path
         id="path116"
         style="fill:#c62d23;fill-opacity:1;fill-rule:nonzero;stroke:none"
         d="m 51.7266,1569.67 c 6.375,14.31 13.7773,29.4 20.2968,44.73 1.5235,3.44 2.9688,6.74 4.5586,10.09 -7.5664,-11.87 -15.2539,-23.64 -22.8789,-33.87 -9.5156,-13.18 -18.6562,-24.39 -26.664,-33.51 C 11.1289,1538.56 0,1529.14 0,1529.14 c 0,0 10.25,13.47 24.832,33.95 7.2383,10.23 15.6641,22.21 24.4414,35.47 8.7266,13.07 17.8946,27.13 26.5743,41.72 4.375,7.34 8.832,14.5 12.8046,21.91 4.0821,7.43 8.2149,14.43 11.7777,21.61 3.758,7.1 7.422,14 10.445,20.82 l 1.148,2.01 0.7,0.07 0.593,0.15 c 1.125,0.25 2.426,0.45 3.614,0.67 l 0.363,0.09 1.473,0.13 0.824,0.23 c -0.336,-0.98 -0.735,-1.88 -1.16,-2.84 l -0.063,-1.03 c 1.223,-3.85 2.93,-9.6 4.813,-16.92 1.047,-3.38 1.679,-7.61 1.808,-12.65 0.36,-4.78 0.727,-9.63 0.981,-15.11 0.211,-5.37 0.711,-10.61 0,-17.11 -0.387,-6.23 -0.774,-12.34 -1.133,-18.66 -1.035,-12.62 -3.59,-26.15 -5.582,-38.57 -2.945,-12.96 -5.293,-24.83 -8.441,-35.46 -2.868,-10.38 -5.684,-19.22 -7.93,-25.59 -2.129,-6.11 -3.6525,-9.76 -3.6525,-9.76 0,0 0.5508,3.42 1.4845,9.18 1.004,5.69 2.269,13.83 3.785,23.56 1.641,9.71 2.746,20.65 4.711,32.6 0.668,5.85 1.137,11.69 2.027,17.89 0.711,6.13 1.692,12.48 1.914,18.33 0.77,11.89 2.59,24.52 2.411,35.07 0.101,10.61 1.574,21.93 0.957,29.92 -0.157,2.54 -0.258,5.02 -0.282,7.4 -0.312,-1.64 -0.574,-3.2 -0.832,-4.78 -1.312,-7.12 -2.683,-14.51 -4.297,-22.36 -1.394,-7.7 -3.257,-15.86 -5.699,-24.4 -2.293,-8.3 -4.656,-16.96 -6.9412,-25.35 -2.2852,-8.61 -5.504,-17.28 -8.2657,-25.8 -2.6875,-8.45 -5.7031,-16.83 -8.5468,-24.96 -6.4063,-16.32 -11.9024,-31.3 -17.7813,-44.24 -5.5156,-12.78 -10.7031,-23.48 -14.293,-30.78 -3.5664,-7.5 -5.914,-11.62 -5.914,-11.62 0,0 1.5468,4.33 4.2226,11.82 2.7735,7.57 6.1602,18.25 10.5078,30.97 4.5625,12.66 8.9532,27.45 14.375,43.08 2.5,7.93 4.9414,16 7.5664,24.24 2.4258,8.22 5.5274,16.67 7.5899,24.82 2.4023,8.29 4.7266,16.6 7.0391,24.69 1.1523,4.17 2.3867,8.24 3.6015,12.26 0.9805,3.98 1.8597,7.79 2.8437,11.67 0.902,3.83 1.867,7.7 2.836,11.52 -1.328,-3.58 -2.812,-7.28 -4.18,-10.92 -2.9723,-7.34 -5.6833,-15.11 -9.0661,-22.75 -3.332,-7.61 -6.8164,-15.53 -10.2266,-23.32 -6.8828,-15.62 -14.6132,-31.12 -21.8125,-45.48 -3.4179,-7.25 -7.3554,-13.98 -10.8281,-20.48 -3.5117,-6.37 -6.7695,-12.57 -10.0742,-18.05 -12.7812,-22.29 -22.4023,-35.96 -22.4023,-35.96 0,0 7.1914,15.48 18.0117,38.6 5.3242,11.44 11.4414,24.68 18.0547,39.03" /><path
         id="path118"
         style="fill:#c62d23;fill-opacity:1;fill-rule:nonzero;stroke:none"
         d="m 88.293,1670.43 c -8.3789,-11.97 -19.5508,-27.3 -30.961,-42.49 -5.7617,-7.62 -11.5351,-15.19 -17.0312,-21.98 -5.4649,-6.96 -10.6328,-13.33 -15.1641,-18.65 -9.0234,-10.68 -15.49217,-17.28 -15.49217,-17.28 0,0 4.74217,9.58 12.71877,22.6 7.8789,13.1 18.918,29.64 30.5859,45.09 5.8789,7.71 11.8164,15.27 17.5742,22.02 5.6836,6.71 11.2618,12.39 15.8711,17.19 4.7383,4.86 8.918,8.16 11.6602,10.33 2.8403,2.3 4.4183,3.43 4.4183,3.43 0,0 -1.422,-2.16 -3.9261,-5.89 -2.4805,-3.59 -6.0469,-8.26 -10.2539,-14.37" /><path
         id="path120"
         style="fill:#962c20;fill-opacity:1;fill-rule:nonzero;stroke:none"
         d="m 180.563,1755.68 c 0,0 10.546,-47.94 -12.047,-54.76 -22.532,-6.77 -62.766,-14.04 -62.766,-14.04 0,0 -15.3672,37.18 2.426,71.35 17.793,34.27 38.804,15.84 47.246,14.59 8.379,-1.34 25.141,-17.14 25.141,-17.14" /><path
         id="path122"
         style="fill:#c62d23;fill-opacity:1;fill-rule:nonzero;stroke:none"
         d="m 217.508,1821.45 c 0,0 5.019,-72.49 -16.778,-77.72 -21.894,-5.23 -56.531,-6.21 -56.531,-6.21 0,0 -24.476,42.7 -17,69.69 7.422,26.86 50.946,32.98 54.102,31.79 3.211,-1.26 35.594,-1.86 36.207,-17.55" /><path
         id="path124"
         style="fill:#962c20;fill-opacity:1;fill-rule:nonzero;stroke:none"
         d="m 261.652,1848.06 c 0,0 -25.449,-47.71 -80.855,-53.99 0,0 -35.231,45.09 -16.402,119.07 0,0 124.835,-33.44 97.257,-65.08" /><path
         id="path126"
         style="fill:#53b945;fill-opacity:1;fill-rule:nonzero;stroke:none"
         d="m 118.934,1694.43 80.406,-13.68 -46.668,-49.97 -33.738,63.65" /><path
         id="path128"
         style="fill:#53b945;fill-opacity:1;fill-rule:nonzero;stroke:none"
         d="m 118.934,1694.43 -35.266,56.1 -34.3946,-57.6 69.6606,1.5" /><path
         id="path130"
         style="fill:#c62d23;fill-opacity:1;fill-rule:nonzero;stroke:none"
         d="m 493.063,1400.64 c 0.464,15.62 1.64,32.46 1.847,49.07 0.141,3.74 0.242,7.41 0.399,11.12 -2.528,-13.96 -5.215,-27.73 -8.317,-40.08 -3.875,-15.7 -8.094,-29.67 -11.957,-41.2 -7.742,-23.19 -14.433,-35.98 -14.433,-35.98 0,0 4.336,16.23 10.003,40.76 2.922,12.2 6.122,26.48 9.274,42.06 3.062,15.39 6.195,31.83 8.766,48.67 1.191,8.45 2.613,16.83 3.488,25.06 1.035,8.44 2.117,16.6 2.711,24.69 0.828,7.86 1.574,15.63 1.886,22.94 0.047,0.83 0.141,1.57 0.141,2.48 l 0.582,0.29 0.543,0.38 c 1.082,0.6 2.168,1.26 3.125,2.01 l 0.227,0.17 1.297,0.74 0.847,0.53 c 0,-1.07 0,-2.19 0,-3.22 l 0.235,-0.9 c 2.632,-3.06 6.418,-7.62 10.898,-13.84 2.301,-2.68 4.445,-6.37 6.43,-11 2.222,-4.26 4.453,-8.67 6.715,-13.68 2.246,-4.72 4.648,-9.66 6.441,-15.78 1.953,-5.85 3.988,-11.75 6.031,-17.75 3.809,-12.03 6.586,-25.48 9.43,-37.73 2.246,-13.12 4.594,-25.01 5.629,-36.02 1.34,-10.75 2.062,-19.96 2.371,-26.68 0.426,-6.43 0.336,-10.32 0.336,-10.32 0,0 -0.852,3.29 -2.086,9.07 -1.242,5.53 -3.18,13.59 -5.481,23.16 -2.168,9.63 -5.265,20.12 -7.964,31.97 -1.586,5.58 -3.368,11.2 -4.969,17.25 -1.578,5.97 -3.063,12.26 -5.192,17.74 -3.707,11.2 -6.871,23.68 -10.921,33.34 -3.965,9.81 -6.832,20.94 -10.54,27.98 -1.113,2.46 -2.101,4.73 -2.996,6.81 0.336,-1.66 0.645,-3.21 0.969,-4.73 1.485,-7.1 3.035,-14.49 4.531,-22.43 1.645,-7.57 3.047,-15.86 3.926,-24.52 1.164,-8.62 2.168,-17.52 3.309,-26.17 1.066,-8.83 1.39,-18.11 2.113,-27.01 0.633,-8.91 1.121,-17.75 1.551,-26.33 0.207,-17.51 0.801,-33.6 0.285,-47.71 -0.234,-13.93 -1.008,-25.75 -1.523,-33.97 -0.516,-8.17 -1.114,-12.8 -1.114,-12.8 0,0 -0.246,4.5 -0.621,12.43 -0.308,7.98 -1.133,19.14 -1.906,32.51 -0.57,13.55 -2.16,28.82 -3.063,45.4 -0.683,8.25 -1.484,16.78 -2.207,25.32 -0.828,8.56 -1.226,17.56 -2.429,25.79 -0.825,8.6 -1.938,17.25 -2.778,25.56 -0.511,4.34 -0.964,8.54 -1.351,12.66 -0.598,4.1 -1.242,7.9 -1.781,11.88 -0.622,3.9 -1.204,7.85 -1.719,11.75 0.062,-3.82 0.14,-7.77 0.242,-11.75 0,-7.78 0.492,-16 0.211,-24.37 -0.211,-8.38 -0.391,-16.97 -0.52,-25.53 -0.539,-17.12 -1.82,-34.28 -3.019,-50.31 -0.442,-8 -1.485,-15.79 -2.235,-23.05 -0.828,-7.24 -1.535,-14.21 -2.507,-20.47 -3.34,-25.44 -7.063,-41.75 -7.063,-41.75 0,0 0.75,16.91 2.004,42.41 0.531,12.64 1.305,27.23 1.899,43.08" /><path
         id="path132"
         style="fill:#c62d23;fill-opacity:1;fill-rule:nonzero;stroke:none"
         d="m 488.699,1507.74 c -3.258,-14.37 -7.761,-32.77 -12.527,-51.17 -2.488,-9.19 -4.906,-18.33 -7.434,-26.76 -2.402,-8.46 -4.797,-16.31 -6.949,-22.97 -4.351,-13.26 -7.797,-21.83 -7.797,-21.83 0,0 0.746,10.62 3.149,25.65 2.379,15.12 6.351,34.62 11.207,53.4 2.535,9.35 5.218,18.55 7.98,26.93 2.633,8.43 5.68,15.84 8.137,22.06 2.527,6.21 5.152,10.85 6.941,13.98 1.657,3.09 2.782,4.81 2.782,4.81 0,0 -0.559,-2.57 -1.516,-6.97 -0.824,-4.33 -2.371,-10.04 -3.973,-17.13" /><path
         id="path134"
         style="fill:#962c20;fill-opacity:1;fill-rule:nonzero;stroke:none"
         d="m 541.699,1621.59 c 0,0 27.934,-40.47 9.699,-55.28 -18.335,-14.76 -52.785,-36.81 -52.785,-36.81 0,0 -28.226,28.59 -24.789,66.94 3.418,38.47 29.848,29.54 38.164,31.5 8.278,1.87 29.711,-6.35 29.711,-6.35" /><path
         id="path136"
         style="fill:#c62d23;fill-opacity:1;fill-rule:nonzero;stroke:none"
         d="m 550.961,1696.46 c 0,0 32.129,-65.24 13.902,-78.3 -18.125,-13.2 -49.773,-27.17 -49.773,-27.17 0,0 -38.918,30.28 -42.246,58.04 -3.36,27.67 34.644,49.84 38.011,49.88 3.434,0.08 33.672,11.83 40.106,-2.45" /><path
         id="path138"
         style="fill:#962c20;fill-opacity:1;fill-rule:nonzero;stroke:none"
         d="m 581.77,1737.81 c 0,0 -5.45,-53.85 -54.321,-80.53 0,0 -49.699,28.25 -60.39,103.86 0,0 128.226,16.39 114.711,-23.33" /><path
         id="path140"
         style="fill:#53b945;fill-opacity:1;fill-rule:nonzero;stroke:none"
         d="m 507.938,1541.49 79.566,17.87 -24.281,-63.95 -55.285,46.08" /><path
         id="path142"
         style="fill:#53b945;fill-opacity:1;fill-rule:nonzero;stroke:none"
         d="m 507.938,1541.49 -53.86,38.5 -9.98,-66.32 63.84,27.82" /><path
         id="path144"
         style="fill:#f4d6b7;fill-opacity:1;fill-rule:nonzero;stroke:none"
         d="m 981.27,2254.34 c -6.961,-1.42 -12.457,-1.42 -13.868,38.68 -34.578,-113.38 -52.472,-81.6 -52.472,-81.6 -1.399,-42.87 -29.055,-140.98 -42.922,-102.24 0,-30.45 -2.793,-94.11 -26.289,-116.16 -15.137,109.19 -88.461,85.71 -109.16,35.9 -20.762,-49.74 -13.817,-116.08 27.679,-114.74 -11.125,-154.83 -129.492,-143.22 -129.492,-143.22 97.192,-32.46 273.438,24.3 328.152,141.71 54.782,117.59 -16.207,168.23 20.227,235.01 36.465,66.89 46.665,113.55 36.465,143.92 0,0 2.69,-4.04 7.19,-8.67 -10.65,27.3 -7.19,69.76 -21.98,116.52 5.49,-52.51 -16.663,-143.75 -23.53,-145.11" /><path
         id="path146"
         style="fill:#c62d23;fill-opacity:1;fill-rule:nonzero;stroke:none"
         d="m 1029.79,2457.63 c -40.517,123.64 -208.657,198.66 -271.54,188.44 -68.844,56.76 -445.652,22.28 -599.609,-303.85 -103.3363,-214.71 -74.9496,-437.61 123.593,-510.47 44.571,-58.78 190.414,-145.91 352.512,-60.79 0,0 118.367,-11.61 129.492,143.22 -41.496,-1.34 -48.441,65 -27.679,114.74 20.699,49.81 94.023,73.29 109.16,-35.9 23.496,22.05 26.289,85.71 26.289,116.16 13.867,-38.74 41.523,59.37 42.922,102.24 0,0 17.894,-31.78 52.472,81.6 1.411,-40.1 6.907,-40.1 13.868,-38.68 6.867,1.36 29.02,92.6 23.53,145.11 14.79,-46.76 11.33,-89.22 21.98,-116.52 7.78,-8.29 21.19,-18.86 35.42,-13.62 22.26,8.07 26.33,95.3 -6.06,119.52 66.83,-24.22 70.91,-30.44 78.99,-14.2 8.09,16.14 -58.75,87.1 -105.34,83" /><path
         id="path148"
         style="fill:#e38b89;fill-opacity:1;fill-rule:nonzero;stroke:none"
         d="m 281.895,1831.88 c -8.348,3.07 -16.383,6.4 -24.129,9.99 0,0 0,0 0,0.01 7.746,-3.6 15.785,-6.93 24.129,-10" /><path
         id="path150"
         style="fill:#841d1c;fill-opacity:1;fill-rule:nonzero;stroke:none"
         d="m 257.766,1841.87 c -23.649,10.96 -44.52,24.3 -62.688,39.66 18.176,-15.36 39.035,-28.69 62.688,-39.65 0,-0.01 0,-0.01 0,-0.01 m -62.953,39.88 v 0.01 -0.01" /><path
         id="path152"
         style="fill:#e38b89;fill-opacity:1;fill-rule:nonzero;stroke:none"
         d="m 1134.74,2383.27 c -0.1,0.3 -0.21,0.61 -0.33,0.92 0.01,0 0.02,0.01 0.02,0.01 0.11,-0.32 0.22,-0.63 0.31,-0.93" /><path
         id="path154"
         style="fill:#ac2022;fill-opacity:1;fill-rule:nonzero;stroke:none"
         d="m 495.887,1735.44 c -101.438,0 -182.422,55.12 -213.653,96.31 v 0 c 0,0 -1.421,3.07 -3.914,8.44 -1.261,2.72 -3.086,5.79 -4.558,9.66 -1.446,3.82 -3.141,8.24 -5.02,12.8 -1.875,4.79 -3.297,10.02 -5.179,15.57 -1.864,5.37 -2.969,11.42 -4.688,17.34 -1.824,6.12 -2.773,12.58 -4.375,19.01 -1.32,6.41 -2.324,13.08 -3.543,19.73 -0.902,6.67 -2.039,13.25 -2.785,19.82 -0.66,6.67 -1.641,13.1 -2.145,19.38 -1.242,12.55 -2.121,24.38 -2.632,34.39 -0.321,10.18 -0.985,18.7 -0.985,24.63 -0.176,5.9 -0.269,9.35 -0.269,9.35 0,0 -2.504,-13.48 -3.411,-33.98 -0.203,-10.16 -0.746,-22.05 0.04,-34.91 0.48,-12.81 2.066,-26.42 3.925,-40.1 1.305,-6.67 2.52,-13.47 3.993,-20.04 1.562,-6.59 3.046,-13.1 5.07,-19.21 1.98,-6.06 3.746,-12.07 6.047,-17.45 2.402,-5.46 4.367,-10.68 6.613,-15.31 2.293,-4.67 4.527,-8.77 6.609,-12.43 1.922,-3.66 4.258,-6.51 5.86,-9.07 3.371,-4.99 5.347,-7.62 5.347,-7.62 v 0 c -0.109,0.04 -0.23,0.09 -0.339,0.13 -8.344,3.07 -16.383,6.4 -24.129,10 -23.653,10.96 -44.512,24.29 -62.688,39.65 -0.09,0.08 -0.176,0.15 -0.265,0.22 v 0.01 c -91.786,77.83 -114.4263,207.61 -78.575,345.81 -5.605,-52.96 -19.9294,-267.62 111.141,-317.11 -14.664,96.84 23.789,184.64 23.789,184.64 0,0 25.539,-294.29 239.359,-294.29 144.442,3.64 223.024,95.06 233.996,118.74 -0.949,-0.2 -1.882,-0.3 -2.793,-0.3 -23.718,0 -34.16,66.97 2.793,135.61 17.821,33.11 39.973,44.53 59.875,44.53 22.95,0 42.903,-15.2 49.75,-29.86 3.024,-6.03 5.739,-9.01 7.981,-9.01 7.285,0 9.59,31.52 1.226,93 8.934,-8.5 17.071,-13.04 23.981,-13.04 22.754,0 32.172,49.25 12.574,168.46 10.149,-21.06 26.07,-35.78 39.746,-35.78 20.746,0 36.324,33.88 18.719,130.84 14.012,-26.87 25.594,-38.07 34.754,-38.07 19.519,0 28.031,50.87 25.574,109.36 33.467,-86.28 38.087,-153.84 56.327,-153.84 0.7,0 1.42,0.1 2.16,0.3 20.08,5.44 -25.63,96.86 -25.63,96.86 0,0 50.51,-36.45 88.67,-36.45 4.99,0 9.76,0.62 14.18,2.03 0.12,-0.31 0.23,-0.62 0.33,-0.92 1.15,-3.56 1.42,-6.57 0.39,-8.64 v 0 c -3.04,-6.1 -5.51,-9.03 -10.95,-9.03 -9.05,0 -26.31,8.1 -68.04,23.23 v 0 c 16.48,-12.33 23.52,-40.96 23.53,-67.18 0.01,-25.31 -6.53,-48.37 -17.47,-52.34 -2.64,-0.97 -5.25,-1.4 -7.8,-1.4 -11.21,0 -21.28,8.26 -27.62,15.02 -10.65,27.3 -7.19,69.76 -21.98,116.52 v 0 c 0.59,-5.7 0.86,-11.84 0.86,-18.28 0.01,-52.96 -18.269,-125.62 -24.39,-126.83 v 0 c -0.075,-0.02 -0.153,-0.04 -0.231,-0.05 -1.019,-0.2 -2.004,-0.37 -2.949,-0.37 0,0 -0.004,0 -0.008,0 v 0 c -0.012,0 -0.019,0 -0.031,0 -5.34,0.03 -9.379,5.3 -10.61,38.06 -0.011,0.34 -0.023,0.69 -0.039,1.04 -0.101,-0.33 -0.199,-0.66 -0.3,-0.99 -0.036,-0.11 -0.067,-0.22 -0.102,-0.33 -0.164,-0.54 -0.336,-1.09 -0.5,-1.63 0,0 0,0.01 0,0 -0.062,-0.2 -0.129,-0.41 -0.191,-0.62 h -0.004 c 0,-0.01 0,0 -0.004,-0.01 -0.02,-0.07 -0.043,-0.14 -0.063,-0.21 -21.422,-68.98 -36.297,-81.78 -44.316,-81.91 -0.043,0 -0.082,0 -0.121,0 -4.457,0 -6.762,3.91 -6.867,4.09 -0.004,0 -0.004,0.01 -0.004,0.01 -1.176,-36.01 -20.867,-110.98 -35.364,-111.12 -0.011,0 -0.027,0 -0.039,0 -2.695,0 -5.211,2.6 -7.386,8.52 -0.016,0.04 -0.032,0.08 -0.047,0.12 -0.008,0.02 -0.016,0.04 -0.024,0.06 -0.019,0.06 -0.043,0.12 -0.062,0.18 0,-30.45 -2.793,-94.11 -26.289,-116.16 -0.008,0.07 -0.016,0.11 -0.024,0.18 -0.011,0.09 -0.027,0.2 -0.043,0.29 -0.015,0.13 -0.031,0.24 -0.05,0.37 -7.981,56.1 -31.442,76.82 -55.063,76.83 -0.012,0 -0.016,0 -0.023,0 v 0 c -0.008,0 -0.016,0 -0.024,0 -21.929,-0.02 -44,-17.86 -53.933,-41.77 v 0 c -0.047,-0.12 -0.098,-0.24 -0.145,-0.35 -0.016,-0.04 -0.027,-0.07 -0.047,-0.11 -0.109,-0.27 -0.215,-0.53 -0.324,-0.8 -0.012,-0.02 -0.02,-0.05 -0.031,-0.07 -7.09,-17.5 -10.785,-36.94 -10.785,-54.71 -0.004,-32.08 12.015,-58.72 37.781,-58.72 0.406,0 0.82,0.01 1.23,0.02 -0.035,-0.52 -0.074,-1.02 -0.113,-1.54 0,-0.01 -0.004,-0.04 -0.004,-0.05 -0.152,-1.95 -0.316,-3.87 -0.504,-5.77 v 0 c -12.293,-126.55 -98.797,-135.91 -122.738,-136.06 -0.203,0 -0.402,0 -0.594,0 -3.523,0 -5.539,0.2 -5.539,0.2 v 0 c -48.508,-25.47 -95.539,-35.52 -138.859,-35.52" /><path
         id="path156"
         style="fill:#962c20;fill-opacity:1;fill-rule:nonzero;stroke:none"
         d="m 928.641,2132.59 c 0,0 -1.188,5.61 0.382,13.54 0.754,4.11 2.301,8.6 4.989,13.22 1.406,2.25 3.019,4.64 5.265,6.81 1.989,2.24 5.063,4.04 7.981,5.7 1.719,0.59 3.539,1.18 5.269,1.65 1.719,0.51 3.563,0.22 5.371,0.22 l 2.817,-0.1 2.402,-0.73 c 1.602,-0.61 3.172,-1.12 4.492,-1.72 2.528,-1.65 4.727,-3.43 6.7,-5.15 1.589,-1.87 2.879,-3.78 4.019,-5.63 1.262,-1.56 2.012,-3.37 2.594,-4.92 0.641,-1.57 1.019,-3 1.355,-4.12 0.668,-2.26 0.852,-3.68 0.852,-3.68 0,0 -1.277,0.6 -3.434,1.65 -2.105,0.91 -4.738,2.85 -7.968,4.19 -1.59,0.82 -3.266,1.57 -4.793,2.41 -1.727,0.43 -3.43,0.97 -4.954,1.55 -1.5,-0.16 -3,0.75 -4.171,0.15 -1.262,0 -2.442,-0.52 -3.657,-0.97 -1.265,-0.82 -2.687,-1.28 -4.054,-2.45 -1.524,-1.05 -2.887,-2.48 -4.364,-3.76 -2.914,-2.77 -5.668,-5.76 -8.097,-8.44 -4.867,-5.46 -8.996,-9.42 -8.996,-9.42" /><path
         id="path158"
         style="fill:#c08b59;fill-opacity:1;fill-rule:nonzero;stroke:none"
         d="m 843.961,1887.17 c 0,0 2.711,-5.53 7.051,-13.24 2.09,-3.96 4.777,-8.38 7.863,-12.84 1.535,-2.11 3.215,-4.37 5.023,-6.36 1.602,-2.34 3.641,-4.05 5.692,-5.99 2.058,-1.88 4.305,-3.36 6.418,-4.8 2.496,-0.97 4.574,-2.67 7.066,-2.97 1.211,-0.39 2.387,-0.61 3.547,-1.06 1.141,-0.16 2.379,-0.16 3.582,-0.3 1.133,-0.15 2.332,-0.24 3.485,-0.29 1.093,0.05 2.207,0.23 3.191,0.36 2.117,0.29 4.184,0.23 5.894,0.75 1.758,0.45 3.332,0.84 4.563,1.2 2.633,0.58 4.078,0.82 4.078,0.82 0,0 -1.164,-0.82 -3.457,-2.39 -1.141,-0.69 -2.496,-1.57 -4.109,-2.68 -1.563,-1.06 -3.719,-1.59 -5.942,-2.42 -1.148,-0.37 -2.347,-0.73 -3.59,-1.19 -1.339,-0.15 -2.707,-0.22 -4.027,-0.46 -1.5,-0.05 -2.945,-0.21 -4.363,-0.21 -1.524,0.16 -3.047,0.45 -4.672,0.67 -3.074,0.3 -6.047,1.79 -9.145,3.09 -2.683,1.68 -5.523,3.5 -8.015,5.59 -2.364,2.23 -4.664,4.57 -6.461,7.12 -2.074,2.53 -3.496,5.16 -5.059,7.69 -2.801,5.25 -4.765,10.24 -5.965,14.73 -2.625,8.9 -2.648,15.18 -2.648,15.18" /><path
         id="path160"
         style="fill:#83171b;fill-opacity:1;fill-rule:nonzero;stroke:none"
         d="m 282.234,1831.75 c 0,0 -1.976,2.63 -5.347,7.62 -1.602,2.56 -3.938,5.41 -5.86,9.07 -2.082,3.66 -4.316,7.76 -6.609,12.43 -2.246,4.63 -4.211,9.85 -6.613,15.31 -2.301,5.38 -4.067,11.39 -6.047,17.45 -2.024,6.11 -3.508,12.62 -5.07,19.21 -1.473,6.57 -2.688,13.37 -3.993,20.04 -1.859,13.68 -3.445,27.29 -3.925,40.1 -0.786,12.86 -0.243,24.75 -0.04,34.91 0.907,20.5 3.411,33.98 3.411,33.98 0,0 0.093,-3.45 0.269,-9.35 0,-5.93 0.664,-14.45 0.985,-24.63 0.511,-10.01 1.39,-21.84 2.632,-34.39 0.504,-6.28 1.485,-12.71 2.145,-19.38 0.746,-6.57 1.883,-13.15 2.785,-19.82 1.219,-6.65 2.223,-13.32 3.543,-19.73 1.602,-6.43 2.551,-12.89 4.375,-19.01 1.719,-5.92 2.824,-11.97 4.688,-17.34 1.882,-5.55 3.304,-10.78 5.179,-15.57 1.879,-4.56 3.574,-8.98 5.02,-12.8 1.472,-3.87 3.297,-6.94 4.558,-9.66 2.493,-5.37 3.914,-8.44 3.914,-8.44" /><path
         id="path162"
         style="fill:#961a1f;fill-opacity:1;fill-rule:nonzero;stroke:none"
         d="m 351.48,2383.68 c 0,0 2.711,7.47 7.54,20.72 2.519,6.59 6.316,14.21 10.226,23.24 2.039,4.5 4.727,8.91 7.164,13.86 2.641,4.93 5.453,9.95 8.781,14.95 3.344,5.07 6.536,10.6 10.332,15.84 3.887,5.32 7.891,10.71 11.957,16.31 4.454,5.46 9.04,10.86 13.75,16.38 4.872,5.48 10.188,10.71 15.407,16.25 5.629,5.07 11.261,10.46 17.054,15.54 6.071,4.94 11.969,10.26 18.43,14.96 12.731,9.5 26.016,18.84 40.024,26.92 13.968,8.31 28.457,15.42 42.945,22.07 14.543,6.28 29.043,12.34 43.398,17.07 14.242,5.14 28.367,8.97 41.785,12.42 13.442,3.26 26.184,6.12 38.102,8.13 23.762,4.42 43.852,6.06 57.871,7.05 9.559,0.6 16.313,0.7 19.641,0.7 1.554,0 2.363,-0.02 2.363,-0.02 0,0 -7.926,-0.47 -21.809,-2.25 -13.984,-1.73 -33.711,-4.88 -57.148,-9.94 -23.383,-5.17 -50.371,-12.66 -78.465,-22.83 -14.09,-4.94 -28.308,-10.99 -42.574,-17.34 -14.086,-6.75 -28.371,-13.92 -41.899,-22.23 -13.804,-7.8 -26.988,-16.76 -39.539,-25.98 -6.429,-4.62 -12.214,-9.63 -18.269,-14.33 -5.734,-5.08 -11.348,-10.2 -16.875,-15.12 -5.242,-5.31 -10.395,-10.52 -15.453,-15.63 -4.77,-5.31 -9.492,-10.56 -14.024,-15.62 -4.281,-5.33 -8.34,-10.55 -12.332,-15.57 -3.898,-5.07 -7.258,-10.39 -10.715,-15.32 -3.492,-4.79 -6.343,-9.74 -9.144,-14.37 -2.777,-4.72 -5.785,-9.13 -7.981,-13.37 -4.492,-8.69 -8.675,-16.02 -11.527,-22.37 -5.723,-12.85 -9.016,-20.12 -9.016,-20.12" /><path
         id="path164"
         style="fill:#c08b59;fill-opacity:1;fill-rule:nonzero;stroke:none"
         d="m 755.203,2012.75 c 0,0 1.16,0.17 3.383,0.17 1.988,0.22 4.984,0.22 8.344,-0.17 1.703,-0.12 3.433,-0.66 5.215,-1.04 1.718,-0.69 3.511,-1.33 5.089,-2.38 1.805,-0.76 3.071,-2.42 4.493,-3.67 1.16,-1.56 2.488,-3.21 3.125,-5.16 1.136,-1.81 1.648,-3.96 2.285,-6.01 0.761,-1.98 0.965,-4.24 1.355,-6.35 0.465,-2.09 0.699,-4.1 0.813,-6.12 0.164,-2.03 0.351,-3.81 0.515,-5.7 0.196,-6.94 0.813,-11.94 0.813,-11.94 0,0 0.469,1.11 1.125,3.21 0.582,2.02 1.472,5.08 2.207,8.59 0.207,1.86 0.441,3.81 0.621,5.92 0.336,2.18 0.488,4.38 0.102,6.8 -0.204,2.31 -0.063,4.78 -0.879,7.24 -0.645,2.49 -1.121,5.11 -2.504,7.49 -1.098,2.48 -2.735,4.63 -4.571,6.75 -0.824,0.96 -2.062,1.71 -3.086,2.54 -1.043,0.87 -2.261,1.55 -3.472,2 -2.297,1.2 -4.754,1.6 -7.039,2.03 -2.215,0.09 -4.375,0.14 -6.297,-0.15 -3.735,-0.37 -6.668,-1.57 -8.695,-2.47 -1.985,-0.9 -2.942,-1.58 -2.942,-1.58" /><path
         id="path166"
         style="fill:#c08b59;fill-opacity:1;fill-rule:nonzero;stroke:none"
         d="m 764.238,1976.62 c 0,0 1.887,-0.81 4.719,-1.34 2.773,-0.59 6.34,-0.67 9.84,-0.44 3.547,0.31 6.902,0.97 9.59,1.73 1.269,0.36 2.39,0.75 3.176,1.03 l 1.343,0.44 -1.082,0.83 c -0.621,0.52 -1.91,1.34 -3.254,1.87 -2.761,1.06 -6.609,1.49 -10.332,1.13 -3.718,-0.23 -7.254,-1.27 -9.84,-2.61 -2.558,-1.13 -4.16,-2.64 -4.16,-2.64" /><path
         id="path168"
         style="fill:#622920;fill-opacity:1;fill-rule:nonzero;stroke:none"
         d="m 938.32,2059.64 c 0.766,-17.34 7.051,-30.26 13.946,-28.84 7.117,1.42 11.984,16.58 11.289,34.01 -0.774,17.35 -7.078,30.29 -14.051,28.81 -6.945,-1.43 -11.953,-16.61 -11.184,-33.98" /><path
         id="path170"
         style="fill:#ffffff;fill-opacity:1;fill-rule:nonzero;stroke:none"
         d="m 952.086,2075.73 c 0.723,-5.15 2.867,-8.8 5.09,-8.13 2,0.58 3.226,5.29 2.558,10.37 -0.597,5.23 -2.742,8.92 -4.882,8.25 -2.122,-0.61 -3.293,-5.32 -2.766,-10.49" /><path
         id="path172"
         style="fill:#f9c2bc;fill-opacity:1;fill-rule:nonzero;stroke:none"
         d="m 963.504,1992.11 c -1.602,-8.64 -19.781,-12.47 -40.586,-8.64 -20.746,3.95 -36.344,14.12 -34.746,22.71 1.601,8.68 19.785,12.51 40.672,8.61 20.754,-3.82 36.222,-14 34.66,-22.68" /><path
         id="path174"
         style="fill:#c62d23;fill-opacity:1;fill-rule:nonzero;stroke:none"
         d="m 2195.04,1883.9 c 0,0 194.93,-26.96 304.41,-202.61 95.14,-138.85 76.94,-204.89 74.29,-279.21 -2.67,-74.37 33.68,-119.83 83.25,-89.06 3.47,-46.56 -39.63,-60.44 -67.72,-52.81 17.28,-26.82 11.53,-92.25 -7.67,-108.24 -7.16,31.74 -42.75,82.09 -42.75,82.09 0,0 10.62,-131.74 -57.86,-153.23 -93.87,274.24 -306.24,489.9 -338.67,584.78 -32.43,94.86 -40.48,194.03 52.72,218.29" /><path
         id="path176"
         style="fill:#e38b89;fill-opacity:1;fill-rule:nonzero;stroke:none"
         d="m 2245.95,1871.56 c -11.11,3.44 -20.83,6.01 -28.71,7.88 0,0.01 0,0 0,0.01 7.88,-1.88 17.59,-4.44 28.71,-7.89" /><path
         id="path178"
         style="fill:#ac2022;fill-opacity:1;fill-rule:nonzero;stroke:none"
         d="m 2581.6,1151.97 c -3.93,17.44 -16.45,40.5 -26.93,57.74 -0.23,1.58 -0.46,3.12 -0.69,4.61 v 0 c -1.41,8.91 -2.7,17.47 -3.9,25.75 3.25,23.03 1.9,37.33 1.9,37.33 -5.92,13.17 -17.88,31.03 -34.58,52.08 -1.63,54.96 -15.83,116.44 -15.83,116.44 0,0 43.28,-178.15 132.83,-178.15 0.92,0 1.85,0.02 2.78,0.05 -9.6,-6.54 -21.47,-9.56 -32.74,-9.56 -5.29,0 -10.44,0.67 -15.17,1.95 v 0 c 7.09,-11 10.3,-28.5 10.3,-46.41 0,-25.77 -6.64,-52.4 -17.97,-61.83 m -70.29,185.07 c -8.97,10.96 -19.11,22.7 -30.24,34.99 -3.85,53.14 -16.24,86.33 -16.24,86.33 0,0 34.41,-61.41 46.48,-121.32 m -78.98,86 c -79.16,78.98 -185.25,168.58 -284.65,229.21 -2.13,4.68 -3.92,9.14 -5.36,13.36 -13.14,38.44 -22.28,77.6 -22.3,112.18 -0.01,27.35 5.68,51.84 19.59,70.87 6.82,-5.78 16.28,-10.99 28.24,-10.99 8.12,0 17.39,2.4 27.76,8.65 14.64,8.84 20.44,20.91 21.63,33.12 7.88,-1.87 17.6,-4.44 28.71,-7.88 5.53,-1.72 11.41,-3.65 17.59,-5.83 -19.25,-16.27 -30.41,-47.4 -15.17,-106.03 -47.72,38.76 -47.72,38.76 -47.72,38.76 0,0 -9.02,-127.31 96.94,-193.55 59.71,-37.3 104.55,-109.2 134.74,-181.87" /><path
         id="path180"
         style="fill:#edc399;fill-opacity:1;fill-rule:nonzero;stroke:none"
         d="m 1516.34,847.781 c 0,0 63.39,-14.453 95.74,49.188 32.35,63.652 -125.99,57.871 -134,22.332 -8.02,-35.531 38.26,-71.52 38.26,-71.52" /><path
         id="path182"
         style="fill:#da935a;fill-opacity:1;fill-rule:nonzero;stroke:none"
         d="m 1532.01,846.371 c -0.91,0 -1.8,0.02 -2.65,0.039 -0.73,2.789 -1.78,5.961 -3.21,9.52 -6.36,15.929 -10.5,29.851 -13.18,41.148 21.92,-5.848 48.64,-13.797 77.58,-13.797 4.53,0 9.12,0.188 13.75,0.617 -22.35,-32.097 -53.68,-37.527 -72.29,-37.527" /><path
         id="path184"
         style="fill:#edc399;fill-opacity:1;fill-rule:nonzero;stroke:none"
         d="m 1477.36,957.238 c 4.78,3.153 10.45,5.942 16.73,8.461 6.98,-2.879 13.94,-5.808 20.8,-8.898 8.77,-3.961 17.37,-9.852 26.3,-14.422 l -33.18,-13.457 c 0,0 0.48,-28.801 18.14,-72.992 17.65,-44.192 -21.27,-26.918 -31.85,-6.942 -1.93,3.633 -62.91,77.844 -16.94,108.25" /><path
         id="path186"
         style="fill:#da935a;fill-opacity:1;fill-rule:nonzero;stroke:none"
         d="m 1473.51,949.621 c -0.88,0.367 -1.76,0.738 -2.64,1.109 l 5.69,0.59 c -1.02,-0.55 -2.04,-1.109 -3.05,-1.699" /><path
         id="path188"
         style="fill:#edc399;fill-opacity:1;fill-rule:nonzero;stroke:none"
         d="m 1447.13,945.172 c 4.8,3.156 10.46,5.937 16.75,8.488 6.97,-2.898 13.91,-5.828 20.79,-8.93 8.76,-3.929 17.37,-9.839 26.29,-14.41 l -33.18,-13.468 c 0,0 0.49,-28.793 18.16,-72.981 17.65,-44.199 -21.27,-26.922 -31.86,-6.949 -1.93,3.648 -62.91,77.848 -16.95,108.25" /><path
         id="path190"
         style="fill:#edc399;fill-opacity:1;fill-rule:nonzero;stroke:none"
         d="m 1427.29,955.68 c 5.18,2.41 11.22,4.289 17.82,5.871 6.45,-3.903 12.88,-7.84 19.21,-11.961 8.08,-5.192 15.71,-12.301 23.86,-18.16 l -34.84,-8.36 c 0,0 -3.8,-28.55 7.04,-74.871 10.84,-46.328 -25.04,-23.429 -32.52,-2.117 -1.36,3.879 -50.57,86.387 -0.57,109.598" /><path
         id="path192"
         style="fill:#edc399;fill-opacity:1;fill-rule:nonzero;stroke:none"
         d="m 1584.61,962.5 c 0,0 -37.4,32.332 -82.27,39.41 -31.96,5 -69.64,-12.609 -91.51,-19.43 -52.63,-16.39 -14.74,-104.64 -13.9,-108.679 4.61,-22.121 37.14,-49.563 32.52,-2.211 -4.61,47.379 2.91,75.16 2.91,75.16 l 152.25,15.75" /><path
         id="path194"
         style="fill:#edc399;fill-opacity:1;fill-rule:nonzero;stroke:none"
         d="m 1891.24,1057.58 c 0,0 -42.92,-60.111 -110.21,-95.49 -60.87,-31.981 -205.81,-60.781 -205.81,-60.781 l -47.45,64.121 227.1,123.64 c 0,0 173.02,57.85 136.37,-31.49" /><path
         id="path196"
         style="fill:#d51e27;fill-opacity:1;fill-rule:nonzero;stroke:none"
         d="m 1505.69,892.551 c -3.75,6.609 -7.59,13.179 -11.93,19.39 -17.28,24.789 -50.2,48.989 -81.53,41.45 -25.21,-15.582 -59.47,-38.121 -63.25,-47.442 -6.06,-14.918 79.99,-202.539 173.08,-237.449 74.24,-27.852 11.96,150.551 -16.37,224.051" /><path
         id="path198"
         style="fill:#fcfbc2;fill-opacity:1;fill-rule:nonzero;stroke:none"
         d="m 1545.62,668.289 c -3.11,39.051 -40.83,94.941 -55.05,120.832 -27.23,49.527 -57.14,149.52 -127.02,131.418 -7.61,-5.969 -13.18,-11.16 -14.57,-14.59 -6.06,-14.918 79.99,-202.539 173.08,-237.449 10.43,-3.93 18.04,-3.578 23.56,-0.211" /><path
         id="path200"
         style="fill:#d3d4d3;fill-opacity:1;fill-rule:nonzero;stroke:none"
         d="m 1534.45,667.852 c 4.84,13.16 -7.3,23.949 -13.22,34.14 -7.25,12.469 -14.2,25.11 -20.54,38.059 -11.46,23.398 -21.99,47.238 -33.5,70.59 -12.54,25.429 -25.55,52.129 -43.47,74.3 -18.94,23.379 -53.3,41.079 -74.18,21.957 l -0.56,-0.949 c -6.06,-14.918 79.99,-202.539 173.08,-237.449 4.52,-1.691 8.52,-2.609 12.06,-2.84 l 0.33,2.192" /><path
         id="path202"
         style="fill:#a9adac;fill-opacity:1;fill-rule:nonzero;stroke:none"
         d="m 1476.85,790.309 c -28.56,4.062 -56.93,9.121 -85.02,15.5 -3.64,6.269 -7.1,12.441 -10.35,18.492 27.97,-3.153 55.9,-6.492 83.83,-9.891 0.62,-1.269 1.25,-2.531 1.88,-3.769 3.31,-6.731 6.43,-13.551 9.66,-20.332" /><path
         id="path204"
         style="fill:#a9adac;fill-opacity:1;fill-rule:nonzero;stroke:none"
         d="m 1422.88,885.91 c -24.05,2.891 -48.06,5.942 -72.21,7.852 -1.76,6.09 -2.41,10.418 -1.69,12.187 l 0.56,0.949 c 6.2,5.672 13.59,8.102 21.4,8.102 18.14,0 38.6,-13.09 51.94,-29.09" /><path
         id="path206"
         style="fill:#a9adac;fill-opacity:1;fill-rule:nonzero;stroke:none"
         d="m 1445.49,852.332 c -27.69,2.047 -55.21,5.398 -82.64,9.637 -2.97,6.633 -5.46,12.679 -7.54,18.14 26.14,-2.211 52.17,-5.621 78.24,-8.687 4.2,-6.192 8.2,-12.551 11.94,-19.09" /><path
         id="path208"
         style="fill:#a9adac;fill-opacity:1;fill-rule:nonzero;stroke:none"
         d="m 1458.31,828.48 c -28.05,3.372 -56.1,6.711 -84.19,9.86 -1.62,3.211 -3.1,6.289 -4.6,9.379 27.71,-4.117 55.52,-7.25 83.49,-9.028 1.78,-3.402 3.58,-6.8 5.3,-10.211" /><path
         id="path210"
         style="fill:#cfd29e;fill-opacity:1;fill-rule:nonzero;stroke:none"
         d="m 1490.56,761.43 c -0.03,0 -0.06,0 -0.09,0.011 -1.61,3.418 -3.21,6.84 -4.81,10.27 1.64,-3.43 3.28,-6.852 4.9,-10.281" /><path
         id="path212"
         style="fill:#a9adac;fill-opacity:1;fill-rule:nonzero;stroke:none"
         d="m 1490.47,761.441 c -25.93,2.739 -51.8,5.848 -77.4,10.469 -4.14,6.16 -8.12,12.36 -11.96,18.539 27.3,-5.82 54.79,-10.64 82.48,-14.347 0.68,-1.461 1.38,-2.93 2.07,-4.391 1.6,-3.43 3.2,-6.852 4.81,-10.27" /><path
         id="path214"
         style="fill:#cfd29e;fill-opacity:1;fill-rule:nonzero;stroke:none"
         d="m 1508.16,725.609 c -0.04,0 -0.07,0 -0.1,0.012 -2.53,4.77 -4.99,9.578 -7.37,14.43 2.39,-4.86 4.92,-9.66 7.47,-14.442 m -7.47,14.442 c -1.21,2.469 -2.4,4.937 -3.6,7.418 0.03,0 0.05,-0.008 0.08,-0.008 1.18,-2.449 2.32,-4.949 3.52,-7.41" /><path
         id="path216"
         style="fill:#a9adac;fill-opacity:1;fill-rule:nonzero;stroke:none"
         d="m 1508.06,725.621 c -23.21,2.93 -46.33,6.25 -69.15,11.168 -5.2,6.402 -10.21,13.051 -15.1,19.793 24.28,-3.871 48.77,-6.531 73.28,-9.113 1.2,-2.481 2.39,-4.949 3.6,-7.418 v 0 c 2.38,-4.852 4.84,-9.66 7.37,-14.43" /><path
         id="path218"
         style="fill:#cfd29e;fill-opacity:1;fill-rule:nonzero;stroke:none"
         d="m 1524,697.711 v 0 c -0.02,0.019 -0.03,0.027 -0.04,0.051 0.01,-0.024 0.02,-0.032 0.04,-0.051 m -2.77,4.281 c -1.82,3.129 -3.61,6.258 -5.39,9.406 0.03,0 0.07,-0.007 0.1,-0.007 1.76,-3.129 3.49,-6.289 5.29,-9.399" /><path
         id="path220"
         style="fill:#a9adac;fill-opacity:1;fill-rule:nonzero;stroke:none"
         d="m 1524,697.711 c -20.74,4.09 -41.35,8.91 -62.07,13.187 -3.06,3.102 -6.06,6.411 -9.05,9.704 20.83,-3.821 41.87,-6.633 62.96,-9.204 1.78,-3.148 3.57,-6.277 5.39,-9.406 v 0 c 0.81,-1.402 1.74,-2.801 2.73,-4.23 0.01,-0.024 0.02,-0.032 0.04,-0.051" /><path
         id="path222"
         style="fill:#d3d4d3;fill-opacity:1;fill-rule:nonzero;stroke:none"
         d="m 1522.06,668.5 v 0 c -0.85,0.32 -1.7,0.648 -2.54,0.992 0.84,-0.344 1.7,-0.683 2.54,-0.992 v 0 m -2.6,1.012 c 0,0.008 -0.01,0.008 -0.02,0.008 0.01,0 0.02,-0.008 0.02,-0.008" /><path
         id="path224"
         style="fill:#cfd29e;fill-opacity:1;fill-rule:nonzero;stroke:none"
         d="m 1534.13,665.699 v 0 l 0.32,2.153 c 0.24,0.636 0.43,1.269 0.59,1.898 -0.15,-0.629 -0.35,-1.262 -0.59,-1.898 l -0.32,-2.153" /><path
         id="path226"
         style="fill:#a9adac;fill-opacity:1;fill-rule:nonzero;stroke:none"
         d="m 1534.12,665.66 c -3.54,0.231 -7.54,1.149 -12.06,2.84 v 0 c -0.84,0.309 -1.7,0.648 -2.54,0.992 -0.02,0.008 -0.04,0.008 -0.06,0.02 0,0 -0.01,0.008 -0.02,0.008 -13.02,5.289 -25.9,13.582 -38.4,23.871 17.47,-3.809 34.93,-7.621 52.49,-10.77 1.76,-4.062 2.64,-8.32 1.51,-12.871 -0.16,-0.629 -0.35,-1.262 -0.59,-1.898 l -0.32,-2.153 -0.01,-0.039" /><path
         id="path228"
         style="fill:#edc399;fill-opacity:1;fill-rule:nonzero;stroke:none"
         d="m 1604.3,883.898 c 2.74,3.942 5.35,8.293 7.78,13.071 2.45,4.82 3.81,9.242 4.22,13.281 4.29,0.988 8.84,2.051 13.57,3.18 7.01,-14.02 1.32,-25.758 -18.11,-28.629 -2.5,-0.371 -4.99,-0.672 -7.46,-0.903 m -67.95,61.09 c -6.34,3.551 -12.56,7.473 -18.84,10.571 l 16.31,1.691 8.77,-11.852 c -2.09,-0.097 -4.17,-0.238 -6.24,-0.41" /><path
         id="path230"
         style="fill:#cb6e38;fill-opacity:1;fill-rule:nonzero;stroke:none"
         d="m 1590.55,883.281 c -28.94,0 -55.66,7.949 -77.58,13.797 -4.76,20.051 -4.96,31.844 -4.96,31.844 l 33.18,13.457 c -1.62,0.84 -3.24,1.711 -4.84,2.609 2.07,0.172 4.15,0.313 6.24,0.41 l 32.63,-44.089 c 0,0 16.66,3.312 41.08,8.941 -0.41,-4.039 -1.77,-8.461 -4.22,-13.281 -2.43,-4.778 -5.04,-9.129 -7.78,-13.071 -4.63,-0.429 -9.22,-0.617 -13.75,-0.617" /><path
         id="path232"
         style="fill:#da935a;fill-opacity:1;fill-rule:nonzero;stroke:none"
         d="m 1512.97,897.078 c -4.04,1.082 -7.92,2.094 -11.61,2.961 -2.41,4.063 -4.91,8.051 -7.6,11.902 -2.03,2.918 -4.28,5.821 -6.72,8.668 l 23.92,9.711 c -8.92,4.571 -17.53,10.481 -26.29,14.41 -0.69,0.309 -1.38,0.622 -2.07,0.93 1.03,2.231 2.11,4.442 3.17,6.61 l 31.74,3.289 c 6.28,-3.098 12.5,-7.02 18.84,-10.571 v 0 c 1.6,-0.898 3.22,-1.769 4.84,-2.609 l -33.18,-13.457 c 0,0 0.2,-11.793 4.96,-31.844" /><path
         id="path234"
         style="fill:#cb6e38;fill-opacity:1;fill-rule:nonzero;stroke:none"
         d="m 1482.6,945.66 c -3.02,1.34 -6.05,2.66 -9.09,3.961 1.01,0.59 2.03,1.149 3.05,1.699 l 9.21,0.95 c -1.06,-2.168 -2.14,-4.379 -3.17,-6.61" /><path
         id="path236"
         style="fill:#da935a;fill-opacity:1;fill-rule:nonzero;stroke:none"
         d="m 1487.04,920.609 c -2.52,2.95 -5.24,5.832 -8.13,8.59 l 9.27,2.231 c -6.68,4.8 -13,10.441 -19.52,15.179 1.61,1.063 3.22,2.063 4.85,3.012 3.04,-1.301 6.07,-2.621 9.09,-3.961 0.69,-0.308 1.38,-0.621 2.07,-0.93 8.76,-3.929 17.37,-9.839 26.29,-14.41 l -23.92,-9.711" /><path
         id="path238"
         style="fill:#da935a;fill-opacity:1;fill-rule:nonzero;stroke:none"
         d="m 1478.91,929.199 c -5.04,4.821 -10.6,9.27 -16.51,13.071 1.28,0.878 2.53,1.761 3.77,2.628 0.83,0.59 1.66,1.161 2.49,1.711 6.52,-4.738 12.84,-10.379 19.52,-15.179 l -9.27,-2.231" /><path
         id="path240"
         style="fill:#da935a;fill-opacity:1;fill-rule:nonzero;stroke:none"
         d="m 1476.56,951.32 c 19.33,10.379 39.55,13.321 51.23,14.121 l -0.02,-0.011 6.05,-8.18 -16.31,-1.691 -31.74,-3.289 -9.21,-0.95" /><path
         id="path242"
         style="fill:#da935a;fill-opacity:1;fill-rule:nonzero;stroke:none"
         d="m 1575.22,901.309 -32.63,44.089 -8.77,11.852 -6.05,8.18 0.02,0.011 c 3.33,0.231 5.97,0.278 7.7,0.278 1.47,0 2.28,-0.039 2.28,-0.039 51.32,-11.211 82.82,-33.719 92.1,-52.25 -4.73,-1.129 -9.28,-2.192 -13.57,-3.18 v 0 c -24.42,-5.629 -41.08,-8.941 -41.08,-8.941" /><path
         id="path244"
         style="fill:#c51e25;fill-opacity:1;fill-rule:nonzero;stroke:none"
         d="m 1447.22,885.512 c -2.55,0 -5.35,0.238 -8.47,0.769 -6.42,8.68 -13.39,16.367 -21.07,22.43 7.91,10 27.53,21.711 44.72,33.559 5.91,-3.801 11.47,-8.25 16.51,-13.071 2.89,-2.758 5.61,-5.64 8.13,-8.59 2.44,-2.847 4.69,-5.75 6.72,-8.668 2.69,-3.851 5.19,-7.839 7.6,-11.902 -1.75,0.41 -3.45,0.801 -5.12,1.141 -2.64,0.558 -5.01,0.8 -7.16,0.8 -8.78,0 -13.93,-4.109 -19.54,-8.23 -5.61,-4.121 -11.69,-8.238 -22.32,-8.238" /><path
         id="path246"
         style="fill:#ebc06e;fill-opacity:1;fill-rule:nonzero;stroke:none"
         d="m 1438.75,886.281 c -2.51,0.418 -5.23,1.028 -8.18,1.867 -17.95,5.051 -19.51,12.211 -12.89,20.563 7.68,-6.063 14.65,-13.75 21.07,-22.43" /><path
         id="path248"
         style="fill:#edc399;fill-opacity:1;fill-rule:nonzero;stroke:none"
         d="m 1487.43,956.332 c 25.95,10.449 50.34,9.348 50.34,9.348 90.14,-19.692 119.12,-74.211 73.99,-80.879 -45.13,-6.653 -86.61,10.371 -115.52,16.379 -28.92,6.058 -20.93,-20.328 -61.95,-8.77 -4.99,1.422 -8.71,2.91 -11.45,4.5 -1.6,3.231 -1.31,6.352 -0.07,9.328 20.52,17.973 42.19,34.5 64.66,50.094" /><path
         id="path250"
         style="fill:#edc399;fill-opacity:1;fill-rule:nonzero;stroke:none"
         d="m 1822.32,1367.58 c 0,0 27.19,-100.36 57.65,-271.45 -11.03,-55.03 -109.84,-39.65 -117.47,-31.42 -51.61,168.59 -69.6,149.33 -91.17,248.14 l 150.99,54.73" /><path
         id="path252"
         style="fill:#edc399;fill-opacity:1;fill-rule:nonzero;stroke:none"
         d="m 1714.84,1195.31 c -0.01,0 -0.01,0 -0.01,0 -7.4,16.28 -13.7,28.72 -19.43,41.51 5.73,-12.79 12.04,-25.22 19.44,-41.51" /><path
         id="path254"
         style="fill:#da935a;fill-opacity:1;fill-rule:nonzero;stroke:none"
         d="m 1783.31,1187.9 c -23.49,0 -46.18,2.55 -68.47,7.41 -7.4,16.29 -13.71,28.72 -19.44,41.51 -8.76,19.54 -16.17,39.9 -24.07,76.03 v 0 l 94.11,34.12 c 17.29,-57.93 37.58,-113 58.91,-156.89 -12.39,-1.94 -25.15,-2.04 -37.82,-2.17 -1.07,-0.01 -2.15,-0.01 -3.22,-0.01" /><path
         id="path256"
         style="fill:#ee293e;fill-opacity:1;fill-rule:nonzero;stroke:none"
         d="m 2347.77,592.379 c 20.86,-37.5 107.72,-224.527 169.8,-169.848 66.85,58.867 -0.86,177.199 -24.93,240.11 -21.95,57.429 -84.27,173.39 -151.72,106 -56.55,-56.571 -48.7,-77.95 6.85,-176.262" /><path
         id="path258"
         style="fill:#edc399;fill-opacity:1;fill-rule:nonzero;stroke:none"
         d="m 2502.4,512.73 c -28.82,-26.421 -58.96,-33.91 -91.11,-31.449 33.37,-48.672 73.32,-87.781 106.28,-58.75 34.99,30.77 33.07,77.867 19.92,124.758 -13.35,-15.48 -29.9,-29.84 -35.09,-34.559" /><path
         id="path260"
         style="fill:#871631;fill-opacity:1;fill-rule:nonzero;stroke:none"
         d="m 2438.15,732.051 c 28.79,-42.742 54.49,-91.352 70.37,-140.582 10.68,-33.09 30.27,-118.438 13.04,-165.098 59.94,60.02 -5.37,174.719 -28.92,236.27 -17.15,44.98 -59.18,125.89 -109,126.398 22.2,-13.348 40.9,-36.789 54.51,-56.988" /><path
         id="path262"
         style="fill:#ee293e;fill-opacity:1;fill-rule:nonzero;stroke:none"
         d="m 2712.04,629.539 c 17.33,-39.269 86.52,-233.559 153.41,-184.809 71.98,52.411 15.48,176.508 -2.62,241.372 -16.56,59.187 -67.91,180.437 -141.29,119.546 -61.59,-51.066 -55.67,-73.058 -9.5,-176.109" /><path
         id="path264"
         style="fill:#edc399;fill-opacity:1;fill-rule:nonzero;stroke:none"
         d="m 2858.66,535.898 c -31.11,-23.609 -61.8,-28.289 -93.6,-22.808 28.71,-51.602 64.84,-94.238 100.39,-68.36 37.67,27.418 40.13,74.481 31.34,122.391 -14.7,-14.199 -32.51,-26.973 -38.13,-31.223" /><path
         id="path266"
         style="fill:#871631;fill-opacity:1;fill-rule:nonzero;stroke:none"
         d="m 2814.97,760.238 c 24.7,-45.179 45.79,-95.988 57.08,-146.476 7.56,-33.93 19.18,-120.742 -2.3,-165.582 65.23,54.242 10.8,174.449 -6.92,237.922 -12.97,46.359 -47.31,130.828 -96.87,135.937 20.87,-15.328 37.33,-40.449 49.01,-61.801" /><path
         id="path268"
         style="fill:#1c355a;fill-opacity:1;fill-rule:nonzero;stroke:none"
         d="m 2332.94,690.262 c 4.32,-6.942 8.16,-14.66 11.52,-22.571 3.74,-13.531 5.35,-27.312 3.87,-40.543 -3.29,-29.019 -18.95,-49.339 -38.58,-67.039 -39.49,-22.718 -158.07,-93.269 -178.88,-104.027 -156.97,-81.25 -238.36,-67.66 -237.46,39.5 0,0 -20.63,29.816 41.64,94.938 108.95,75.781 207.17,84.539 327.59,131.769 16.15,6.352 58.31,-12.668 70.3,-32.027" /><path
         id="path270"
         style="fill:#7c98ae;fill-opacity:1;fill-rule:nonzero;stroke:none"
         d="m 2262.64,722.289 c 0.46,0.18 0.95,0.34 1.45,0.481 v 0 c -0.5,-0.141 -0.99,-0.301 -1.45,-0.481" /><path
         id="path272"
         style="fill:#132239;fill-opacity:1;fill-rule:nonzero;stroke:none"
         d="m 1949.79,405.969 c -5.32,1.09 -10.27,2.633 -14.85,4.601 5.51,-2.129 11.28,-3.398 17.29,-3.769 -0.81,-0.289 -1.63,-0.563 -2.44,-0.832 m 113.26,83.211 c 32.13,50.601 65.92,123.84 96.92,198.32 32.83,10.039 66.76,20.711 102.67,34.789 v 0 c 0.46,0.18 0.95,0.34 1.45,0.481 7.26,-33.219 14.85,-65.989 22.64,-97.188 -48.39,-24.652 -97.93,-46.941 -145.54,-73.262 -28.19,-15.601 -53.26,-39.16 -78.14,-63.14" /><path
         id="path274"
         style="fill:#1c355a;fill-opacity:1;fill-rule:nonzero;stroke:none"
         d="m 2724.55,759.18 c 6.55,-4.801 13.03,-10.559 19.07,-16.649 8.53,-11.152 15.12,-23.34 18.68,-36.16 7.74,-28.199 0.77,-52.851 -10.82,-76.621 -28.29,-35.711 -112.13,-145.352 -127.39,-163.141 -131.01,-152.82 -196.06,-151.461 -235.08,-51.66 0,0 -30.25,20.02 3.28,103.633 72.98,110.867 188.02,160.027 282.17,248.699 12.66,11.867 31.73,5.457 50.09,-8.101" /><path
         id="path276"
         style="fill:#7c98ae;fill-opacity:1;fill-rule:nonzero;stroke:none"
         d="m 2674.46,767.281 c 4.3,4.028 9.33,5.949 14.82,6.199 v 0 c -5.49,-0.25 -10.52,-2.179 -14.82,-6.199" /><path
         id="path278"
         style="fill:#741d2b;fill-opacity:1;fill-rule:nonzero;stroke:none"
         d="m 2689.28,773.48 v 0 c 0.42,0.02 0.84,0.032 1.26,0.032 -0.42,0 -0.84,-0.012 -1.26,-0.032 m 1.34,0.032 c -0.02,0 -0.05,0 -0.06,0 v 0 c 0.01,0 0.04,0 0.06,0" /><path
         id="path280"
         style="fill:#132239;fill-opacity:1;fill-rule:nonzero;stroke:none"
         d="m 2545.64,423.301 c 14.93,47.66 24.55,132.898 30.78,227.219 -0.58,7.621 -1.09,20.312 -1.57,36.91 33.97,24.711 67.97,50.05 99.61,79.851 v 0 c 4.3,4.02 9.33,5.949 14.82,6.199 0.42,0.02 0.84,0.032 1.26,0.032 0.01,0 0.01,0 0.02,0 0.01,0 0.04,0 0.06,0 10.25,-0.024 22,-5.602 33.48,-14 0.03,-0.02 0.07,-0.043 0.1,-0.071 0.12,-0.082 0.23,-0.171 0.35,-0.261 6.55,-4.801 13.03,-10.559 19.07,-16.649 3.82,-5.019 7.18,-10.25 10.13,-15.633 -18.55,-22.527 -36.38,-45.777 -54.77,-68.457 -31.45,-38.859 -68.52,-71.132 -91.5,-116.179 -20.59,-40.403 -37.09,-81.082 -61.84,-118.961" /><path
         id="path282"
         style="fill:#20477b;fill-opacity:1;fill-rule:nonzero;stroke:none"
         d="m 1870.45,532.441 c -13.4,115.629 88.66,479.569 144.13,646.969 43.41,-2.48 87.51,0.52 130.96,6.46 53.87,7.36 107.27,15.67 158.62,34.09 28.33,10.18 56.23,21.54 84.45,31.98 -8.5,-36.1 -17.6,-72.08 -26.73,-107.96 -28.09,-110.61 -37.99,-69.4 -89.98,-171.082 -27.26,-53.418 -157.32,-455.199 -250.95,-536.457 -77.08,-66.902 -137.58,-15.011 -150.5,96" /><path
         id="path284"
         style="fill:#20477b;fill-opacity:1;fill-rule:nonzero;stroke:none"
         d="m 2191.96,1155.46 c 71.74,16.25 142.33,36.85 211.54,61.75 44.3,15.95 102.83,30.21 140.92,63.43 2.76,-20.43 5.74,-42.06 9.56,-66.32 17.71,-112.73 17.77,-502.441 22.44,-563.8 -8.05,-121.93 -21.78,-228.668 -45.31,-258.7 -62.85,-80.39 -120.51,-67.949 -176.06,29.11 -72.76,126.992 -163.3,660.94 -157.53,713.53 -1.88,6.97 -3.72,13.98 -5.56,21" /><path
         id="path286"
         style="fill:#20477b;fill-opacity:1;fill-rule:nonzero;stroke:none"
         d="m 1870.45,532.441 c -13.4,115.629 88.66,479.569 144.13,646.969 43.41,-2.48 87.51,0.52 130.96,6.46 53.87,7.36 107.27,15.67 158.62,34.09 28.33,10.18 56.23,21.54 84.45,31.98 -8.5,-36.1 -17.6,-72.08 -26.73,-107.96 -28.09,-110.61 -37.99,-69.4 -89.98,-171.082 -27.26,-53.418 -157.32,-455.199 -250.95,-536.457 -77.08,-66.902 -137.58,-15.011 -150.5,96" /><path
         id="path288"
         style="fill:#7c98ae;fill-opacity:1;fill-rule:nonzero;stroke:none"
         d="m 2363.51,406.832 c -2.82,4.477 -5.65,9.18 -8.46,14.098 -16.28,28.402 -33.44,77.172 -50.22,136.34 h 0.01 c 16.77,-59.168 33.94,-107.938 50.21,-136.34 2.81,-4.918 5.64,-9.621 8.46,-14.098 M 2211.09,816.48 c 8,20.961 15.5,40.872 22.36,59.079 v -0.028 c -6.86,-18.199 -14.36,-38.101 -22.36,-59.051" /><path
         id="path290"
         style="fill:#132239;fill-opacity:1;fill-rule:nonzero;stroke:none"
         d="m 2304.83,557.27 c -2.15,7.589 -4.28,15.332 -6.42,23.242 2.14,-7.91 4.27,-15.653 6.43,-23.242 h -0.01" /><path
         id="path292"
         style="fill:#1a2d4f;fill-opacity:1;fill-rule:nonzero;stroke:none"
         d="m 2450.53,339.102 c -29.87,0.007 -58.74,22.878 -87.02,67.73 -2.82,4.477 -5.65,9.18 -8.46,14.098 -16.27,28.402 -33.44,77.172 -50.21,136.34 -2.16,7.589 -4.29,15.332 -6.43,23.242 -24.09,89.238 -47.02,197.629 -64.94,295.07 -0.01,-0.023 -0.01,-0.031 -0.02,-0.051 v 0.028 c 2.25,5.98 4.42,11.75 6.53,17.351 13.87,2.68 26.54,7.93 36.17,16.629 14.95,-105.359 41.17,-208.609 71.25,-310.598 22.65,-76.711 42.23,-180.98 104,-237.371 8.33,-7.601 16.76,-13.109 25.12,-16.781 -8.76,-3.801 -17.41,-5.687 -25.99,-5.687" /><path
         id="path294"
         style="fill:#1a2d4f;fill-opacity:1;fill-rule:nonzero;stroke:none"
         d="m 2157.05,680.559 c 5.42,29.55 10.79,59.113 16.36,88.621 5.85,31 16.7,61.82 20.63,92.968 0.78,6.332 -0.81,11.512 -3.69,16.082 4.51,2.129 7.94,6.051 9.93,12.161 0.1,0.3 0.19,0.597 0.29,0.898 4.76,-0.41 9.58,-0.629 14.38,-0.629 8.51,0 16.98,0.692 25.03,2.25 -2.11,-5.601 -4.28,-11.371 -6.53,-17.351 -6.86,-18.207 -14.36,-38.118 -22.36,-59.079 -16.28,-42.621 -34.65,-89.648 -54.04,-135.921" /><path
         id="path296"
         style="fill:#1a2d4f;fill-opacity:1;fill-rule:nonzero;stroke:none"
         d="m 1926.5,414.93 c -28.92,16.769 -49.18,58.711 -56.05,117.511 v 0 c -9.89,85.418 43.22,306.36 94.02,483.449 21.65,-8.18 42.84,-17.019 64.79,-24.23 -43.75,-57.359 -53.56,-135.23 -68.32,-203.82 -7.76,-36.11 -16.7,-71.969 -24.06,-108.199 -15.91,-78.59 -41.73,-185.692 -10.38,-264.711" /><path
         id="path298"
         style="fill:#7c98ae;fill-opacity:1;fill-rule:nonzero;stroke:none"
         d="m 2554.76,1209.08 c 0,0.02 -0.01,0.04 -0.01,0.05 0,-0.02 0.01,-0.03 0.01,-0.05 m -0.02,0.15 c -0.03,0.16 -0.05,0.32 -0.07,0.48 v 0 c 0.02,-0.16 0.04,-0.32 0.07,-0.48" /><path
         id="path300"
         style="fill:#501616;fill-opacity:1;fill-rule:nonzero;stroke:none"
         d="m 2554.67,1209.71 v 0 c -0.23,1.58 -0.46,3.12 -0.69,4.61 0.23,-1.49 0.46,-3.03 0.69,-4.61" /><path
         id="path302"
         style="fill:#1a2d4f;fill-opacity:1;fill-rule:nonzero;stroke:none"
         d="m 2564.94,1072.84 c -14.09,24.71 -34.59,41 -65.38,41 -0.59,0 -1.19,0 -1.79,-0.02 35.29,48.81 47.94,95.37 52.31,126.25 1.2,-8.28 2.49,-16.84 3.9,-25.75 v 0 c 0.23,-1.49 0.46,-3.03 0.69,-4.61 v 0 c 0.02,-0.16 0.04,-0.32 0.07,-0.48 0,-0.03 0.01,-0.07 0.01,-0.1 0,-0.01 0.01,-0.03 0.01,-0.05 4.42,-31.1 7.67,-79.98 10.18,-136.24" /><path
         id="path304"
         style="fill:#8bcaec;fill-opacity:1;fill-rule:nonzero;stroke:none"
         d="m 1654.4,1496.32 c 5.88,73.03 19.1,141.5 109.12,155.65 19.96,-4.39 39.1,-11.62 55.89,-23.68 23.13,-16.59 38.2,-36.79 51.77,-58.72 3.83,-8.53 7.64,-17.59 11.41,-27.92 46.64,-127.89 45.46,-317.72 45.46,-317.72 0,0 -157.48,-46.43 -283.68,3.16 0,0 4.21,195.72 10.03,269.23" /><path
         id="path306"
         style="fill:#bdd9ef;fill-opacity:1;fill-rule:nonzero;stroke:none"
         d="m 1712.98,1623.16 c 9.58,17.98 21.05,13.79 34.89,9.61 14.94,-4.53 32.65,-9.05 53.71,14.37 44.09,49.04 54.7,28 111.42,66.31 154.73,78.43 591.42,-330.33 638.98,-436.05 0,0 13.2,-139.85 -142.53,-249.03 -43.33,-21.88 -91.3,-35.94 -137.61,-44.038 -61.54,-10.75 -126.82,-13.883 -188.88,-5.5 -52.06,7.02 -95.96,30.338 -144.36,46.288 -37.1,46.78 -75.89,99.2 -105.4,147.52 -60.67,114.32 -115.17,325.78 -120.22,450.52" /><path
         id="path308"
         style="fill:#f4d6b7;fill-opacity:1;fill-rule:nonzero;stroke:none"
         d="m 2063.41,958.129 c 20.84,169.111 -13.12,247.281 -8.71,311.221 l 208.7,-9.69 c 0,0 -1.6,-173.49 -63.12,-369.269 -16.07,-49.309 -126.05,44.16 -136.87,67.738" /><path
         id="path310"
         style="fill:#a6a390;fill-opacity:1;fill-rule:nonzero;stroke:none"
         d="m 2066.67,1138.96 c -0.01,0 -0.02,0.01 -0.03,0.01 -5.29,55.94 -14.32,95.24 -11.95,130.19 -2.37,-34.95 6.69,-74.18 11.98,-130.2 m 196.73,120.68 v 0 0 m 0,0.01 v 0 0 m 0,0 c 0,0.01 0,0.01 0,0.01 v 0 c 0,0 0,0 0,-0.01" /><path
         id="path312"
         style="fill:#e2a16a;fill-opacity:1;fill-rule:nonzero;stroke:none"
         d="m 2107.05,1136.62 c -13.41,0 -26.89,0.81 -40.38,2.34 -5.29,56.02 -14.35,95.25 -11.98,130.2 0,0.06 0,0.12 0.01,0.19 l 208.7,-9.69 c 0,0 0,0 0,-0.01 v 0 0 -0.01 0 c -0.01,-0.92 -0.35,-29.9 -4.83,-76.91 -45.88,-33.09 -98.07,-46.11 -151.52,-46.11" /><path
         id="path314"
         style="fill:#f4d6b7;fill-opacity:1;fill-rule:nonzero;stroke:none"
         d="m 1792.62,794.18 c -17.81,31.769 -3.53,49.558 -24.23,82.039 115.36,43.57 263.96,101.39 336.63,103.871 73.03,13.371 132.39,-56.738 78.2,-116.77 -74.74,-48.929 -388.77,-72.351 -390.6,-69.14" /><path
         id="path316"
         style="fill:#8bcaec;fill-opacity:1;fill-rule:nonzero;stroke:none"
         d="m 2005.81,1482.39 c -3.81,73.17 0.34,142.81 87.7,168.59 20.42,-1.72 40.3,-6.34 58.56,-16.19 25.1,-13.36 42.69,-31.39 59.01,-51.35 4.92,-7.95 9.88,-16.43 14.94,-26.16 63.02,-120.71 86.79,-309.07 86.79,-309.07 0,0 -150.05,-66.63 -281.69,-34.06 0,0 -21.53,194.56 -25.31,268.24" /><path
         id="path318"
         style="fill:#369d9b;fill-opacity:1;fill-rule:nonzero;stroke:none"
         d="m 1787.73,1699.1 -74.75,-44.56 c 0,0 4.57,-149.39 56.28,-145.8 51.72,3.58 72.95,68.81 72.95,68.81 0,0 51.67,-89.71 115.75,-39.67 64.11,50.02 89.01,181.07 89.01,181.07 l -126.26,18.68 -132.98,-38.53" /><path
         id="path320"
         style="fill:#369d9b;fill-opacity:1;fill-rule:nonzero;stroke:none"
         d="m 2202.74,1930.13 c 0,0 37.5,-56.87 -7.13,-83.81 -44.68,-26.93 -68.89,17.62 -68.89,17.62 0,0 75.91,62.52 76.02,66.19" /><path
         id="path322"
         style="fill:#e1b485;fill-opacity:1;fill-rule:nonzero;stroke:none"
         d="m 1859.43,1604.77 c 36.26,8.41 65.07,31.09 83.79,61.83 -15.17,100.89 -25.61,193.84 -25.61,193.84 l -38.53,-10.39 c 0,0 -50.2,-8.92 -104.87,-57.84 0.48,-34.5 8.78,-95.2 17.75,-153.85 15.76,-22.82 34.51,-41.24 67.47,-33.59" /><path
         id="path324"
         style="fill:#f4d6b7;fill-opacity:1;fill-rule:nonzero;stroke:none"
         d="m 1403.9,2428.78 83.86,-85.6 c 0,0 -14.87,49.73 -33.15,104.82 131.75,-80.85 345.37,-112.39 345.37,-112.39 0,0 -51.93,36.14 -128.45,105.33 275.84,-85.1 350.5,-192.94 419.58,-388.1 8.43,101.79 83.66,117.79 106.22,33.23 22.59,-84.57 -29.59,-132.41 -63.92,-115.86 -10.05,-56.43 -54.94,-114.9 -54.94,-114.9 0,0 -95.14,-148.45 -285.46,-162.86 -291.66,-11.24 -353.01,180.34 -376.87,229.21 -23.87,48.87 -10.1,176.11 -27.57,219.79 -17.5,43.62 -33,98.48 -33,98.48 -30.16,117.37 48.33,188.85 48.33,188.85" /><path
         id="path326"
         style="fill:#c62d23;fill-opacity:1;fill-rule:nonzero;stroke:none"
         d="m 1200.97,2454.51 c 0.94,44.83 14.2,93.96 43.93,120.6 23.13,20.73 73.49,32.59 103.78,26.5 62.54,104.69 379.49,274.13 672.2,202.56 494.53,-139.69 420.22,-648.12 335.35,-797.03 -92.65,-158.45 -277.76,-151.83 -277.76,-151.83 0,0 44.89,58.47 54.94,114.9 34.33,-16.55 86.51,31.29 63.92,115.86 -22.56,84.56 -97.79,68.56 -106.22,-33.23 -69.08,195.16 -211.14,218.4 -211.14,218.4 0,0 -255.93,-118.04 -524.4,-31.31 -68.07,21.98 -132.93,93.43 -149.44,161.84 -3.72,15.43 -5.56,33.7 -5.16,52.74" /><path
         id="path328"
         style="fill:#e38b89;fill-opacity:1;fill-rule:nonzero;stroke:none"
         d="m 2081.65,1855.27 v 0 m 0.89,0.01 v 0 m 0.32,0 c 0.02,0 0.05,0 0.07,0 -0.03,0 -0.05,0 -0.07,0 m 0.6,0 c 7.85,0.08 24.45,0.72 46.2,4.15 0,0 0,0 0,0 -21.75,-3.43 -38.36,-4.07 -46.2,-4.15 m 134.01,29.54 v 0 c 47.32,20.68 97.53,55.76 134.49,115.23 -36.96,-59.47 -87.17,-94.55 -134.49,-115.23 m -69.72,82.14 c 0,0 0,0 -0.01,0 0.01,0 0.01,0 0.01,0 v 0 m 0.05,0 c 26.15,0.04 55.03,29.72 55.02,79.59 0,11.66 -1.58,24.42 -5.14,38.16 18.8,-72.55 -17.61,-117.71 -49.88,-117.75 m 204.3,33.31 c 0.15,0.24 0.3,0.49 0.45,0.74 -0.15,-0.25 -0.3,-0.5 -0.45,-0.74 m 0.46,0.74 c 0.27,0.45 0.54,0.88 0.81,1.33 -0.27,-0.45 -0.54,-0.88 -0.81,-1.33 m 0.92,1.52 c 0.25,0.4 0.49,0.79 0.73,1.2 -0.24,-0.41 -0.48,-0.8 -0.73,-1.2 m 0.9,1.47 c 0.05,0.1 0.11,0.19 0.16,0.28 -0.05,-0.09 -0.11,-0.18 -0.16,-0.28 m 0.68,1.15 c 0.15,0.25 0.29,0.48 0.44,0.73 -0.15,-0.25 -0.29,-0.48 -0.44,-0.73 m -263.95,47.69 c 0.02,0.24 0.04,0.47 0.06,0.71 -0.02,-0.24 -0.04,-0.47 -0.06,-0.71 m 0.11,1.24 c 5.04,56.76 30.97,86.46 56.67,86.47 -25.69,-0.02 -51.63,-29.72 -56.67,-86.47 m 106.38,30.94 c -0.06,0.24 -0.13,0.48 -0.19,0.73 0.06,-0.25 0.13,-0.49 0.19,-0.73 m -0.27,1.05 c -0.08,0.27 -0.15,0.54 -0.23,0.82 0.08,-0.28 0.15,-0.55 0.23,-0.82 m -49.39,54.48 c -0.01,0 -0.02,0 -0.02,0 v 0 c 0,0 0.01,0 0.02,0" /><path
         id="path330"
         style="fill:#1f5a55;fill-opacity:1;fill-rule:nonzero;stroke:none"
         d="m 2129.66,1859.43 c 0,0 0,0 0,0 24.48,3.86 55.47,11.26 87.81,25.39 v 0 c -32.34,-14.13 -63.33,-21.53 -87.81,-25.39" /><path
         id="path332"
         style="fill:#d87160;fill-opacity:1;fill-rule:nonzero;stroke:none"
         d="m 2202.82,2046.55 c 0,11.66 -1.58,24.42 -5.14,38.16 v 0 c 3.56,-13.74 5.14,-26.5 5.14,-38.16 m -111.71,6.29 c -69.08,195.16 -211.14,218.4 -211.14,218.4 0,0 -136.83,-63.15 -315.42,-63.14 178.56,0.01 315.42,63.14 315.42,63.14 0,0 142.06,-23.24 211.14,-218.4 v 0 c 0.02,0.24 0.04,0.47 0.06,0.71 v 0 c -0.02,-0.24 -0.04,-0.47 -0.06,-0.71 m 0.11,1.24 v 0 c 5.04,56.75 30.98,86.45 56.67,86.47 v 0 c -25.69,-0.02 -51.63,-29.72 -56.67,-86.47 m 106.38,30.94 c -0.06,0.24 -0.13,0.48 -0.19,0.73 v 0 c 0.06,-0.25 0.13,-0.49 0.19,-0.73 v 0 m -0.27,1.05 v 0 c -0.08,0.27 -0.15,0.54 -0.23,0.82 v 0 c 0.08,-0.28 0.15,-0.55 0.23,-0.82 v 0 m -49.39,54.48 c -0.01,0 -0.02,0 -0.02,0 v 0 c 0,0 0.01,0 0.02,0 v 0 m -583.41,67.55 h -0.01 0.01 v 0" /><path
         id="path334"
         style="fill:#ac2022;fill-opacity:1;fill-rule:nonzero;stroke:none"
         d="m 2081.65,1855.27 v 0 c -2.08,0 -3.18,0.04 -3.18,0.04 v 0 c 0,0 44.89,58.47 54.94,114.9 4.54,-2.19 9.38,-3.25 14.33,-3.25 0.01,0 0.01,0 0.01,0 v 0 c 0.02,0 0.03,0 0.05,0 32.27,0.04 68.68,45.2 49.88,117.75 v 0 c -0.02,0.1 -0.05,0.21 -0.08,0.31 v 0 c -0.06,0.24 -0.13,0.48 -0.19,0.73 v 0 c -0.03,0.11 -0.06,0.21 -0.08,0.32 v 0 c -0.08,0.27 -0.15,0.54 -0.23,0.82 v 0 c -9.86,36.16 -29.44,53.65 -49.16,53.66 v 0 c -0.01,0 -0.02,0 -0.02,0 v 0 c -0.01,0 -0.02,0 -0.03,0 v 0 c -25.7,-0.01 -51.63,-29.71 -56.67,-86.47 v 0 c -0.01,-0.18 -0.03,-0.35 -0.05,-0.53 v 0 c -0.02,-0.24 -0.04,-0.47 -0.06,-0.71 v 0 c -69.08,195.16 -211.14,218.4 -211.14,218.4 0,0 -136.86,-63.13 -315.42,-63.14 h -0.03 c -65.59,0.01 -136.83,8.53 -208.95,31.83 v 0 c -68.07,21.98 -132.93,93.43 -149.44,161.84 -3.39,14.04 -5.21,30.44 -5.21,47.63 0,1.7 0.02,3.4 0.05,5.11 0.17,8.19 0.91,16.5 1.93,24.82 0.18,-21.41 3.05,-42.85 7.85,-62.65 24.73,-101.93 128.18,-161.43 228.47,-163.62 0.06,0 0.12,-0.01 0.18,-0.01 6.75,0.01 8.35,8.87 3.15,12.33 -29.55,19.69 -49.07,46.33 -64.26,75.9 35.55,-33.35 83.89,-56.2 127.11,-72.43 38.15,-14.32 77.37,-19.77 117.09,-19.77 20.72,0 41.58,1.48 62.49,3.96 50.54,6.01 104.06,5.26 150.92,27.37 4.71,2.22 3.91,8.98 0,11.41 -21.11,13.22 -41.42,27.61 -61.78,41.91 47.28,-10.71 95.96,-16.19 143.2,-27.02 39.48,-9.07 78.22,-21.29 116.78,-33.59 30.66,-9.76 58.3,-24.69 91.01,-26.67 0.09,-0.01 0.18,-0.01 0.27,-0.01 3.19,0 6.78,3.28 6.34,6.62 -3.77,28.69 -15.65,52.58 -32.15,73.32 46.42,-30.93 87.84,-68.03 120.65,-114.67 1.41,-2.01 3.83,-3.12 6.16,-3.12 2.67,0 5.21,1.46 5.93,4.7 16.58,75.16 7.15,151.2 -19.99,221.17 25.85,-32.42 50.28,-66.19 76.7,-98.48 1.15,-1.41 2.68,-2.02 4.24,-2.02 2.91,0 5.93,2.11 6.81,4.94 17.57,56.52 -5.09,132 -20.22,186.9 -17.07,61.88 -47.52,119.37 -90.14,167.36 -37.33,42.02 -84.01,75.4 -135.1,100.53 457.22,-152.91 384.49,-641.13 301.62,-786.55 v 0 c -0.24,-0.42 -0.49,-0.84 -0.73,-1.26 -0.15,-0.25 -0.29,-0.48 -0.44,-0.73 -0.17,-0.28 -0.35,-0.58 -0.52,-0.87 -0.05,-0.09 -0.11,-0.18 -0.16,-0.28 -0.06,-0.08 -0.12,-0.18 -0.17,-0.27 -0.24,-0.41 -0.48,-0.8 -0.73,-1.2 -0.03,-0.06 -0.08,-0.14 -0.11,-0.19 -0.27,-0.45 -0.54,-0.88 -0.81,-1.33 h -0.01 c -0.15,-0.25 -0.3,-0.5 -0.45,-0.74 -0.05,-0.07 -0.09,-0.14 -0.14,-0.22 -36.96,-59.47 -87.17,-94.55 -134.49,-115.23 -32.34,-14.13 -63.33,-21.53 -87.81,-25.39 -21.75,-3.43 -38.35,-4.07 -46.2,-4.15 -0.18,0 -0.36,0 -0.53,0 -0.02,0 -0.05,0 -0.07,0 -0.11,0 -0.22,0 -0.32,0 v 0 c -0.32,-0.01 -0.61,-0.01 -0.89,-0.01" /><path
         id="path336"
         style="fill:#c08b59;fill-opacity:1;fill-rule:nonzero;stroke:none"
         d="m 1542.79,1987.29 c 0,0 -2.51,-2.57 -6.5,-7.41 -3.9,-4.88 -9.66,-11.85 -15.39,-21.04 -2.88,-4.56 -5.86,-9.63 -8.74,-15.16 -2.86,-5.54 -5.76,-11.46 -7.96,-18.06 -2.34,-6.44 -4.11,-13.48 -4.94,-20.87 -0.7,-7.38 -0.52,-15.29 2.06,-22.78 0.8,-3.25 3.05,-7.08 5.07,-10.67 2.52,-3.09 4.93,-6.26 8.14,-8.55 6.1,-4.87 13.3,-7.87 20.23,-9.16 6.98,-1.58 13.79,-1.74 20.12,-1.27 6.3,0.39 12.2,1.29 17.5,2.58 5.38,1.07 10.08,2.74 14.23,4.26 4.11,1.54 7.63,3.13 10.47,4.48 2.92,1.24 4.92,2.65 6.41,3.43 1.46,0.82 2.26,1.25 2.26,1.25 0,0 -3.4,-1.26 -9.29,-3.11 -2.99,-0.96 -6.61,-2 -10.82,-2.9 -4.19,-0.94 -8.94,-1.88 -14.15,-2.58 -5.17,-0.8 -10.84,-1.16 -16.76,-1.03 -5.95,0.07 -12.16,0.85 -18.19,2.35 -6.13,1.36 -11.82,4.38 -16.7,8.22 -2.55,1.85 -4.32,4.38 -6.32,6.83 -1.3,2.67 -2.98,4.88 -3.89,8.63 -2.26,6.01 -2.47,12.69 -1.99,19.26 0.72,6.53 1.84,13.08 3.88,19.25 3.76,12.45 8.71,23.79 13.64,33.18 4.93,9.4 9.17,17.19 12.47,22.51 3.28,5.31 5.16,8.36 5.16,8.36" /><path
         id="path338"
         style="fill:#c08b59;fill-opacity:1;fill-rule:nonzero;stroke:none"
         d="m 1868.53,1861.64 c 0,0 -3.14,-0.09 -7.16,-0.21 -2.02,-0.05 -4.36,-0.05 -6.72,-0.13 -1.02,0.1 -2.06,0.08 -3.1,0.06 -1.42,-0.02 -2.86,-0.05 -4.3,0.22 -2.54,0.01 -5.02,0.11 -7.39,0.53 -1.17,0.18 -2.38,0.19 -3.5,0.25 -1.18,-0.02 -2.16,0.33 -3.19,0.44 -3.98,0.65 -7.23,0.51 -7.23,0.51 0,0 1.77,-2.43 5.37,-5.18 0.9,-0.65 1.86,-1.61 3.06,-2.02 1.17,-0.49 2.41,-1.06 3.78,-1.5 1.34,-0.42 2.71,-1.13 4.19,-1.3 1.47,-0.14 2.98,-0.31 4.5,-0.45 3.06,-0.31 6.08,0.32 8.88,0.85 1.4,0.2 2.64,0.92 3.85,1.33 1.2,0.48 2.32,0.96 3.29,1.6 3.97,2.29 5.67,5 5.67,5" /><path
         id="path340"
         style="fill:#c08b59;fill-opacity:1;fill-rule:nonzero;stroke:none"
         d="m 1653.72,1776.03 c 0,0 -1.42,0.06 -3.85,0.4 -2.36,0.14 -5.77,0.78 -9.74,1.28 -1.97,0.2 -4.13,0.88 -6.37,1.22 -2.25,0.5 -4.62,0.72 -7.02,1.51 -2.37,0.6 -4.81,1.39 -7.34,1.94 -2.56,0.43 -4.94,1.63 -7.44,2.46 -2.48,0.81 -4.99,1.66 -7.42,2.47 -2.36,1.09 -4.69,2.15 -6.92,3.18 -2.27,1.04 -4.53,1.91 -6.66,2.82 -2.18,0.77 -3.89,2.12 -5.73,3.02 -7.05,3.96 -12.42,6.13 -12.42,6.13 0,0 3.4,-4.39 9.55,-10.26 1.6,-1.37 3.1,-3.28 5.22,-4.47 2.02,-1.3 4.17,-2.78 6.47,-4.11 2.35,-1.26 4.59,-2.87 7.15,-4.07 2.65,-0.95 5.3,-1.98 7.99,-3 2.69,-0.79 5.33,-1.96 8.15,-2.35 2.75,-0.58 5.52,-0.92 8.15,-1.34 1.88,-0.43 3.81,-0.41 5.65,-0.4 0.68,0.01 1.35,0.01 2.01,0 0.56,0 1.12,0 1.67,0 1.84,0 3.58,-0.01 5.21,0.24 8.52,0.85 13.69,3.33 13.69,3.33" /><path
         id="path342"
         style="fill:#622920;fill-opacity:1;fill-rule:nonzero;stroke:none"
         d="m 1754.9,1990.45 c 2.84,-20.16 -1.59,-36.35 -9.93,-36.19 -8.32,0.12 -17.37,16.55 -20.21,36.71 -2.95,20.1 1.58,36.29 9.87,36.15 8.36,-0.13 17.37,-16.54 20.27,-36.67" /><path
         id="path344"
         style="fill:#ffffff;fill-opacity:1;fill-rule:nonzero;stroke:none"
         d="m 1735.46,2006.01 c 0.43,-6.11 -1.31,-10.81 -3.89,-10.53 -2.55,0.22 -4.93,5.41 -5.28,11.45 -0.45,6.1 1.31,10.8 3.86,10.53 2.54,-0.24 4.94,-5.39 5.31,-11.45" /><path
         id="path346"
         style="fill:#622920;fill-opacity:1;fill-rule:nonzero;stroke:none"
         d="m 1475.02,1989.19 c 2.91,-20.17 -1.53,-36.38 -9.86,-36.21 -8.36,0.13 -17.42,16.54 -20.27,36.67 -2.85,20.14 1.64,36.33 9.93,36.18 8.35,-0.13 17.39,-16.55 20.2,-36.64" /><path
         id="path348"
         style="fill:#ffffff;fill-opacity:1;fill-rule:nonzero;stroke:none"
         d="m 1455.65,2004.71 c 0.38,-6.06 -1.34,-10.8 -3.88,-10.54 -2.59,0.26 -4.95,5.42 -5.32,11.49 -0.41,6.09 1.33,10.76 3.85,10.54 2.55,-0.26 4.95,-5.45 5.35,-11.49" /><path
         id="path350"
         style="fill:#9b301e;fill-opacity:1;fill-rule:nonzero;stroke:none"
         d="m 1775.17,2109.22 c 0,0 -0.69,2.33 -2.35,6.21 -1.7,3.86 -4.13,9.46 -7.91,15.66 -1.91,3.18 -4.05,6.51 -6.71,9.86 -2.53,3.36 -5.39,6.85 -8.94,10.01 -3.41,3.27 -7.39,6.33 -12.06,8.73 -2.27,1.17 -4.9,1.98 -7.39,2.88 -2.76,0.35 -5.41,1.29 -8.26,0.98 l -4.18,-0.36 -0.47,-0.05 c -1.11,-0.18 -0.56,-0.12 -0.92,-0.19 l -0.88,-0.28 -1.72,-0.54 c -2.13,-0.4 -4.86,-1.92 -7.42,-3.38 -4.68,-3 -8.12,-7 -10.68,-11.16 -2.69,-4.09 -4.33,-8.45 -5.65,-12.5 -1.35,-4.13 -2.14,-8.05 -2.7,-11.72 -1.12,-7.27 -0.96,-13.38 -0.94,-17.61 0.13,-4.24 0.52,-6.65 0.52,-6.65 0,0 0.44,2.4 1.19,6.52 0.7,4.13 2.09,9.93 4.11,16.63 1.08,3.32 2.34,6.95 3.94,10.55 1.57,3.55 3.48,7.25 5.93,10.47 2.26,3.38 5.44,6.17 8.64,8.26 1.61,0.79 2.9,1.84 5.5,2.35 l 1.7,0.5 0.88,0.22 -0.04,0.02 0.39,0.02 2.96,0.16 c 1.98,0.36 3.97,-0.48 5.97,-0.53 1.96,-0.73 3.94,-1.24 5.81,-2.19 3.78,-1.92 7.48,-4.14 10.71,-6.91 3.25,-2.66 6.35,-5.52 9.06,-8.47 2.8,-2.9 5.29,-5.75 7.57,-8.49 4.47,-5.46 8.15,-10.13 10.53,-13.61 2.41,-3.44 3.81,-5.39 3.81,-5.39" /><path
         id="path352"
         style="fill:#9b301e;fill-opacity:1;fill-rule:nonzero;stroke:none"
         d="m 1467.04,2091.95 c 0,0 -1.68,6.95 -7.24,16.17 -1.37,2.27 -3.01,4.73 -4.96,7.14 -1.98,2.43 -4.17,4.93 -6.84,7.24 -2.76,2.18 -5.71,4.54 -9.41,5.94 -3.58,1.69 -7.89,2.26 -12.1,2.1 -2.88,-0.64 -3.37,-0.47 -5.84,-1.49 -2.26,-0.98 -4.3,-2.07 -5.74,-3.41 -3.34,-2.48 -5.39,-5.78 -7.29,-8.78 -3.45,-6.25 -5.02,-12.45 -5.97,-17.73 -1.79,-10.58 -0.81,-17.66 -0.81,-17.66 0,0 1.96,6.83 5.69,16.33 0.93,2.35 2.04,4.86 3.26,7.45 1.23,2.54 2.75,5.09 4.39,7.55 1.72,2.34 3.66,4.58 5.9,6.15 1.09,0.98 2.17,1.4 3.09,1.89 l 4.16,1.02 c 2.64,0.07 5.45,-0.03 8.12,-1.28 2.69,-0.94 5.35,-2.47 7.79,-4.13 2.4,-1.79 4.7,-3.67 6.82,-5.57 2.04,-2.03 4,-3.93 5.76,-5.78 6.87,-7.53 11.22,-13.15 11.22,-13.15" /><path
         id="path354"
         style="fill:#d9af86;fill-opacity:1;fill-rule:nonzero;stroke:none"
         d="m 1747.96,1736.31 c -33.32,0 -68.8,11.63 -94.9,35.57 -2.9,0.44 -5.72,0.93 -8.46,1.47 5.76,1.07 9.12,2.68 9.12,2.68 0,0 -1.42,0.06 -3.85,0.4 -2.36,0.14 -5.77,0.78 -9.74,1.28 -1.97,0.2 -4.13,0.88 -6.37,1.22 -2.25,0.5 -4.62,0.72 -7.02,1.51 -2.37,0.6 -4.81,1.39 -7.34,1.94 -2.56,0.43 -4.94,1.63 -7.44,2.46 -2.48,0.81 -4.99,1.66 -7.42,2.47 -2.16,1 -4.3,1.98 -6.36,2.92 12.44,-4.89 33.4,-10.94 60.91,-10.94 44.21,0 105.34,15.62 175.28,76.82 -8.41,2.3 -11.61,10.15 -11.61,10.15 0,0 1.44,-1.28 4.11,-2.94 -0.03,0 -0.06,0 -0.1,0 -0.53,0 -0.83,-0.01 -0.83,-0.01 0,0 1.77,-2.43 5.37,-5.18 0.9,-0.65 1.86,-1.61 3.06,-2.02 1.17,-0.49 2.41,-1.06 3.78,-1.5 1.34,-0.42 2.71,-1.13 4.19,-1.3 1.47,-0.14 2.98,-0.31 4.5,-0.45 0.55,-0.06 1.11,-0.08 1.66,-0.08 2.49,0 4.93,0.5 7.22,0.93 1.4,0.2 2.64,0.92 3.85,1.33 1.2,0.48 2.32,0.96 3.29,1.6 v 0 c -10.35,-10.33 -10.35,-10.33 -10.35,-10.33 0,0 3.46,-60.14 -37.7,-90.34 -17.72,-13.01 -41.67,-19.66 -66.85,-19.66" /><path
         id="path356"
         style="fill:#c08b59;fill-opacity:1;fill-rule:nonzero;stroke:none"
         d="m 1848.5,1852.78 c -0.55,0 -1.11,0.02 -1.66,0.08 -1.52,0.14 -3.03,0.31 -4.5,0.45 -1.48,0.17 -2.85,0.88 -4.19,1.3 -1.37,0.44 -2.61,1.01 -3.78,1.5 -1.2,0.41 -2.16,1.37 -3.06,2.02 -3.6,2.75 -5.37,5.18 -5.37,5.18 0,0 0.3,0.01 0.83,0.01 0.04,0 0.07,0 0.1,0 5,-3.11 14.29,-7.57 26.51,-7.57 2.99,0 6.16,0.27 9.48,0.89 -0.97,-0.64 -2.09,-1.12 -3.29,-1.6 -1.21,-0.41 -2.45,-1.13 -3.85,-1.33 -2.29,-0.43 -4.73,-0.93 -7.22,-0.93" /><path
         id="path358"
         style="fill:#d9af86;fill-opacity:1;fill-rule:nonzero;stroke:none"
         d="m 1591.64,1793.02 c -0.23,0.1 -0.45,0.19 -0.68,0.29 -1.37,0.49 -2.55,1.19 -3.69,1.88 1.05,-0.57 2.52,-1.31 4.37,-2.17" /><path
         id="path360"
         style="fill:#c08b59;fill-opacity:1;fill-rule:nonzero;stroke:none"
         d="m 1644.6,1773.35 c -37.23,7.34 -59.37,22.98 -59.37,22.98 0,0 0.69,-0.43 2.04,-1.14 1.14,-0.69 2.32,-1.39 3.69,-1.88 0.23,-0.1 0.45,-0.19 0.68,-0.29 1.82,-0.84 4,-1.79 6.54,-2.79 2.06,-0.94 4.2,-1.92 6.36,-2.92 2.43,-0.81 4.94,-1.66 7.42,-2.47 2.5,-0.83 4.88,-2.03 7.44,-2.46 2.53,-0.55 4.97,-1.34 7.34,-1.94 2.4,-0.79 4.77,-1.01 7.02,-1.51 2.24,-0.34 4.4,-1.02 6.37,-1.22 3.97,-0.5 7.38,-1.14 9.74,-1.28 2.43,-0.34 3.85,-0.4 3.85,-0.4 0,0 -3.36,-1.61 -9.12,-2.68" /><path
         id="path362"
         style="fill:#f7aac8;fill-opacity:1;fill-rule:nonzero;stroke:none"
         d="m 1730.99,1785.85 c 14.42,-16.97 48.79,-38.54 111.22,21.64 -2.33,-9.65 -5.84,-18.1 -10.26,-25.45 -19.99,-6.27 -49.59,-18.56 -52.78,-37.07 -43.93,-10.72 -97.8,4.87 -122.97,30.18 28.2,-0.06 53.09,4.14 74.79,10.7" /><path
         id="path364"
         style="fill:#ffffff;fill-opacity:1;fill-rule:nonzero;stroke:none"
         d="m 1730.99,1785.85 c 76.02,22.9 113.1,74.74 113.1,74.74 2.63,-20.84 1.7,-38.33 -1.88,-53.1 -62.43,-60.18 -96.8,-38.61 -111.22,-21.64" /><path
         id="path366"
         style="fill:#ee4e6c;fill-opacity:1;fill-rule:nonzero;stroke:none"
         d="m 1831.95,1782.04 c -12.1,-20.07 -31.22,-31.74 -52.78,-37.07 3.19,18.51 32.79,30.8 52.78,37.07" /><path
         id="path368"
         style="fill:#f9c2bc;fill-opacity:1;fill-rule:nonzero;stroke:none"
         d="m 1926.52,1944.36 c 0.73,-20.2 -30.19,-37.31 -69.14,-38.17 -38.93,-0.86 -71.13,14.78 -71.95,35.08 -0.74,20.22 30.23,37.27 69.14,38.16 38.95,0.84 71.17,-14.84 71.95,-35.07" /><path
         id="path370"
         style="fill:#f9c2bc;fill-opacity:1;fill-rule:nonzero;stroke:none"
         d="m 1421.04,1911.91 c -3.76,13.05 -10.87,24.59 -13.58,37.58 1.55,0.56 7.46,3 9.09,3.48 20.92,6.09 40.36,2.18 43.35,-8.78 2.97,-10.91 -11.57,-24.66 -32.53,-30.77 -2.12,-0.62 -4.21,-1.09 -6.33,-1.51" /><path
         id="path372"
         style="fill:#d9af86;fill-opacity:1;fill-rule:nonzero;stroke:none"
         d="m 2151.64,1987.35 c -14.1,0 -27.14,18.53 -29.5,42.55 -2.48,24.88 7.45,46.26 22.18,47.73 0.52,0.05 1.04,0.08 1.56,0.08 14.1,0 27.12,-18.56 29.52,-42.57 2.46,-24.93 -7.49,-46.26 -22.16,-47.71 -0.53,-0.05 -1.06,-0.08 -1.6,-0.08" /><path
         id="path374"
         style="fill:#f4d6b7;fill-opacity:1;fill-rule:nonzero;stroke:none"
         d="m 1805.91,852.91 c -6.19,14.801 -15.63,28.301 -27.14,38.942 -27.63,25.546 -65.68,35.238 -101.09,44.578 -31.38,4.511 -71.66,41.179 -78.98,37.269 -7.3,-3.949 -34.13,-48.187 63.58,-75.808 -87.63,-13.039 -148.62,-36.719 -150.39,-66.891 1.39,-22.32 45.21,-4.352 72.49,6.5 27.18,10.871 85.39,16.191 85.39,16.191 0,0 -147.97,-49.582 -141.05,-92.359 4.16,-15.391 44.63,2.738 91.76,26.238 47.14,23.512 70.65,27.871 70.65,27.871 0,0 -148.2,-87.281 -119.01,-117.242 15.02,-14.039 44.84,11.852 68.48,30.992 23.68,19.168 78.91,42.821 78.91,42.821 0,0 -108.71,-91.602 -81.86,-110.321 26.85,-18.722 73.41,46.2 103.61,78.739 2.25,2.41 17.93,1.699 21.82,2.609 6.86,1.602 13.42,4 19.34,7.891 12.52,8.211 21.02,21.64 26.23,35.429 8.22,21.672 6.11,45.411 -2.74,66.551" /><path
         id="path376"
         style="fill:#9683af;fill-opacity:1;fill-rule:nonzero;stroke:none"
         d="m 1251.11,427.699 c -13.53,6.352 -53.71,-3.629 -57.32,-8.527 -51.67,-21.063 -94.19,-40.711 -120.98,-42.293 -5.05,14.652 -12.57,33.742 -21.82,55.973 -11.59,-10.293 -25.38,-18.383 -39.26,-24.961 -9.11,-4.321 -20.39,-10.379 -31.832,-13.891 l 31.092,-56.379 0.42,-0.289 c 7.8,-17.812 10.32,-38.094 20.23,-54.922 12.51,-21.199 38.05,-22.5 59.46,-16.5 15.13,4.25 28.81,11.539 43.2,17.61 13.49,5.71 25.89,12.769 38.28,20.5 22.24,13.871 42.25,30.832 60.84,49.281 14.97,14.84 58.72,73.347 17.69,74.398" /></g></g></svg>