<?xml version="1.0" encoding="UTF-8" standalone="no"?>
<svg
   xmlns:dc="http://purl.org/dc/elements/1.1/"
   xmlns:cc="http://creativecommons.org/ns#"
   xmlns:rdf="http://www.w3.org/1999/02/22-rdf-syntax-ns#"
   xmlns:svg="http://www.w3.org/2000/svg"
   xmlns="http://www.w3.org/2000/svg"
   viewBox="0 0 6666.6665 6666.6665"
   height="6666.6665"
   width="6666.6665"
   xml:space="preserve"
   id="svg2"
   version="1.1"><metadata
     id="metadata8"><rdf:RDF><cc:Work
         rdf:about=""><dc:format>image/svg+xml</dc:format><dc:type
           rdf:resource="http://purl.org/dc/dcmitype/StillImage" /></cc:Work></rdf:RDF></metadata><defs
     id="defs6" /><g
     transform="matrix(1.3333333,0,0,-1.3333333,0,6666.6667)"
     id="g10"><g
       transform="scale(0.340832)"
       id="g12"><path
         id="path14"
         style="fill:#4cba99;fill-opacity:1;fill-rule:nonzero;stroke:none"
         d="M 0,0 H 14670 V 14670 H 0 Z" /><path
         id="path16"
         style="fill:#f7ba82;fill-opacity:1;fill-rule:nonzero;stroke:none"
         d="m 13894.1,3736.71 -1613.7,-1224.35 -478.9,688.84 c 0,0 -1788.7,-239.32 -2873.87,7.63 0,0 -177.09,0.09 -1753.7,898.15 0,0 -299.36,199.61 -1327.14,1227.38 0,0 109.76,725.96 1150.01,336.8 0,0 729.51,-1122.17 2012.63,-1197.48 0,0 1466.07,11.91 1726.87,291.96 0,0 -174.7,177.04 -449.2,187.01 -274.4,9.98 -908.36,-27.99 -1268.25,177.95 0,0 -410.9,276.91 -161.6,598.71 26.61,34.39 51.31,50.49 112.05,51.52 l 1928.4,-20.39 1487.4,-153.89 c 163,-6.63 514.4,-210.19 625,-330.07 221.7,-240.39 517.5,-581.61 884,-1539.77" /><path
         id="path18"
         style="fill:#e9b07a;fill-opacity:1;fill-rule:nonzero;stroke:none"
         d="m 9307.73,4473.68 c 0,0 -1380.06,-167.71 -2310.93,1197.48 0,0 30.19,108.64 346.77,0 0,0 763.1,-1005.78 1964.16,-1197.48" /><path
         id="path20"
         style="fill:#dea776;fill-opacity:1;fill-rule:nonzero;stroke:none"
         d="m 9472.18,4488.52 c 0,0 -1102.71,-240.18 -2279.54,1211.69 0,0 72.47,102.98 321.36,-19.02 0,0 757.12,-1000.96 1958.18,-1192.67" /><path
         id="path22"
         style="fill:#cf9e6d;fill-opacity:1;fill-rule:nonzero;stroke:none"
         d="m 9824.64,4519.54 c 0,0 -155.47,-57.22 -516.91,-18.96 -29.22,3.08 -150.75,25.53 -178.97,33.74 -197.63,57.66 -1020.94,319.63 -1745.79,1181.79 0,0 70.12,121.32 294.87,-37.44 0,0 567.7,-915.91 2146.8,-1159.13" /><path
         id="path24"
         style="fill:#fefefe;fill-opacity:1;fill-rule:nonzero;stroke:none"
         d="m 12144.1,2270.48 2115.5,1528.9 c 16,11.57 19.6,33.92 8,49.94 l -274.2,379.39 c -82,113.49 -240.5,138.99 -354,56.99 L 11876.9,3011.9 c -113.5,-82.04 -139,-240.5 -57,-353.99 l 274.3,-379.39 c 11.5,-16.02 33.9,-19.6 49.9,-8.04" /><path
         id="path26"
         style="fill:#f3f3f3;fill-opacity:1;fill-rule:nonzero;stroke:none"
         d="M 14670,3762.21 V 0 h -1399.5 l -1193.7,1677.93 c -163.3,229.64 -114.8,547.51 109.6,717.95 l 1826.5,1387.22 c 200.7,152.45 475.1,136.93 657.1,-20.89" /><path
         id="path28"
         style="fill:#e9e8e7;fill-opacity:1;fill-rule:nonzero;stroke:none"
         d="m 14670,0 h -1399.2 l -1193.5,1677.72 c -163.4,229.64 -114.8,547.51 109.6,717.98 l 964.3,732.39 L 14670,984.328 V 0" /><path
         id="path30"
         style="fill:#be8d6b;fill-opacity:1;fill-rule:nonzero;stroke:none"
         d="M 6364.17,7773.78 C 6349,7838.83 5044.34,9259.97 4582.88,11295.8 L 7359.91,9859.56 6364.17,7773.78" /><path
         id="path32"
         style="fill:#f6c792;fill-opacity:1;fill-rule:nonzero;stroke:none"
         d="m 6187.69,11551.6 1301.52,-1062.1 c 0,0 96.18,-87.7 181.91,-214.7 89.34,-132.3 127.86,-292.45 109.5,-451.03 L 7538.45,7730.27 6824.93,8627.69 6996,9665.51 c 0,0 21.34,140.3 -261.91,262.79 l -722.85,380.4 c -253.82,133.6 -566.44,92.4 -772.26,-107.4 -37.2,-36.1 -69.86,-76.3 -94.71,-120.8 l -666.98,1302.6 918.75,275.7 c 0,0 454.77,162.6 791.65,-107.2" /><path
         id="path34"
         style="fill:#f3f3f3;fill-opacity:1;fill-rule:nonzero;stroke:none"
         d="m 5123.14,7276.17 460,2401.95 c 44.57,232.7 271.42,386.58 504.15,342.08 l 3769.22,-721.86 c 232.69,-44.56 386.59,-271.42 342.09,-504.14 L 9738.56,6392.28 C 9694,6159.58 9467.14,6005.63 9234.44,6050.2 l -3769.22,721.85 c -232.7,44.57 -386.64,271.43 -342.08,504.12" /><path
         id="path36"
         style="fill:#ec7147;fill-opacity:1;fill-rule:nonzero;stroke:none"
         d="m 9303.1,8904.63 c -33.01,-166.62 -64.55,-333.56 -96.59,-500.39 -18.25,-95.03 -39.2,-189.65 -53.6,-285.28 -18.11,-120.29 54.77,-233.51 170.14,-273.24 109.09,-37.58 238.21,8.19 300.76,103.6 10.6,32.22 24.68,63.73 31.19,96.73 50.14,254.09 99.23,508.38 147.76,762.76 23.68,124.1 -42.9,244.99 -156.35,287.38 -152.69,57.04 -311.51,-30.95 -343.31,-191.56" /><path
         id="path38"
         style="fill:#fefefe;fill-opacity:1;fill-rule:nonzero;stroke:none"
         d="m 9682.11,8425.51 c -9.3,-48.35 -18.48,-96.03 -27.64,-143.68 -14.93,-77.87 -28.86,-155.97 -45.03,-233.6 -26.44,-126.72 -145.82,-199.55 -266.03,-163.6 -96.97,28.98 -162.54,125.75 -145.91,225.48 21.86,130.97 49.06,261.03 74.53,394.56 137.63,-26.55 272.74,-52.64 410.08,-79.16" /><path
         id="path40"
         style="fill:#ec7147;fill-opacity:1;fill-rule:nonzero;stroke:none"
         d="m 9001.45,7342.01 c -33,-166.62 -64.52,-333.56 -96.56,-500.39 -18.24,-95.03 -39.19,-189.66 -53.6,-285.27 -18.13,-120.3 54.75,-233.49 170.12,-273.25 109.08,-37.58 238.23,8.19 300.79,103.63 10.56,32.19 24.64,63.7 31.16,96.71 50.14,254.08 99.23,508.37 147.78,762.78 23.68,124.1 -42.92,244.96 -156.38,287.35 -152.65,57.04 -311.5,-30.95 -343.31,-191.56" /><path
         id="path42"
         style="fill:#fefefe;fill-opacity:1;fill-rule:nonzero;stroke:none"
         d="m 9380.5,6862.89 c -9.33,-48.35 -18.49,-96 -27.64,-143.68 -14.97,-77.87 -28.87,-155.97 -45.07,-233.6 -26.43,-126.72 -145.82,-199.54 -266.02,-163.6 -96.94,28.99 -162.52,125.75 -145.88,225.47 21.83,130.98 49.02,261.04 74.52,394.57 137.61,-26.55 272.72,-52.64 410.09,-79.16" /><path
         id="path44"
         style="fill:#ec7147;fill-opacity:1;fill-rule:nonzero;stroke:none"
         d="m 8196.34,7518.67 c -33.04,-166.62 -64.55,-333.57 -96.59,-500.4 -18.25,-95 -39.2,-189.65 -53.61,-285.27 -18.1,-120.29 54.78,-233.48 170.15,-273.24 109.08,-37.58 238.21,8.19 300.76,103.63 10.59,32.18 24.68,63.7 31.19,96.7 50.14,254.09 99.23,508.37 147.76,762.79 23.67,124.1 -42.9,244.95 -156.36,287.35 -152.68,57.07 -311.5,-30.95 -343.3,-191.56" /><path
         id="path46"
         style="fill:#fefefe;fill-opacity:1;fill-rule:nonzero;stroke:none"
         d="m 8575.35,7039.57 c -9.3,-48.37 -18.49,-96.02 -27.64,-143.7 -14.93,-77.87 -28.87,-155.97 -45.04,-233.61 -26.43,-126.72 -145.81,-199.54 -266.02,-163.6 -96.97,28.99 -162.54,125.75 -145.91,225.51 21.86,130.94 49.06,261.01 74.52,394.54 137.64,-26.56 272.75,-52.64 410.09,-79.14" /><path
         id="path48"
         style="fill:#ec7147;fill-opacity:1;fill-rule:nonzero;stroke:none"
         d="m 8479.35,9060.13 c -33.01,-166.65 -64.52,-333.56 -96.56,-500.39 -18.25,-95.03 -39.2,-189.68 -53.6,-285.3 -18.14,-120.27 54.77,-233.49 170.11,-273.24 109.09,-37.59 238.24,8.18 300.79,103.62 10.57,32.19 24.65,63.7 31.16,96.71 50.14,254.08 99.23,508.37 147.79,762.78 23.67,124.11 -42.93,244.96 -156.38,287.35 -152.66,57.07 -311.51,-30.95 -343.31,-191.53" /><path
         id="path50"
         style="fill:#fefefe;fill-opacity:1;fill-rule:nonzero;stroke:none"
         d="m 8858.39,8581.01 c -9.3,-48.38 -18.48,-96.03 -27.64,-143.68 -14.96,-77.89 -28.87,-156 -45.06,-233.6 -26.44,-126.72 -145.82,-199.57 -266.03,-163.6 -96.94,28.99 -162.51,125.75 -145.87,225.48 21.82,130.94 49.02,261 74.52,394.53 137.6,-26.55 272.71,-52.64 410.08,-79.13" /><path
         id="path52"
         style="fill:#ec7147;fill-opacity:1;fill-rule:nonzero;stroke:none"
         d="m 7384.44,7688.28 c -33.01,-166.62 -64.55,-333.57 -96.59,-500.39 -18.25,-95 -39.17,-189.66 -53.57,-285.27 -18.14,-120.27 54.74,-233.49 170.11,-273.24 109.09,-37.59 238.24,8.18 300.79,103.62 10.57,32.19 24.65,63.7 31.16,96.71 50.14,254.08 99.23,508.37 147.79,762.78 23.67,124.11 -42.93,244.96 -156.38,287.35 -152.69,57.07 -311.51,-30.95 -343.31,-191.56" /><path
         id="path54"
         style="fill:#fefefe;fill-opacity:1;fill-rule:nonzero;stroke:none"
         d="m 7763.45,7209.19 c -9.3,-48.38 -18.48,-96.03 -27.61,-143.71 -14.96,-77.87 -28.87,-155.97 -45.06,-233.6 -26.44,-126.72 -145.82,-199.54 -266.03,-163.6 -96.94,28.99 -162.54,125.75 -145.87,225.51 21.82,130.94 49.02,261 74.49,394.53 137.63,-26.55 272.74,-52.64 410.08,-79.13" /><path
         id="path56"
         style="fill:#ec7147;fill-opacity:1;fill-rule:nonzero;stroke:none"
         d="m 6601.09,7801.71 c -33.01,-166.62 -64.55,-333.57 -96.59,-500.39 -18.25,-95 -39.17,-189.66 -53.57,-285.27 -18.13,-120.27 54.75,-233.49 170.11,-273.25 109.09,-37.58 238.24,8.19 300.8,103.63 10.56,32.19 24.64,63.7 31.15,96.71 50.15,254.08 99.23,508.37 147.76,762.78 23.68,124.1 -42.89,244.96 -156.35,287.35 -152.69,57.07 -311.51,-30.95 -343.31,-191.56" /><path
         id="path58"
         style="fill:#fefefe;fill-opacity:1;fill-rule:nonzero;stroke:none"
         d="m 6980.11,7322.62 c -9.31,-48.38 -18.49,-96.03 -27.65,-143.71 -14.93,-77.87 -28.87,-155.97 -45.03,-233.61 -26.44,-126.71 -145.82,-199.53 -266.03,-163.59 -96.94,28.99 -162.54,125.75 -145.88,225.5 21.83,130.95 49.03,261.01 74.5,394.54 137.63,-26.55 272.74,-52.64 410.09,-79.13" /><path
         id="path60"
         style="fill:#ec7147;fill-opacity:1;fill-rule:nonzero;stroke:none"
         d="m 5789.19,7957.21 c -33,-166.65 -64.51,-333.56 -96.55,-500.39 -18.25,-95.03 -39.2,-189.68 -53.61,-285.27 -18.13,-120.3 54.78,-233.52 170.11,-273.25 109.09,-37.58 238.24,8.19 300.8,103.6 10.56,32.22 24.64,63.7 31.16,96.71 50.14,254.08 99.22,508.37 147.78,762.78 23.68,124.11 -42.92,244.96 -156.38,287.36 -152.66,57.06 -311.5,-30.96 -343.31,-191.54" /><path
         id="path62"
         style="fill:#fefefe;fill-opacity:1;fill-rule:nonzero;stroke:none"
         d="m 6168.24,7478.09 c -9.33,-48.38 -18.49,-96.03 -27.64,-143.68 -14.96,-77.89 -28.87,-156 -45.07,-233.6 -26.43,-126.72 -145.82,-199.54 -266.02,-163.6 -96.94,28.99 -162.52,125.75 -145.88,225.48 21.83,130.94 49.03,261.01 74.52,394.53 137.6,-26.55 272.72,-52.61 410.09,-79.13" /><path
         id="path64"
         style="fill:#ec7147;fill-opacity:1;fill-rule:nonzero;stroke:none"
         d="m 6086.64,9510.39 c -33.01,-166.62 -64.51,-333.57 -96.56,-500.4 -18.24,-95.03 -39.19,-189.65 -53.6,-285.27 -18.13,-120.29 54.78,-233.52 170.11,-273.24 109.12,-37.59 238.25,8.18 300.8,103.59 10.56,32.22 24.67,63.73 31.16,96.71 50.14,254.11 99.22,508.4 147.78,762.78 23.68,124.11 -42.92,244.96 -156.38,287.39 -152.66,57.03 -311.47,-30.96 -343.31,-191.56" /><path
         id="path66"
         style="fill:#fefefe;fill-opacity:1;fill-rule:nonzero;stroke:none"
         d="m 6465.68,9031.26 c -9.3,-48.35 -18.48,-96.03 -27.63,-143.67 -14.97,-77.87 -28.87,-155.98 -45.07,-233.61 -26.43,-126.72 -145.82,-199.54 -266.02,-163.6 -96.94,28.99 -162.52,125.75 -145.88,225.48 21.85,130.97 49.03,261.03 74.52,394.56 137.61,-26.55 272.72,-52.63 410.08,-79.16" /><path
         id="path68"
         style="fill:#ec7147;fill-opacity:1;fill-rule:nonzero;stroke:none"
         d="m 6898.54,9354.91 c -33.01,-166.65 -64.52,-333.56 -96.56,-500.39 -18.28,-95.03 -39.2,-189.68 -53.6,-285.3 -18.14,-120.27 54.75,-233.49 170.11,-273.25 109.08,-37.58 238.24,8.19 300.8,103.63 10.55,32.19 24.64,63.7 31.15,96.71 50.15,254.08 99.23,508.37 147.79,762.78 23.68,124.11 -42.93,244.96 -156.38,287.36 -152.69,57.06 -311.51,-30.96 -343.31,-191.54" /><path
         id="path70"
         style="fill:#fefefe;fill-opacity:1;fill-rule:nonzero;stroke:none"
         d="m 7277.58,8875.79 c -9.33,-48.38 -18.51,-96.03 -27.63,-143.71 -14.97,-77.87 -28.88,-155.97 -45.07,-233.57 -26.44,-126.72 -145.82,-199.55 -266.03,-163.6 -96.94,28.98 -162.51,125.75 -145.88,225.48 21.83,130.94 49.03,261 74.5,394.53 137.63,-26.55 272.74,-52.63 410.11,-79.13" /><path
         id="path72"
         style="fill:#ec7147;fill-opacity:1;fill-rule:nonzero;stroke:none"
         d="m 7700.37,9187.68 c -33.01,-166.63 -64.52,-333.57 -96.56,-500.4 -18.25,-95.03 -39.2,-189.65 -53.6,-285.27 -18.13,-120.3 54.78,-233.52 170.11,-273.24 109.12,-37.59 238.24,8.18 300.8,103.59 10.59,32.22 24.67,63.73 31.18,96.74 50.15,254.08 99.23,508.37 147.76,762.75 23.68,124.11 -42.9,244.99 -156.35,287.38 -152.69,57.04 -311.51,-30.95 -343.34,-191.55" /><path
         id="path74"
         style="fill:#fefefe;fill-opacity:1;fill-rule:nonzero;stroke:none"
         d="m 8079.41,8708.55 c -9.3,-48.35 -18.48,-96.03 -27.63,-143.67 -14.94,-77.87 -28.87,-155.98 -45.07,-233.61 -26.41,-126.72 -145.79,-199.54 -266,-163.6 -96.96,28.99 -162.54,125.75 -145.91,225.48 21.86,130.97 49.06,261.04 74.53,394.56 137.63,-26.55 272.74,-52.64 410.08,-79.16" /><path
         id="path76"
         style="fill:#f6c792;fill-opacity:1;fill-rule:nonzero;stroke:none"
         d="m 5394.01,9352.01 c 73.35,-83.5 387.64,-392.22 745.3,-547.81 l 726.16,-333.42 c 0,0 239.07,-122.7 233.69,-397.23 -0.26,-12.68 -1.87,-25.29 -4.66,-37.67 -16.16,-71.48 -88.14,-315.74 -331.48,-409.83 -27.26,-10.53 -56.6,-14.7 -85.7,-12.14 -65.58,5.8 -198.46,33.82 -425.93,145.99 L 4268,8649.38 c 0,0 -489.54,246.69 -773.46,509.57 -4.37,4.02 -8.89,7.86 -13.58,11.47 -45.98,35.33 -307.28,238.13 -412.41,365.31 -17.13,20.75 -38.34,37.71 -62.4,49.74 l -293.13,146.55 c -4.96,2.46 -6.97,8.48 -4.51,13.44 l 776.03,1563.44 172.37,-85.5 c 41.37,-20.6 88.78,-25.5 133.52,-14 l 686.06,176.7 620.16,-1211.5 c 14.23,-27.8 33.42,-62.4 47.24,-90.4 12.35,-25 -248.36,-164.9 250.12,-732.19" /><path
         id="path78"
         style="fill:#feeddb;fill-opacity:1;fill-rule:nonzero;stroke:none"
         d="m 6314.26,7973.23 203.97,391.81 c 17.43,33.48 58.95,46.09 92.04,27.99 l 211.98,-115.95 c 0,0 162.72,-102.1 77.9,-330.52 0,0 -78.19,-188.68 -278.49,-187.33 0,0 -80.13,6.4 -209.58,87.64 l -68.86,35.41 c -33.18,17.04 -46.18,57.86 -28.96,90.95" /><path
         id="path80"
         style="fill:#fefefe;fill-opacity:1;fill-rule:nonzero;stroke:none"
         d="M 2842.54,11762.7 2438.8,9183.95 c -3.05,-19.54 10.29,-37.82 29.81,-40.87 l 462.48,-72.41 c 138.34,-21.65 268.03,72.91 289.68,211.24 l 336.38,2148.49 c 21.65,138.3 -72.94,268 -211.27,289.7 l -462.47,72.4 c -19.52,3 -37.81,-10.3 -40.87,-29.8" /><path
         id="path82"
         style="fill:#e9e8e7;fill-opacity:1;fill-rule:nonzero;stroke:none"
         d="M 2910.47,11855 2692.86,10465.1 2475.24,9075.21 C 2457.23,8960.26 2349.46,8881.66 2234.5,8899.64 L 0,9250.9 v 3280.2 l 2732.93,-435 1.97,-0.3 c 114.95,-18 193.55,-125.8 175.57,-240.8" /><path
         id="path84"
         style="fill:#f3f3f3;fill-opacity:1;fill-rule:nonzero;stroke:none"
         d="M 2910.15,11853.1 2692.86,10465.1 0,10886.7 v 1644.4 l 2732.93,-435 c 116.04,-18.2 195.38,-127 177.22,-243" /></g></g></svg>