<?xml version="1.0" encoding="UTF-8"?>
<!DOCTYPE svg PUBLIC "-//W3C//DTD SVG 1.1//EN" "http://www.w3.org/Graphics/SVG/1.1/DTD/svg11.dtd">
<!-- Creator: CorelDRAW X6 -->
<svg xmlns="http://www.w3.org/2000/svg" xml:space="preserve" width="6.25in" height="6.25in" version="1.1" style="shape-rendering:geometricPrecision; text-rendering:geometricPrecision; image-rendering:optimizeQuality; fill-rule:evenodd; clip-rule:evenodd"
viewBox="0 0 6250 6250"
 xmlns:xlink="http://www.w3.org/1999/xlink">
 <defs>
  <style type="text/css">
   <![CDATA[
    .fil25 {fill:#2D5879;fill-rule:nonzero}
    .fil38 {fill:#333333;fill-rule:nonzero}
    .fil26 {fill:#366887;fill-rule:nonzero}
    .fil47 {fill:#386F81;fill-rule:nonzero}
    .fil46 {fill:#4A91B4;fill-rule:nonzero}
    .fil18 {fill:#4B9668;fill-rule:nonzero}
    .fil37 {fill:#4D4D4D;fill-rule:nonzero}
    .fil49 {fill:#509AB9;fill-rule:nonzero}
    .fil20 {fill:#56D68E;fill-rule:nonzero}
    .fil6 {fill:#5B4B3F;fill-rule:nonzero}
    .fil8 {fill:#5D4C40;fill-rule:nonzero}
    .fil19 {fill:#5DBB83;fill-rule:nonzero}
    .fil4 {fill:#625043;fill-rule:nonzero}
    .fil51 {fill:#625243;fill-rule:nonzero}
    .fil45 {fill:#663C0D;fill-rule:nonzero}
    .fil7 {fill:#685648;fill-rule:nonzero}
    .fil3 {fill:#746754;fill-rule:nonzero}
    .fil44 {fill:#756455;fill-rule:nonzero}
    .fil17 {fill:#799076;fill-rule:nonzero}
    .fil15 {fill:#79A175;fill-rule:nonzero}
    .fil43 {fill:#7B511E;fill-rule:nonzero}
    .fil35 {fill:gray;fill-rule:nonzero}
    .fil16 {fill:#87BC84;fill-rule:nonzero}
    .fil50 {fill:#8E7E6B;fill-rule:nonzero}
    .fil5 {fill:#8F7C66;fill-rule:nonzero}
    .fil10 {fill:#904993;fill-rule:nonzero}
    .fil39 {fill:#926733;fill-rule:nonzero}
    .fil23 {fill:#999999;fill-rule:nonzero}
    .fil42 {fill:#9C8872;fill-rule:nonzero}
    .fil2 {fill:#9D5C4A;fill-rule:nonzero}
    .fil36 {fill:#AC814C;fill-rule:nonzero}
    .fil24 {fill:#BEAD9D;fill-rule:nonzero}
    .fil41 {fill:#CAB596;fill-rule:nonzero}
    .fil13 {fill:#CB3369;fill-rule:nonzero}
    .fil52 {fill:#CBAA82;fill-rule:nonzero}
    .fil11 {fill:#CC7F82;fill-rule:nonzero}
    .fil40 {fill:#CDA166;fill-rule:nonzero}
    .fil33 {fill:#CF452F;fill-rule:nonzero}
    .fil29 {fill:#D8446C;fill-rule:nonzero}
    .fil21 {fill:#E3D0BA;fill-rule:nonzero}
    .fil12 {fill:#E7355C;fill-rule:nonzero}
    .fil34 {fill:#EF9AC3;fill-rule:nonzero}
    .fil31 {fill:#F5E493;fill-rule:nonzero}
    .fil14 {fill:#F68B7F;fill-rule:nonzero}
    .fil30 {fill:#F7EA91;fill-rule:nonzero}
    .fil32 {fill:#FBB03B;fill-rule:nonzero}
    .fil27 {fill:#FCEE8C;fill-rule:nonzero}
    .fil9 {fill:#FDA2A9;fill-rule:nonzero}
    .fil1 {fill:#FFBF83;fill-rule:nonzero}
    .fil48 {fill:#FFCEB0;fill-rule:nonzero}
    .fil22 {fill:#FFEDD6;fill-rule:nonzero}
    .fil28 {fill:#FFF1C7;fill-rule:nonzero}
    .fil0 {fill:white;fill-rule:nonzero}
   ]]>
  </style>
 </defs>
 <g id="Layer_x0020_1">
  <metadata id="CorelCorpID_0Corel-Layer"/>
  <polygon class="fil0" points="0,6250 6250,6250 6250,0 0,0 "/>
  <path class="fil1" d="M2061 1855l263 -68 89 0 0 985c0,0 -168,-11 -220,-36 -24,-11 -83,-61 -83,-61l-6 -519 -43 -300z"/>
  <polygon class="fil1" points="2061,1855 2101,2135 2029,2196 1855,2094 "/>
  <polygon class="fil2" points="2413,1722 2413,1788 2315,1787 2283,1722 "/>
  <polygon class="fil2" points="2283,1722 2246,1817 2283,1933 2367,1828 "/>
  <path class="fil1" d="M2765 1855l-263 -68 -89 0 0 985c0,0 167,-3 218,-27 24,-11 85,-70 85,-70l6 -519 43 -300z"/>
  <polygon class="fil1" points="2765,1855 2725,2135 2797,2196 2971,2094 "/>
  <polygon class="fil2" points="2413,1722 2413,1788 2511,1787 2543,1722 "/>
  <polygon class="fil2" points="2543,1722 2580,1817 2543,1933 2459,1828 "/>
  <polygon class="fil2" points="2367,1828 2413,1855 2413,1888 2348,1851 "/>
  <polygon class="fil2" points="2413,1855 2459,1828 2478,1851 2413,1888 "/>
  <polygon class="fil2" points="2396,1879 2396,2771 2413,2773 2413,1888 "/>
  <path class="fil2" d="M2452 1929c-2,0 -4,-2 -4,-4 0,-2 2,-4 4,-4 2,0 4,2 4,4 0,2 -2,4 -4,4zm-14 0c-2,0 -4,-2 -4,-4 0,-2 2,-4 4,-4 2,0 4,2 4,4 0,2 -2,4 -4,4zm7 -21c-11,0 -19,8 -19,18 0,10 9,18 19,18 11,0 19,-8 19,-18 0,-10 -9,-18 -19,-18z"/>
  <path class="fil2" d="M2452 2096c-2,0 -4,-2 -4,-4 0,-2 2,-4 4,-4 2,0 4,2 4,4 0,2 -2,4 -4,4zm-14 0c-2,0 -4,-2 -4,-4 0,-2 2,-4 4,-4 2,0 4,2 4,4 0,2 -2,4 -4,4zm7 -21c-11,0 -19,8 -19,18 0,10 9,18 19,18 11,0 19,-8 19,-18 0,-10 -9,-18 -19,-18z"/>
  <path class="fil2" d="M2452 2262c-2,0 -4,-2 -4,-4 0,-2 2,-4 4,-4 2,0 4,2 4,4 0,2 -2,4 -4,4zm-14 0c-2,0 -4,-2 -4,-4 0,-2 2,-4 4,-4 2,0 4,2 4,4 0,2 -2,4 -4,4zm7 -21c-11,0 -19,8 -19,18 0,10 9,18 19,18 11,0 19,-8 19,-18 0,-10 -9,-18 -19,-18z"/>
  <path class="fil2" d="M2452 2428c-2,0 -4,-2 -4,-4 0,-2 2,-4 4,-4 2,0 4,2 4,4 0,2 -2,4 -4,4zm-14 0c-2,0 -4,-2 -4,-4 0,-2 2,-4 4,-4 2,0 4,2 4,4 0,2 -2,4 -4,4zm7 -21c-11,0 -19,8 -19,18 0,10 9,18 19,18 11,0 19,-8 19,-18 0,-10 -9,-18 -19,-18z"/>
  <path class="fil2" d="M2452 2594c-2,0 -4,-2 -4,-4 0,-2 2,-4 4,-4 2,0 4,2 4,4 0,2 -2,4 -4,4zm-14 0c-2,0 -4,-2 -4,-4 0,-2 2,-4 4,-4 2,0 4,2 4,4 0,2 -2,4 -4,4zm7 -21c-11,0 -19,8 -19,18 0,10 9,18 19,18 11,0 19,-8 19,-18 0,-10 -9,-18 -19,-18z"/>
  <polygon class="fil2" points="2589,2033 2500,2033 2508,2166 2589,2186 2668,2169 2679,2033 "/>
  <polygon class="fil1" points="2676,2065 2502,2065 2501,2051 2677,2051 "/>
  <path class="fil3" d="M801 1741l266 35 0 319 -32 644c0,0 -129,48 -286,0 0,0 20,-855 52,-998z"/>
  <path class="fil4" d="M801 1741c0,0 -5,27 -7,46l274 38 0 -50 -266 -35z"/>
  <polygon class="fil5" points="908,1755 934,1758 934,1825 908,1825 "/>
  <path class="fil3" d="M1334 1741l-266 35 0 319 32 644c0,0 129,48 286,0 0,0 -20,-855 -52,-998z"/>
  <path class="fil6" d="M1067 1735c-53,-1 -266,6 -266,6l266 35 266 -35c0,0 -213,-7 -266,-6z"/>
  <path class="fil7" d="M1072 1775l43 -3c0,0 1,176 0,201 0,0 -17,28 -43,35l0 -232z"/>
  <path class="fil8" d="M1334 1741c0,0 5,27 7,46 0,0 -213,49 -330,30l2 -49c132,7 321,-28 321,-28z"/>
  <polygon class="fil5" points="1226,1755 1201,1758 1201,1825 1226,1825 "/>
  <polygon class="fil5" points="890,2760 908,1990 908,2760 "/>
  <polygon class="fil5" points="1254,2760 1235,1990 1235,2760 "/>
  <path class="fil5" d="M1037 1801c-2,0 -4,-1 -4,-3 0,-2 2,-3 4,-3 2,0 4,1 4,3 0,2 -2,3 -4,3zm-13 0c-2,0 -4,-1 -4,-3 0,-2 2,-3 4,-3 2,0 4,1 4,3 0,2 -2,3 -4,3zm7 -18c-10,0 -19,7 -19,15 0,8 8,15 19,15 10,0 19,-7 19,-15 0,-8 -8,-15 -19,-15z"/>
  <path class="fil9" d="M3584 2165c0,0 -46,-360 -90,-440l61 -22c0,0 71,101 208,99l0 363 -179 0z"/>
  <path class="fil9" d="M3584 2165c0,0 -160,0 -143,599 0,0 95,58 206,0 0,0 78,33 116,26l0 -625 -179 0z"/>
  <path class="fil10" d="M3494 1725c0,0 -119,-14 -104,94l19 45c0,0 79,-35 125,0 0,0 37,-101 -41,-139z"/>
  <path class="fil9" d="M3941 2165c0,0 46,-360 90,-440l-61 -22c0,0 -71,101 -208,99l0 363 179 0z"/>
  <path class="fil9" d="M3941 2165c0,0 160,0 143,599 0,0 -95,58 -206,0 0,0 -78,33 -115,26l0 -625 179 0z"/>
  <path class="fil10" d="M4031 1725c0,0 119,-14 104,94l-19 45c0,0 -79,-35 -125,0 0,0 -37,-101 41,-139z"/>
  <polygon class="fil10" points="3941,2165 3584,2165 3578,2124 3947,2124 "/>
  <path class="fil11" d="M3611 2779c0,0 -20,-380 17,-484 0,0 39,346 27,472 0,0 -7,-10 -44,12z"/>
  <path class="fil11" d="M3914 2779c0,0 20,-380 -17,-484 0,0 -39,346 -27,472 0,0 7,-10 44,12z"/>
  <path class="fil1" d="M3762 3700c-5,0 -8,-4 -8,-8 0,-2 0,-38 0,-51 1,-16 14,-30 25,-43 4,-5 8,-9 11,-13 7,-11 9,-22 7,-33 -3,-13 -12,-24 -20,-29 -13,-8 -31,-8 -45,-1 -9,5 -17,12 -26,19 -5,5 -10,9 -16,14 -4,3 -9,2 -12,-2 -3,-4 -2,-9 2,-12 5,-4 10,-8 15,-13 9,-8 18,-16 30,-22 20,-10 44,-9 62,2 10,6 23,20 27,40 3,16 0,31 -9,46 -3,4 -7,9 -12,15 -9,10 -20,23 -21,32 -1,12 0,50 0,50 0,5 -4,9 -8,9 0,0 0,0 0,0z"/>
  <polygon class="fil1" points="3231,4083 4302,4083 4302,4057 3231,4057 "/>
  <path class="fil2" d="M3762 3686l0 109 544 299c0,0 27,17 22,-13 -7,-40 -18,-51 -112,-102 -63,-34 -225,-110 -256,-131 -33,-22 -33,-22 -104,-123 -15,-21 -52,-40 -93,-40z"/>
  <path class="fil2" d="M3762 3686l0 109 -544 299c0,0 -27,17 -22,-13 7,-40 18,-51 112,-102 63,-34 225,-110 256,-131 33,-22 33,-22 104,-123 15,-21 52,-40 93,-40z"/>
  <polygon class="fil12" points="5078,3995 5180,3995 5188,4055 5065,4055 "/>
  <polygon class="fil12" points="4690,3995 4775,3995 4783,4055 4712,4055 "/>
  <path class="fil13" d="M4736 3452l40 0c0,0 -18,220 7,542l-37 0c0,0 -20,-300 -10,-542z"/>
  <polygon class="fil12" points="4808,3765 4842,3765 4776,3452 4736,3452 4802,3765 "/>
  <path class="fil13" d="M5507 3452l-40 0c0,0 18,220 -7,542l37 0c0,0 20,-300 10,-542z"/>
  <polygon class="fil12" points="5435,3765 5402,3765 5467,3452 5507,3452 5442,3765 "/>
  <polygon class="fil12" points="5552,3995 5466,3995 5459,4055 5530,4055 "/>
  <path class="fil14" d="M4736 3943c0,0 -8,-115 74,-199 0,0 329,103 287,283 -5,22 -22,44 -36,61 -32,38 -59,59 -120,59 -20,0 -45,-1 -64,-8 -29,-12 -59,-30 -80,-54 -20,-23 -36,-46 -47,-75 -8,-22 -13,-44 -15,-67z"/>
  <path class="fil14" d="M5510 3943c0,0 8,-115 -74,-199 0,0 -329,103 -287,283 5,22 22,44 36,61 32,38 59,59 120,59 20,0 45,-1 64,-8 29,-12 59,-30 80,-54 20,-23 36,-46 47,-75 8,-22 13,-44 15,-67z"/>
  <path class="fil15" d="M3477 522c0,0 130,92 204,189 0,0 84,129 101,150 0,0 61,134 191,77 0,0 -70,87 -169,17 0,0 -105,-42 -114,-143 0,0 -204,-227 -213,-291z"/>
  <path class="fil16" d="M3487 513c0,0 -151,88 -86,285 0,0 30,95 35,360l51 0c0,0 -17,-260 -11,-310 0,0 13,-58 61,-13 0,0 86,79 141,178 0,0 44,143 114,154 0,0 216,25 309,-33 0,0 80,-147 8,-151 0,0 -124,-39 -140,-40 0,0 -98,101 -208,-22 0,0 -113,-193 -124,-205 0,0 -46,-93 -152,-204z"/>
  <path class="fil17" d="M3720 1093c0,0 240,43 412,-19l-21 51c0,0 -55,52 -307,42 0,0 -40,-2 -83,-74z"/>
  <path class="fil17" d="M3432 1117c0,0 16,12 49,-2l5 52 -51 2 -3 -52z"/>
  <path class="fil18" d="M4835 2066c-2,10 -4,49 10,51 12,2 33,-20 38,-29 12,-19 18,-45 27,-66 22,-52 82,-128 140,-143 0,0 47,-13 71,-8l0 -32c0,-6 -74,11 -79,12 -78,27 -133,96 -178,161 -11,15 -25,33 -29,52z"/>
  <path class="fil19" d="M5532 2483c-52,-332 -125,-374 -125,-374 -35,-16 -107,83 -107,83 -15,22 -62,17 -85,16 -46,-2 -87,-13 -133,-5 -33,5 -70,9 -104,4 -12,-2 -29,-4 -37,-15 0,0 -72,-100 -107,-83 0,0 -73,42 -125,374 0,0 -42,168 149,173l525 0c191,-5 149,-173 149,-173z"/>
  <path class="fil18" d="M5407 2066c2,10 4,49 -10,51 -12,2 -33,-20 -38,-29 -12,-19 -18,-45 -27,-66 -22,-52 -82,-128 -140,-143 0,0 -47,-13 -71,-8l0 -32c0,-6 74,11 79,12 78,27 133,96 178,161 11,15 25,33 29,52z"/>
  <path class="fil20" d="M4961 2204c0,0 46,12 97,3 0,0 76,-14 124,-1 0,0 81,9 98,0 0,0 -45,201 -131,224l-69 0c0,0 -96,-55 -119,-225z"/>
  <path class="fil21" d="M5100 2406c0,0 -37,-48 -80,-65 0,0 -87,75 0,192 0,0 53,-22 86,-67l-7 -60z"/>
  <path class="fil21" d="M5141 2406c0,0 37,-48 80,-65 0,0 87,75 0,192 0,0 -53,-22 -86,-67l7 -60z"/>
  <path class="fil22" d="M5141 2403c0,0 55,-51 124,-47 0,0 20,58 16,96l-9 65c0,0 -117,-24 -131,-50l0 -64z"/>
  <path class="fil23" d="M5256 2401c0,0 -69,-1 -102,27 0,0 -6,5 0,15 0,0 7,10 9,-6 0,0 2,-19 42,-25 0,0 86,-13 51,-11z"/>
  <path class="fil24" d="M5098 2404c0,0 22,-6 44,0l0 63c0,0 -19,9 -44,0l0 -63z"/>
  <path class="fil22" d="M5100 2403c0,0 -55,-51 -124,-47 0,0 -20,58 -16,96l9 65c0,0 117,-24 131,-50l0 -64z"/>
  <path class="fil23" d="M4986 2401c0,0 68,-1 102,27 0,0 6,5 0,15 0,0 -7,10 -9,-6 0,0 -2,-19 -42,-25 0,0 -86,-13 -51,-11z"/>
  <path class="fil25" d="M5586 874l-18 62c0,0 -146,-84 -203,-103 -22,-7 -62,-25 -84,-38 -28,-16 -73,-42 -128,11 0,0 -80,101 -113,61 0,0 -22,-21 22,-49 0,0 71,-43 103,-65 20,-13 53,-13 96,-3 85,20 194,49 327,124z"/>
  <path class="fil26" d="M4649 874l18 62c0,0 146,-84 203,-103 22,-7 62,-25 84,-38 28,-16 73,-42 128,11 0,0 80,101 113,61 0,0 22,-21 -22,-49 0,0 -71,-43 -103,-65 -20,-13 -53,-13 -96,-3 -85,20 -194,49 -327,124z"/>
  <path class="fil25" d="M5473 899c0,0 -198,-8 -257,13 0,0 -60,-2 -34,81 0,0 11,95 52,123 0,0 31,48 177,32 0,0 85,4 104,-80 0,0 19,-61 12,-115 0,0 0,-57 -54,-54z"/>
  <path class="fil25" d="M5026 911c-59,-21 -257,-15 -257,-15 -54,-3 -54,54 -54,54 -8,54 11,115 11,115 19,84 104,81 104,81 146,17 177,-31 177,-31 41,-29 53,-123 53,-123 27,-83 -34,-82 -34,-82z"/>
  <path class="fil27" d="M5515 1068c-19,84 -104,80 -104,80 -146,16 -177,-32 -177,-32 -41,-29 -52,-123 -52,-123 -26,-83 34,-81 34,-81 59,-21 257,-13 257,-13 54,-2 54,54 54,54 7,54 -12,115 -12,115zm-456 -75c0,0 -12,94 -53,123 0,0 -31,48 -177,31 0,0 -85,3 -104,-81 0,0 -19,-61 -11,-115 0,0 0,-57 54,-54 0,0 198,-7 257,15 0,0 60,-1 34,82zm524 -125l-197 2c-193,-2 -225,28 -225,28 -6,5 -7,11 -15,15 -12,6 -27,6 -40,4 -6,-1 -12,-3 -18,-7 -5,-3 -6,-9 -9,-12 0,0 -31,-30 -225,-29 0,0 -196,-3 -197,-3 -22,0 -17,99 0,99 0,0 26,0 49,123 0,0 24,82 134,83 0,0 119,8 157,-20 0,0 59,-27 87,-140 2,-7 3,-14 7,-21 3,-5 6,-10 11,-12 12,-7 35,-4 44,7 6,7 9,17 10,26 27,113 86,141 86,141 38,28 157,20 157,20 110,-1 134,-82 134,-82 23,-123 49,-123 49,-123 22,-2 20,-99 0,-99z"/>
  <path class="fil3" d="M829 862c0,0 -235,28 -222,159 0,0 48,183 534,148 0,0 171,8 386,-94 0,0 83,-59 -30,-86l-113 -35 -555 -92z"/>
  <path class="fil3" d="M779 1040l68 -311c0,0 48,-101 136,-109 0,0 131,-23 264,59 0,0 144,-54 144,92l-10 276c0,0 -547,154 -602,-8z"/>
  <path class="fil28" d="M794 971c0,0 172,129 589,10l-2 68c0,0 -547,154 -602,-8l15 -70z"/>
  <path class="fil1" d="M5299 5404l-349 0c0,0 0,255 17,323 0,0 -18,31 157,26 175,4 157,-26 157,-26 17,-67 17,-323 17,-323z"/>
  <polygon class="fil1" points="5125,5350 4963,5350 4963,5404 5286,5404 5286,5350 "/>
  <path class="fil29" d="M5012 5134c0,0 -21,-200 81,-282 0,0 99,122 120,148 0,0 18,28 10,130l-210 4z"/>
  <path class="fil30" d="M5125 5126c-49,0 -142,7 -142,7l0 217 284 0 0 -217c0,0 -93,-7 -142,-7z"/>
  <path class="fil30" d="M5299 5436c0,2 -5,3 -11,3l-334 0c-6,0 -11,-1 -11,-3l0 -34c0,-2 5,-3 11,-3l334 0c6,0 11,1 11,3l0 34z"/>
  <path class="fil31" d="M3762 5114c-145,0 -264,118 -264,264 0,145 118,264 264,264 145,0 264,-118 264,-264 0,-145 -118,-264 -264,-264zm0 601c-186,0 -337,-151 -337,-337 0,-186 151,-337 337,-337 186,0 337,151 337,337 0,186 -151,337 -337,337z"/>
  <path class="fil32" d="M3772 5114l140 -116c0,0 -6,-43 -62,-34l-87 146c0,0 -8,3 9,4z"/>
  <path class="fil32" d="M3753 5114l-140 -116c0,0 6,-43 62,-34l87 146c0,0 8,3 -9,4z"/>
  <polygon class="fil33" points="3816,4890 3709,4890 3646,4918 3762,5110 3879,4918 "/>
  <path class="fil34" d="M3709 4890c0,0 4,1 9,3 6,2 13,5 20,8 7,3 14,7 18,11 5,3 8,6 8,6 0,0 -4,-1 -9,-3 -6,-2 -13,-5 -20,-8 -7,-3 -14,-7 -19,-11 -5,-3 -8,-6 -8,-6z"/>
  <path class="fil34" d="M3819 4890c0,0 -3,3 -8,6 -5,3 -12,7 -19,11 -7,3 -14,6 -20,8 -5,2 -9,3 -9,3 0,0 3,-3 8,-6 5,-3 12,-7 19,-11 7,-3 14,-6 20,-8 6,-2 9,-3 9,-3z"/>
  <path class="fil34" d="M3646 4918c0,0 2,0 5,-1 3,0 8,-1 13,-1 11,-1 26,-1 41,-1 15,0 30,0 41,1 6,0 10,1 13,1 3,0 5,1 5,1 0,0 -2,0 -5,1 -3,0 -8,1 -13,1 -11,1 -26,1 -41,1 -15,0 -30,0 -41,-1 -6,0 -10,-1 -13,-1 -3,0 -5,-1 -5,-1z"/>
  <path class="fil34" d="M3700 4918c0,0 1,3 3,8 2,5 5,13 8,21 3,9 7,19 11,30 4,11 8,23 12,35 4,12 8,24 11,35 3,11 6,22 9,31 3,9 5,17 6,22 1,5 2,8 2,8 0,0 -1,-3 -3,-8 -2,-5 -5,-13 -8,-21 -3,-9 -7,-19 -11,-31 -4,-11 -8,-23 -12,-35 -4,-12 -8,-24 -11,-35 -3,-11 -6,-22 -9,-31 -3,-9 -5,-17 -6,-22 -1,-5 -2,-8 -2,-8z"/>
  <path class="fil34" d="M3882 4918c0,0 -2,0 -5,-1 -3,0 -8,-1 -13,-1 -11,-1 -26,-1 -41,-1 -15,0 -30,0 -41,1 -6,0 -10,1 -13,1 -3,0 -5,1 -5,1 0,0 2,0 5,1 3,0 8,1 13,1 11,1 26,1 41,1 15,0 30,0 41,-1 6,0 10,-1 13,-1 3,0 5,-1 5,-1z"/>
  <path class="fil34" d="M3828 4918c0,0 -1,3 -3,8 -2,5 -5,13 -8,21 -3,9 -7,19 -11,30 -4,11 -8,23 -12,35 -4,12 -8,24 -11,35 -3,11 -6,22 -9,31 -3,9 -5,17 -6,22 -1,5 -2,8 -2,8 0,0 1,-3 3,-8 2,-5 5,-13 8,-21 3,-9 7,-19 11,-31 4,-11 8,-23 12,-35 4,-12 8,-24 11,-35 3,-11 6,-22 9,-31 3,-9 5,-17 6,-22 1,-5 2,-8 2,-8z"/>
  <path class="fil34" d="M3764 4918c0,0 0,3 0,8 0,5 1,13 1,22 0,9 1,20 1,31 0,11 0,23 0,35 0,12 0,24 -1,35 0,11 -1,22 -1,31 0,9 -1,17 -1,22 0,5 -1,8 -1,8 0,0 0,-3 0,-8 0,-5 -1,-13 -1,-22 0,-9 -1,-20 -1,-31 0,-11 0,-23 0,-35 0,-12 0,-24 1,-35 0,-11 1,-22 1,-31 0,-9 1,-17 1,-22 0,-5 1,-8 1,-8z"/>
  <path class="fil32" d="M3762 5110l-37 -80c0,0 0,-3 1,-4 9,-3 42,-10 71,1 4,1 2,4 2,4l-37 78z"/>
  <path class="fil2" d="M2552 5090c0,21 -30,35 -51,35l-238 0c-21,0 -52,-14 -52,-35l14 -231c0,-21 17,-38 38,-38l238 0c21,0 38,17 38,38l13 231z"/>
  <polygon class="fil1" points="2172,5069 2186,4984 2222,4961 2229,5015 "/>
  <polygon class="fil1" points="2596,5069 2582,4984 2546,4961 2539,5015 "/>
  <path class="fil2" d="M2552 5516c0,-21 -30,-35 -51,-35l-238 0c-21,0 -52,14 -52,35l14 231c0,21 17,38 38,38l238 0c21,0 38,-17 38,-38l13 -231z"/>
  <polygon class="fil1" points="2172,5536 2186,5621 2222,5644 2229,5590 "/>
  <polygon class="fil1" points="2596,5536 2582,5621 2546,5644 2539,5590 "/>
  <path class="fil1" d="M2767 5327c0,13 -11,24 -24,24l-17 0c-13,0 -24,-11 -24,-24l0 -47c0,-13 11,-24 24,-24l17 0c13,0 24,11 24,24l0 47z"/>
  <path class="fil1" d="M2389 5633c-182,0 -330,-148 -330,-330 0,-182 148,-330 330,-330 182,0 330,148 330,330 0,182 -148,330 -330,330z"/>
  <path class="fil28" d="M2686 5303c0,164 -133,297 -297,297 -164,0 -297,-133 -297,-297 0,-164 133,-297 297,-297 164,0 297,133 297,297z"/>
  <path class="fil3" d="M2415 5303c0,15 -12,26 -26,26 -15,0 -26,-12 -26,-26 0,-15 12,-26 26,-26 15,0 26,12 26,26z"/>
  <path class="fil35" d="M2397 5090c0,4 -4,8 -8,8l0 0c-4,0 -8,-4 -8,-8l0 -67c0,-4 4,-8 8,-8l0 0c4,0 8,4 8,8l0 67z"/>
  <path class="fil35" d="M2244 5146c3,3 3,8 0,11l0 0c-3,3 -8,3 -11,0l-47 -47c-3,-3 -3,-8 0,-11l0 0c3,-3 8,-3 11,0l47 47z"/>
  <path class="fil35" d="M2176 5295c4,0 8,3 8,8l0 0c0,4 -4,8 -8,8l-67 0c-4,0 -8,-3 -8,-8l0 0c0,-4 4,-8 8,-8l66 0z"/>
  <path class="fil35" d="M2233 5448c3,-3 8,-3 11,0l0 0c3,3 3,8 0,11l-47 47c-3,3 -8,3 -11,0l0 0c-3,-3 -3,-8 0,-11l47 -47z"/>
  <path class="fil35" d="M2381 5516c0,-4 4,-8 8,-8l0 0c4,0 8,4 8,8l0 66c0,4 -4,8 -8,8l0 0c-4,0 -8,-4 -8,-8l0 -66z"/>
  <path class="fil35" d="M2534 5459c-3,-3 -3,-8 0,-11l0 0c3,-3 8,-3 11,0l47 47c3,3 3,8 0,11l0 0c-3,3 -8,3 -11,0l-47 -47z"/>
  <path class="fil35" d="M2602 5310c-4,0 -8,-3 -8,-8l0 0c0,-4 4,-8 8,-8l66 0c4,0 8,3 8,8l0 0c0,4 -4,8 -8,8l-66 0z"/>
  <path class="fil35" d="M2545 5157c-3,3 -8,3 -11,0l0 0c-3,-3 -3,-8 0,-11l47 -47c3,-3 8,-3 11,0l0 0c3,3 3,8 0,11l-47 47z"/>
  <path class="fil3" d="M2398 5313c-3,4 -8,6 -11,4l-14 -11c-3,-2 -2,-7 1,-11l156 -200c3,-4 8,-6 11,-3l14 11c3,2 2,7 -1,11l-156 200z"/>
  <path class="fil3" d="M2398 5290c2,2 1,5 -1,8l-12 13c-2,3 -6,3 -8,2l-91 -80c-2,-2 -1,-5 1,-8l12 -13c2,-3 6,-3 8,-2l91 80z"/>
  <path class="fil36" d="M1059 3480l0 -249 0 0c3,-42 0,-85 -31,-101 -28,-14 -63,-13 -84,-9 -69,14 -63,73 -59,83 17,39 -13,45 -24,37 -59,-39 -28,-134 67,-154 35,-8 88,-8 132,14 31,16 55,61 51,129l0 248 -52 0z"/>
  <path class="fil37" d="M712 3607c0,0 213,184 362,770l18 0 -10 -936c0,0 -88,120 -198,76 0,0 -3,133 -172,90z"/>
  <path class="fil38" d="M1073 4377l18 0 -10 -936c0,0 -88,120 -198,76 0,0 104,275 190,860z"/>
  <path class="fil38" d="M1451 3607c0,0 -213,184 -362,770l-18 0 10 -936c0,0 89,120 198,76 0,0 3,133 172,90z"/>
  <path class="fil37" d="M1089 4377l-18 0 10 -936c0,0 89,120 198,76 0,0 -104,275 -190,860z"/>
  <path class="fil36" d="M1071 4372l21 0 0 136c0,0 -12,15 -21,0l0 -136z"/>
  <path class="fil39" d="M890 3515c3,6 3,12 -1,12 -4,1 -9,-3 -12,-9 -3,-6 -3,-12 1,-12 4,-1 9,3 12,10z"/>
  <path class="fil40" d="M1085 3435c0,6 -3,12 -7,12 -4,0 -7,-5 -7,-12 0,-6 3,-12 7,-12 4,0 7,5 7,12z"/>
  <path class="fil39" d="M718 3604c4,6 5,11 2,12 -3,1 -10,-2 -14,-8 -4,-6 -5,-11 -2,-12 3,-1 10,2 14,8z"/>
  <path class="fil39" d="M1272 3515c-3,6 -3,12 1,12 4,1 9,-3 12,-9 3,-6 3,-12 -1,-12 -4,-1 -9,3 -12,10z"/>
  <path class="fil39" d="M1445 3604c-4,6 -5,11 -2,12 3,1 10,-2 14,-8 4,-6 5,-11 2,-12 -3,-1 -10,2 -14,8z"/>
  <path class="fil38" d="M1946 1053c0,0 -11,94 8,101l272 6 15 -36c0,0 130,19 164,31 0,0 121,31 217,11 0,0 205,-27 266,-89 0,0 1,-52 -16,-48 0,0 13,36 -72,55 0,0 -190,57 -294,45 0,0 -106,-4 -159,-24 0,0 -115,-31 -216,-24 0,0 -168,4 -185,-28z"/>
  <path class="fil41" d="M1947 1060c0,0 -27,-144 11,-197 0,0 22,-69 14,-75 0,0 -2,-23 26,-20 0,0 164,18 311,0 0,0 34,-26 94,36 0,0 78,108 178,148 0,0 37,29 165,15 0,0 108,7 127,63 0,0 9,54 -172,81 0,0 -217,48 -359,-7 0,0 -119,-27 -204,-22 0,0 -115,8 -190,-22z"/>
  <path class="fil42" d="M2730 969c0,0 -116,118 -126,156 0,0 257,-15 268,-95 0,0 -20,-63 -143,-61z"/>
  <path class="fil43" d="M2300 877c0,0 69,30 107,58 0,0 59,12 83,-39l0 0c-53,-44 -88,-92 -88,-92 -26,-27 -47,-37 -62,-40 -40,54 -136,45 -181,42 -118,-9 -163,-23 -178,-35 -10,6 -9,17 -9,17 5,4 -2,34 -8,55l0 0c0,0 149,49 337,34z"/>
  <path class="fil42" d="M2300 877c0,0 69,30 107,58 0,0 59,12 83,-39l0 0c-53,-44 -88,-92 -88,-92 -26,-27 -47,-37 -62,-40 -40,54 -136,45 -181,42 -118,-9 -163,-23 -178,-35 -10,6 -9,17 -9,17 5,4 -2,34 -8,55l0 0c0,0 149,49 337,34z"/>
  <path class="fil43" d="M2308 768c-146,19 -311,0 -311,0 -8,-1 -13,0 -17,2 15,12 61,26 178,35 45,3 141,12 181,-42 -20,-4 -31,4 -31,4z"/>
  <path class="fil43" d="M2308 768c-146,19 -311,0 -311,0 -8,-1 -13,0 -17,2 15,12 61,26 178,35 45,3 141,12 181,-42 -20,-4 -31,4 -31,4z"/>
  <path class="fil44" d="M2308 768c-146,19 -311,0 -311,0 -8,-1 -13,0 -17,2 15,12 61,26 178,35 45,3 141,12 181,-42 -20,-4 -31,4 -31,4z"/>
  <path class="fil45" d="M2402 901l-7 -5c4,-6 10,-11 16,-16 12,-10 24,-21 22,-36l8 -1c3,19 -12,32 -25,43 -6,5 -11,10 -15,15z"/>
  <path class="fil45" d="M2377 856l-4 -7c2,-1 4,-2 6,-4 11,-7 32,-20 33,-31 0,-4 -2,-7 -6,-10l5 -6c7,5 10,11 10,17 -1,15 -22,29 -37,38 -2,2 -5,3 -6,4z"/>
  <path class="fil45" d="M2423 794c8,0 19,3 30,6 20,6 42,12 49,0 2,-4 2,-7 0,-12 -4,-10 -17,-19 -25,-21 -22,-6 -42,11 -58,27 1,0 2,0 4,0zm64 21c-11,0 -24,-4 -36,-7 -12,-4 -24,-7 -31,-6l-1 -7c-1,1 -3,3 -4,4l-2 2 -6 -6 2 -2c18,-17 42,-40 70,-33 11,3 25,14 30,26 3,7 2,13 -1,19 -5,8 -13,11 -22,11z"/>
  <path class="fil45" d="M2414 805c-14,-6 -36,-21 -36,-36 0,-9 7,-16 20,-20 9,-3 17,-3 22,2 14,13 5,49 4,53l-8 -2c4,-14 6,-38 -2,-45 -3,-3 -8,-3 -14,-1 -7,2 -15,7 -15,13 0,10 18,24 31,29l-3 7z"/>
  <path class="fil45" d="M2485 842c-12,0 -21,-4 -32,-13 -3,-2 -5,-5 -8,-8 -8,-8 -15,-15 -25,-13l-1 -8c15,-3 24,7 33,16 2,3 5,5 7,7 13,11 21,13 39,10l1 8c-5,1 -10,1 -14,1z"/>
  <path class="fil45" d="M2354 824l-3 -7c12,-6 36,-21 32,-30l7 -3c8,19 -31,38 -36,41z"/>
  <path class="fil46" d="M2307 3532c0,0 -181,-181 -39,-306 0,0 -19,226 100,294l-61 13z"/>
  <path class="fil47" d="M2267 3272l1 -46c0,0 175,-121 306,17l10 50c0,0 -131,-138 -317,-20z"/>
  <path class="fil46" d="M2488 3542c0,0 208,-159 86,-299 0,0 -17,226 -145,280l58 19z"/>
  <path class="fil46" d="M2514 3843l-220 287c0,27 0,55 0,85l224 -291c-1,-28 -2,-55 -4,-81z"/>
  <path class="fil46" d="M2503 3727l-206 268c-1,28 -2,58 -3,89l217 -282c-2,-27 -5,-53 -8,-75z"/>
  <path class="fil46" d="M2519 3968l-224 292c1,22 1,44 2,68l7 6 217 -282c0,-28 -1,-56 -1,-84z"/>
  <path class="fil46" d="M2474 3640l0 0c-3,3 -6,4 -10,5l-155 202c-4,29 -7,61 -9,97l196 -255c-6,-26 -13,-44 -22,-50z"/>
  <path class="fil46" d="M2383 4408l15 14 119 -95c0,0 1,-38 2,-97l-137 178z"/>
  <path class="fil46" d="M2521 4098l-196 255 38 36 158 -205c0,-27 0,-56 0,-86z"/>
  <path class="fil23" d="M2464 3645c4,-1 7,-3 10,-5l-5 0 -5 6z"/>
  <path class="fil46" d="M2364 3636c-3,5 -8,13 -13,26l17 -22c-2,-1 -3,-2 -4,-4z"/>
  <path class="fil48" d="M2458 3646l-30 0 -111 145c-3,17 -6,36 -8,56l155 -202c-2,1 -4,1 -6,1z"/>
  <path class="fil46" d="M2428 3646l-41 0c-4,0 -8,-1 -12,-3l-33 43c-8,24 -17,58 -24,104l111 -145z"/>
  <path class="fil48" d="M2368 3640l-17 22c-3,7 -6,15 -9,25l33 -43c-2,-1 -5,-2 -7,-4z"/>
  <path class="fil48" d="M2496 3690l-196 255c-1,16 -2,32 -3,50l206 -268c-2,-14 -4,-26 -7,-37z"/>
  <polygon class="fil49" points="2360,3519 2327,3516 2321,3515 2308,3533 2310,3537 2325,3564 2335,3584 2384,3521 "/>
  <path class="fil49" d="M2477 3529l-23 -2 -33 -3 -4 0 -67 88 2 3 9 17c1,2 2,3 3,5 1,1 2,2 4,4 6,4 13,7 19,7l3 0 90 -117c-1,0 -2,0 -3,0z"/>
  <path class="fil49" d="M2425 3646l32 0c2,0 4,0 6,-1l5 -6 5 0c3,-3 5,-6 5,-10l1 -6 10 -58 1 -5 -66 85z"/>
  <path class="fil48" d="M2493 3547c1,-8 -5,-15 -14,-17l-90 117 35 0 66 -85 2 -14z"/>
  <polygon class="fil48" points="2384,3521 2335,3584 2350,3612 2417,3524 "/>
  <path class="fil48" d="M2316 3515c-10,-1 -15,5 -11,13l3 5 14 -18 -5 0z"/>
  <path class="fil48" d="M2511 3801l-217 282c0,15 0,31 -1,47l220 -287c-1,-14 -2,-28 -3,-42z"/>
  <path class="fil48" d="M2518 3924l-224 291c0,15 1,29 1,45l224 -292c0,-15 -1,-30 -1,-44z"/>
  <path class="fil48" d="M2520 4052l-217 282 20 19 196 -255c0,-15 0,-30 0,-46z"/>
  <path class="fil48" d="M2520 4184l-158 205 20 19 137 -178c0,-14 0,-30 1,-47z"/>
  <path class="fil3" d="M1529 5636c0,27 -22,49 -49,49l-797 0c-27,0 -49,-22 -49,-49l0 -541c0,-27 22,-49 49,-49l797 0c27,0 49,22 49,49l0 541z"/>
  <path class="fil50" d="M1477 5591c0,27 -22,49 -49,49l-692 0c-27,0 -49,-22 -49,-49l0 -450c0,-27 22,-49 49,-49l692 0c27,0 49,22 49,49l0 450z"/>
  <path class="fil50" d="M1010 5053c0,15 -12,27 -27,27l-30 0c-15,0 -27,-12 -27,-27l0 0c0,-15 12,-27 27,-27l30 0c15,0 27,12 27,27l0 0z"/>
  <path class="fil50" d="M1244 5053c0,15 -12,27 -27,27l-30 0c-15,0 -27,-12 -27,-27l0 0c0,-15 12,-27 27,-27l30 0c15,0 27,12 27,27l0 0z"/>
  <path class="fil51" d="M1461 5045l-763 0c-20,68 -44,193 45,218 0,0 309,37 337,37 27,0 337,-37 337,-37 89,-24 65,-149 45,-218z"/>
  <path class="fil52" d="M1129 5369c0,7 -5,12 -12,12l-71 0c-7,0 -12,-5 -12,-12l0 -86c0,-7 5,-12 12,-12l71 0c7,0 12,5 12,12l0 86z"/>
  <path class="fil28" d="M1115 5347c0,10 -8,19 -19,19l-29 0c-10,0 -19,-8 -19,-19l0 -42c0,-10 8,-19 19,-19l29 0c10,0 19,8 19,19l0 42z"/>
  <path class="fil3" d="M1155 4925c-50,-8 -73,-4 -67,-5 -44,0 -67,5 -67,5 -73,19 -68,102 -68,102l34 0c1,-57 36,-54 36,-54 22,2 44,1 66,1 21,0 42,1 63,-1 0,0 35,-3 36,54l34 0c0,0 5,-83 -68,-102z"/>
 </g>
</svg>
