<?xml version="1.0" encoding="UTF-8" standalone="no"?>
<svg
   xmlns:dc="http://purl.org/dc/elements/1.1/"
   xmlns:cc="http://creativecommons.org/ns#"
   xmlns:rdf="http://www.w3.org/1999/02/22-rdf-syntax-ns#"
   xmlns:svg="http://www.w3.org/2000/svg"
   xmlns="http://www.w3.org/2000/svg"
   viewBox="0 0 1600 1600"
   height="1600"
   width="1600"
   xml:space="preserve"
   id="svg2"
   version="1.1"><metadata
     id="metadata8"><rdf:RDF><cc:Work
         rdf:about=""><dc:format>image/svg+xml</dc:format><dc:type
           rdf:resource="http://purl.org/dc/dcmitype/StillImage" /></cc:Work></rdf:RDF></metadata><defs
     id="defs6" /><g
     transform="matrix(1.3333333,0,0,-1.3333333,0,1600)"
     id="g10"><g
       transform="scale(0.1)"
       id="g12"><path
         id="path14"
         style="fill:#80cbd3;fill-opacity:1;fill-rule:nonzero;stroke:none"
         d="M 0,0 H 12000 V 12000 H 0 Z" /><path
         id="path16"
         style="fill:#59909b;fill-opacity:1;fill-rule:nonzero;stroke:none"
         d="m 5998.05,1673.7 c -1159.16,0 -2098.94,124.3 -2098.94,277.5 0,153.33 939.78,277.59 2098.94,277.59 1159.24,0 2098.96,-124.26 2098.96,-277.59 0,-153.2 -939.72,-277.5 -2098.96,-277.5" /><path
         id="path18"
         style="fill:#ffffff;fill-opacity:1;fill-rule:nonzero;stroke:none"
         d="m 6312.66,2872.44 -984.75,189.34 c 0,0 -301.26,494.56 -187.69,1085.15 146.24,760.57 -680.71,1243.93 -476.31,2306.89 211.99,1102.63 1231.95,1753.79 2190.65,1571.28 l 1.59,-0.3 1.69,-0.33 C 7815.82,7838.41 8521.55,6855.42 8309.5,5752.79 8105.12,4689.87 7107.56,4589.33 6961.28,3828.72 6847.71,3238.12 6312.66,2872.44 6312.66,2872.44" /><path
         id="path20"
         style="fill:#ffffff;fill-opacity:1;fill-rule:nonzero;stroke:none"
         d="m 6356.63,1940.6 c 361.08,0 488.76,1685.77 488.76,1685.77 20.53,185.11 -112.82,351.82 -297.94,372.44 -185.14,20.62 -351.83,-112.87 -372.35,-297.92 0,0 -179.51,-1760.29 181.53,-1760.29" /><path
         id="path22"
         style="fill:#ffffff;fill-opacity:1;fill-rule:nonzero;stroke:none"
         d="m 5655.57,1954.5 c 421.4,0 157.75,1786.15 157.75,1786.15 -18.83,185.31 -184.31,320.39 -369.57,301.48 -185.26,-18.76 -320.21,-184.24 -301.45,-369.56 0,0 125.42,-1718.07 513.27,-1718.07" /><path
         id="path24"
         style="fill:#ffffff;fill-opacity:1;fill-rule:nonzero;stroke:none"
         d="m 6934.86,7908.37 c 0,0 216.39,0.8 323.42,120.32 109.94,122.91 -162.66,160.27 -273.32,68.09 -48.64,-40.53 -71.92,-78.08 -71.92,-78.08 0,0 -5.37,185.43 -91.77,228.75 -86.35,43.26 -152.8,-39.28 -115.62,-110.84 37.23,-71.59 37.23,-71.59 37.23,-71.59 0,0 -64.42,90.97 -177.94,126.89 -92.15,29.22 -174.18,29.51 -140.39,-49.2 22.7,-53.01 225.75,-192.3 225.75,-192.3 l 284.56,-42.04" /><path
         id="path26"
         style="fill:#211d1d;fill-opacity:1;fill-rule:nonzero;stroke:none"
         d="m 4988.86,7214.6 c 41.75,-29.52 85.09,-56.51 128.54,-82.73 43.66,-26.02 88.43,-49.94 133.77,-72.26 33.78,-16.96 68.54,-32.73 103.02,-47.06 25.34,44.06 50.81,88.03 76.89,131.57 l 1.95,2.97 c 15.19,21.75 45.26,26.91 66.91,11.6 l 2.74,-1.91 c 44.96,-31.69 90.63,-62.11 137.1,-91.28 46.71,-28.89 93.06,-58.17 140.69,-85.29 47.51,-27.37 95.63,-53.45 144.36,-78.12 11.71,-5.81 23.71,-11.68 35.6,-17.51 l -16.88,100.6 c -3.07,19.54 2.35,40.63 16.91,56.32 24.99,27.03 67.22,28.66 94.29,3.58 l 0.77,-0.74 c 102.39,-94.65 218.21,-178.38 341.13,-251.6 121.84,-75.39 250.55,-141 381,-203.87 65.23,-31.51 131.44,-61.18 198.19,-90.09 66.42,-29.59 133.58,-57.87 201.3,-84.93 134.95,-55.75 271.88,-107.14 409.94,-158.08 -145.93,20.67 -289.41,55.14 -431.93,93.46 -70.98,20.17 -141.68,41.6 -212,64.52 -70.04,23.67 -139.5,49.17 -208.56,76.25 -138.07,54.19 -272.87,118.06 -403.63,191.3 -77.96,45.58 -155.09,94.49 -228.41,149.32 l 7.28,-47.67 0.24,-1.7 c 1.82,-11.78 0.4,-24.27 -4.84,-36.03 -14.47,-32.63 -52.71,-47.25 -85.28,-32.73 -54.99,24.49 -104.53,49.86 -154.6,78.16 -49.76,27.88 -98.65,57.11 -146.63,87.61 -47.9,30.65 -95.54,61.68 -141.17,95.52 -32.04,23.43 -63.49,47.68 -94.6,72.22 -25.2,-36.25 -50.38,-72.51 -76.17,-108.32 l -2.84,-3.9 c -10.83,-15.03 -31.22,-20.43 -48.33,-12 -49.22,24.32 -93.43,50.5 -138.13,78.64 -43.94,28.52 -86.55,59.05 -127.74,91 -41.38,31.87 -80.48,66.44 -117.98,102.38 -37.82,35.69 -72.29,74.68 -105.19,114.43 39.2,-33.57 80.74,-63.91 122.29,-93.63" /><path
         id="path28"
         style="fill:#211d1d;fill-opacity:1;fill-rule:nonzero;stroke:none"
         d="m 5247.42,6077.31 c -36.08,-100.15 -146.53,-152.01 -246.73,-115.92 -100.12,36.1 -152.08,146.54 -115.92,246.71 36.06,100.17 146.55,152.1 246.73,115.97 100.14,-36.1 152.08,-146.55 115.92,-246.76" /><path
         id="path30"
         style="fill:#211d1d;fill-opacity:1;fill-rule:nonzero;stroke:none"
         d="m 4822.17,6475.28 c 66.4,-12.93 121.95,-24.27 176.52,-22.65 27.07,0.72 53.68,4.27 81.12,11.61 27.71,6.92 55.63,18.2 87.93,30.16 -24.72,-63.98 -94.95,-108.41 -167.41,-109.16 -35.96,-0.88 -71.24,7.72 -102.03,23.11 -30.48,15.73 -58.09,37.08 -76.13,66.93" /><path
         id="path32"
         style="fill:#211d1d;fill-opacity:1;fill-rule:nonzero;stroke:none"
         d="m 7141.43,5623.49 c -58.06,34.71 -106.98,63.38 -146.5,101.03 -19.69,18.61 -37.12,39.03 -52.65,62.81 -16,23.66 -29.24,50.7 -45.29,81.17 -24.35,-64.13 -1.73,-144.1 51.71,-193.05 26.18,-24.67 58.17,-41.8 91.37,-50.91 33.19,-8.67 68,-11.19 101.36,-1.05" /><path
         id="path34"
         style="fill:#211d1d;fill-opacity:1;fill-rule:nonzero;stroke:none"
         d="m 6553.56,5606.41 c -36.11,-100.11 15.83,-210.51 116.05,-246.68 100.17,-36.07 210.59,15.75 246.71,115.89 36.18,100.23 -15.82,210.76 -115.93,246.8 -100.22,36.12 -210.71,-15.77 -246.83,-116.01" /><path
         id="path36"
         style="fill:#211d1d;fill-opacity:1;fill-rule:nonzero;stroke:none"
         d="m 6253.09,5730.7 c -92.17,-255.61 40.78,-538.53 296.35,-630.63 255.6,-92.14 538.44,40.87 630.6,296.45 92.09,255.52 -40.78,538.41 -296.45,630.55 -255.49,92.16 -538.41,-40.8 -630.5,-296.37 z m -126.88,45.74 c 117.37,325.47 477.66,494.83 803.15,377.49 325.57,-117.35 494.91,-477.68 377.6,-803.18 -117.38,-325.52 -477.74,-494.94 -803.25,-377.51 -325.49,117.28 -494.87,477.63 -377.5,803.2" /><path
         id="path38"
         style="fill:#211d1d;fill-opacity:1;fill-rule:nonzero;stroke:none"
         d="m 4628.07,6316.56 c -92.17,-255.61 40.75,-538.48 296.38,-630.65 255.58,-92.17 538.39,40.91 630.55,296.42 92.1,255.57 -40.78,538.42 -296.35,630.59 -255.6,92.17 -538.5,-40.84 -630.58,-296.36 z m -126.92,45.74 c 117.34,325.46 477.67,494.83 803.25,377.45 325.5,-117.33 494.82,-477.66 377.5,-803.17 -117.36,-325.53 -477.73,-494.86 -803.2,-377.55 -325.52,117.37 -494.9,477.67 -377.55,803.27" /><path
         id="path40"
         style="fill:#211d1d;fill-opacity:1;fill-rule:nonzero;stroke:none"
         d="m 6160.13,5811.51 112.98,73.71 c -69.46,106.46 -169.52,185.52 -289.39,228.73 -118.97,42.92 -245.76,46.07 -366.39,9.17 l 39.44,-129 c 92.58,28.37 189.86,25.95 281.26,-7.01 92,-33.21 168.82,-93.96 222.1,-175.6" /><path
         id="path42"
         style="fill:#211d1d;fill-opacity:1;fill-rule:nonzero;stroke:none"
         d="m 5899.67,5175.65 c -70.17,-174.82 -215.64,-281.01 -324.93,-237.15 -109.27,43.84 -140.97,221.13 -70.8,395.97 70.18,174.85 215.64,281.02 324.89,237.16 109.29,-43.86 141,-221.13 70.84,-395.98" /><path
         id="path44"
         style="fill:#e42c35;fill-opacity:1;fill-rule:nonzero;stroke:none"
         d="m 5485.29,5279.09 c -43.71,-155.45 -8.27,-301.38 89.45,-340.59 98.77,-39.64 226.96,43.5 302.5,188.96 -30.28,61.69 -73.2,129 -160.79,164.14 -69.88,28.05 -151.02,25.32 -231.16,-12.51" /><path
         id="path46"
         style="fill:#ffffff;fill-opacity:1;fill-rule:nonzero;stroke:none"
         d="m 5280,4405.52 c -270.85,2.45 -918.41,36.21 -1192.41,346.35 l 39.38,193.27 c 13.9,68.24 -30.1,134.8 -98.26,148.8 -60.82,12.46 -93.08,-20.03 -130.4,-54.79 -54.65,73.52 -116.36,124.04 -195.6,104.39 -157.78,-39.11 -135.51,-295.46 -96.39,-453.29 71.29,-287.66 282.68,-538.45 912.16,-767.26 5.55,-2.01 11.44,-3.03 17.14,-4.5 378.66,-98.47 725.79,-101.62 740.59,-101.72 162.59,-0.97 295.16,130.08 296.11,292.62 0.97,162.5 -129.81,295.04 -292.32,296.13" /><path
         id="path48"
         style="fill:#ffffff;fill-opacity:1;fill-rule:nonzero;stroke:none"
         d="m 8446.64,4703.99 c -74.71,40.56 -150.15,2.7 -224.41,-59.05 -16.2,6.61 -32.55,13.3 -47.79,22.79 -53.67,33.39 -92.2,77.52 -161.93,52.5 -65.5,-23.49 -99.63,-95.6 -76.2,-161.19 l 47.14,-131.97 c -341.31,-238.58 -984.31,-106.74 -1249.07,-40.45 -157.56,39.84 -317.48,-55.52 -357.42,-213.03 -39.99,-157.55 55.34,-317.74 212.94,-357.71 14.35,-3.63 351.11,-87.92 742.35,-87.92 5.89,0 11.86,-0.52 17.73,0.04 666.78,63.04 934.5,252.59 1075.88,513.04 77.55,142.91 163.63,385.41 20.78,462.95" /><path
         id="path50"
         style="fill:#211d1d;fill-opacity:1;fill-rule:nonzero;stroke:none"
         d="m 5790.13,4151.41 -1.92,0.48 -75.97,20.47 -27.2,198.29 118.83,75.42 59.31,-15.99 1.84,-0.48 59.37,-16.01 64.75,-124.86 -123.08,-157.79 -75.93,20.47" /><path
         id="path52"
         style="fill:#211d1d;fill-opacity:1;fill-rule:nonzero;stroke:none"
         d="m 5541.81,3237.36 -148.22,261.7 309.07,626.79 73.18,-19.74 0.96,-0.23 0.98,-0.24 73.21,-19.74 -47.56,-697.26 -259.73,-151.77 -0.49,-1.98 -0.73,1.26 -1.17,-0.72 0.5,1.93" /><path
         id="path54"
         style="fill:#211d1d;fill-opacity:1;fill-rule:nonzero;stroke:none"
         d="m 8380.22,3970.05 c -5.89,-72.57 -69.46,-126.68 -142.06,-120.81 -72.54,5.9 -126.62,69.53 -120.76,142.08 l 385.31,4686.35 c 5.86,72.58 69.46,126.65 142.03,120.76 72.57,-5.87 126.65,-69.46 120.79,-142.04 L 8380.22,3970.05" /><path
         id="path56"
         style="fill:#e42c35;fill-opacity:1;fill-rule:nonzero;stroke:none"
         d="m 9951.79,8713.76 c 0,-707.93 -573.92,-1281.82 -1281.85,-1281.82 -707.93,0 -1281.83,573.89 -1281.83,1281.82 0,707.94 573.9,1281.83 1281.83,1281.83 707.93,0 1281.85,-573.89 1281.85,-1281.83" /><path
         id="path58"
         style="fill:#ffffff;fill-opacity:1;fill-rule:nonzero;stroke:none"
         d="m 8632.39,9120.88 157.25,-19.1 -101.45,-835.08 -97.7,11.87 -0.14,-1.19 -369.93,616.73 -68.31,-562.28 -157.25,19.1 101.31,833.89 127.47,-15.48 345.79,-566.66 62.96,518.2" /><path
         id="path60"
         style="fill:#ffffff;fill-opacity:1;fill-rule:nonzero;stroke:none"
         d="m 8975.1,8529.22 c -10.85,-89.34 32.66,-179.24 138.66,-192.13 106.03,-12.88 169.75,64 180.61,153.34 10.7,88.15 -40.81,181.45 -138.49,193.32 -104.82,12.74 -170.06,-66.38 -180.78,-154.53 z m 465.81,-56.59 c -20.55,-169.16 -152.75,-292.12 -343.36,-268.96 -190.6,23.16 -288.33,174.05 -267.77,343.21 20.4,167.96 153.94,291.96 340.97,269.24 187.02,-22.72 290.56,-175.51 270.16,-343.49" /><path
         id="path62"
         style="fill:#211d1d;fill-opacity:1;fill-rule:nonzero;stroke:none"
         d="m 4136.96,4083.2 c 15.68,-71.09 -29.24,-141.48 -100.35,-157.16 -71.09,-15.65 -141.46,29.3 -157.14,100.39 L 2994.6,8184.94 c -15.68,71.1 29.23,141.44 100.35,157.11 71.09,15.68 141.44,-29.24 157.14,-100.34 L 4136.96,4083.2" /><path
         id="path64"
         style="fill:#67bd30;fill-opacity:1;fill-rule:nonzero;stroke:none"
         d="m 4461.34,8344.79 c 207.71,-676.77 -172.56,-1393.81 -849.32,-1601.52 -676.77,-207.72 -1393.81,172.51 -1601.54,849.29 -207.71,676.78 172.54,1393.8 849.31,1601.52 676.76,207.72 1393.82,-172.51 1601.55,-849.29" /><path
         id="path66"
         style="fill:#ffffff;fill-opacity:1;fill-rule:nonzero;stroke:none"
         d="m 2622.49,7858.55 155.4,382.03 187.53,35.18 1.34,-7.08 -239.45,-539.42 63.97,-340.85 -155.68,-29.22 -63.96,340.86 -406.92,418.14 -1.33,7.08 185.18,34.76 273.92,-301.48" /><path
         id="path68"
         style="fill:#ffffff;fill-opacity:1;fill-rule:nonzero;stroke:none"
         d="m 3390.37,7871.99 c -23.61,73.71 -89.66,100.4 -172.22,84.9 -77.84,-14.6 -134.44,-64.3 -141.5,-143.77 z m -293.73,-178.44 c 22.93,-70.16 95.18,-110.33 196.6,-91.3 53.09,9.96 118.9,43.07 145.53,83.47 l 109.03,-73.55 c -49.38,-75.21 -143.88,-124.69 -232.34,-141.29 -200.5,-37.62 -342.86,63.88 -377.83,250.22 -33.2,176.93 63.21,326.88 251.91,362.29 194.61,36.51 338.67,-60.99 361.19,-304.63 l -454.09,-85.21" /><path
         id="path70"
         style="fill:#ffffff;fill-opacity:1;fill-rule:nonzero;stroke:none"
         d="m 4006.17,8058.35 c -48.6,31.18 -98.21,35.3 -153.64,24.9 -68.4,-12.83 -102.17,-41.16 -95.3,-77.71 7.08,-37.75 45.27,-52.55 120.44,-43.32 111.03,13.51 254.84,14.84 283.84,-139.66 19.25,-102.61 -47.88,-206.79 -214.18,-237.99 -92,-17.27 -186.88,-19.19 -288.39,53.33 l 51.51,115.89 c 49.93,-38.25 150.68,-54.75 215.77,-43.76 54.47,9 99.89,46.82 91.91,89.29 -7.51,40.1 -43.64,50.42 -127.09,39.64 -111.24,-12.32 -249.66,3.21 -274.45,135.3 -25.24,134.47 105.07,207.75 211.22,227.67 90.83,17.04 162.55,12.19 240.84,-34.17 l -62.48,-109.41" /><path
         id="path72"
         style="fill:#ffffff;fill-opacity:1;fill-rule:nonzero;stroke:none"
         d="m 8412.45,4713.37 c 0,0 -224.8,-10.56 -169.25,-216.86 55.52,-206.3 89.91,-304.15 145.46,-322.66 55.51,-18.52 150.73,190.43 142.79,349.1 -7.94,158.67 -71.4,198.34 -119,190.42" /><path
         id="path74"
         style="fill:#ffffff;fill-opacity:1;fill-rule:nonzero;stroke:none"
         d="m 3699.51,5130.13 c 0,0 225,-4.25 175.26,-212.03 -49.74,-207.75 -81.38,-306.52 -136.37,-326.61 -54.98,-20.06 -156.02,186.15 -152.52,344.96 3.49,158.86 65.82,200.29 113.63,193.68" /></g></g></svg>