<?xml version="1.0" encoding="UTF-8" standalone="no"?>
<svg
   xmlns:dc="http://purl.org/dc/elements/1.1/"
   xmlns:cc="http://creativecommons.org/ns#"
   xmlns:rdf="http://www.w3.org/1999/02/22-rdf-syntax-ns#"
   xmlns:svg="http://www.w3.org/2000/svg"
   xmlns="http://www.w3.org/2000/svg"
   viewBox="0 0 1496 1496"
   height="1496"
   width="1496"
   xml:space="preserve"
   id="svg2"
   version="1.1"><metadata
     id="metadata8"><rdf:RDF><cc:Work
         rdf:about=""><dc:format>image/svg+xml</dc:format><dc:type
           rdf:resource="http://purl.org/dc/dcmitype/StillImage" /></cc:Work></rdf:RDF></metadata><defs
     id="defs6" /><g
     transform="matrix(1.3333333,0,0,-1.3333333,0,1496)"
     id="g10"><g
       transform="scale(0.1)"
       id="g12"><path
         id="path14"
         style="fill:#303235;fill-opacity:1;fill-rule:nonzero;stroke:none"
         d="M 0,0 H 11220 V 11220 H 0 Z" /><path
         id="path16"
         style="fill:#f1f1f2;fill-opacity:1;fill-rule:nonzero;stroke:none"
         d="m 6622.26,5375.44 c 0,-1446.24 -1172.4,-2618.65 -2618.65,-2618.65 -1446.24,0 -2618.65,1172.41 -2618.65,2618.65 0,1446.24 1172.41,2618.65 2618.65,2618.65 1446.25,0 2618.65,-1172.41 2618.65,-2618.65" /><path
         id="path18"
         style="fill:#d0d1d3;fill-opacity:1;fill-rule:nonzero;stroke:none"
         d="m 4003.62,3601.48 c -978.17,0 -1773.96,795.79 -1773.96,1773.96 0,978.17 795.79,1773.96 1773.96,1773.96 978.17,0 1773.96,-795.79 1773.96,-1773.96 0,-978.17 -795.79,-1773.96 -1773.96,-1773.96" /><path
         id="path20"
         style="fill:#f1f1f2;fill-opacity:1;fill-rule:nonzero;stroke:none"
         d="m 5657.45,5375.44 c 0,-913.38 -740.45,-1653.84 -1653.84,-1653.84 -913.39,0 -1653.83,740.46 -1653.83,1653.84 0,913.39 740.44,1653.84 1653.83,1653.84 913.39,0 1653.84,-740.45 1653.84,-1653.84" /><path
         id="path22"
         style="fill:#e6e6e7;fill-opacity:1;fill-rule:nonzero;stroke:none"
         d="m 5136.67,6579.57 c 181.78,-265.58 288.29,-586.75 288.29,-932.89 0,-913.39 -740.45,-1653.84 -1653.83,-1653.84 -438.62,0 -837.05,171.06 -1133.06,449.71 297.91,-435.23 798.29,-720.95 1365.55,-720.95 913.38,0 1653.83,740.46 1653.83,1653.84 0,474.78 -200.36,902.51 -520.78,1204.13" /><path
         id="path24"
         style="fill:#e6e6e7;fill-opacity:1;fill-rule:nonzero;stroke:none"
         d="m 4329.71,7973.16 c 1140.48,-250.22 1994.28,-1265.87 1994.28,-2481.47 0,-1403.42 -1137.69,-2541.11 -2541.11,-2541.11 -673.78,0 -1285.85,262.72 -1740.65,690.7 479.78,-542.23 1180.44,-884.49 1961.39,-884.49 1446.24,0 2618.64,1172.41 2618.64,2618.65 0,1335.73 -1000.32,2437.07 -2292.55,2597.72" /><path
         id="path26"
         style="fill:#f1f1f2;fill-opacity:1;fill-rule:nonzero;stroke:none"
         d="m 8565.81,7326.22 c -125.57,194.02 -412.8,194.02 -538.37,0 -197.27,-304.79 -311.86,-668.05 -311.86,-1058.15 0,-19.4 0.28,-38.75 0.85,-58.03 7.14,-244.21 133.33,-407.89 300.07,-491.07 105.99,-52.88 175.15,-158.63 173.1,-277.06 l -39.44,-2421.59 c -1.42,-81.81 64.51,-148.89 146.33,-148.89 81.95,0 147.95,67.23 146.46,149.16 l -41.33,2420.09 c -2.16,118.85 67.42,224.9 173.9,277.71 167.35,82.98 294.14,246.84 301.3,491.66 0.56,19.27 0.85,38.62 0.85,58.02 0,390.1 -114.59,753.36 -311.86,1058.15" /><path
         id="path28"
         style="fill:#e6e6e7;fill-opacity:1;fill-rule:nonzero;stroke:none"
         d="m 8539.61,7251.94 c -30.12,46.54 -70.69,80.33 -115.95,102.13 157.71,-263.78 248.4,-572.22 248.4,-901.92 0,-17.52 -0.25,-34.99 -0.76,-52.38 -13.86,-474.1 -524.67,-611.96 -827.82,-413.8 232.71,-394.72 960.28,-308.64 976.87,258.44 0.5,17.39 0.76,34.86 0.76,52.38 0,352.13 -103.44,680.03 -281.5,955.15" /><path
         id="path30"
         style="fill:#f1f1f2;fill-opacity:1;fill-rule:nonzero;stroke:none"
         d="m 9741.63,7336.84 -88.94,-1051.29 c -1.22,-25.73 -29.45,-25.73 -30.68,0 l -60.32,1065.24 c -3.13,37.09 -42.98,38.37 -47.43,1.53 l -87.5,-1066.77 c -1.23,-25.73 -29.46,-25.73 -30.69,0 l -86.83,1066.77 c -4.45,36.84 -44.31,35.56 -47.43,-1.53 l -61,-1065.24 c -1.22,-25.73 -29.45,-25.73 -30.68,0 l -88.25,1051.29 c -7.01,36.55 -47.14,29.75 -47.14,-7.99 l -46.95,-1279.7 c 0,-159.91 96.68,-289.55 215.94,-289.55 61.59,0 111.2,-50.53 110.06,-112.11 l -48.38,-2627.1 c -1.42,-81.82 64.49,-148.92 146.33,-148.96 81.93,-0.04 147.95,67.16 146.46,149.09 l -50.74,2626.87 c -1.2,61.62 48.43,112.21 110.05,112.21 h 1.59 c 119.25,0 215.94,129.64 215.94,289.55 l -46.28,1279.7 c 0,37.75 -40.13,44.54 -47.13,7.99" /><path
         id="path32"
         style="fill:#e6e6e7;fill-opacity:1;fill-rule:nonzero;stroke:none"
         d="m 9409.65,6016.26 c -60.45,-39.03 -105.17,-99.01 -165.91,-137.56 -19.32,-12.27 -39.63,-21.84 -60.6,-29.49 14.07,-4.39 28.65,-6.96 43.71,-6.96 h 369.17 c 105.99,0 191.92,115.22 191.92,257.34 l 0.01,74.63 c -22.61,-18.65 -47.34,-34.69 -73.88,-47.41 -97.66,-46.83 -213.43,-51.8 -304.42,-110.55" /><path
         id="path34"
         style="fill:#f1f1f2;fill-opacity:1;fill-rule:nonzero;stroke:none"
         d="m 7352.03,8419.18 c -140.79,105.05 -347.72,10.26 -347.72,-159.28 V 5045.07 l -59.25,-1997.18 c -1.8,-98.23 81.92,-178.79 185.86,-178.84 104.06,-0.04 187.92,80.63 186.02,178.98 l -66.3,2094.52 h 67.5 c 143.62,0 260.03,110.05 260.03,245.79 v 2589.78 c 0,171.99 -83.32,334.5 -226.14,441.06" /><path
         id="path36"
         style="fill:#e6e6e7;fill-opacity:1;fill-rule:nonzero;stroke:none"
         d="m 7352.03,8419.18 c -56.06,41.84 -122.5,51.57 -182.3,37.92 28.17,-6.67 55.81,-18.93 81.26,-37.92 142.82,-106.56 226.15,-269.07 226.15,-441.06 V 5388.34 c 0,-135.74 -116.42,-245.79 -260.03,-245.79 h 101.03 c 143.62,0 260.03,110.05 260.03,245.79 v 2589.78 c 0,171.99 -83.32,334.5 -226.14,441.06" /></g></g></svg>