<?xml version="1.0" standalone="no"?><!-- Generator: Gravit.io --><svg xmlns="http://www.w3.org/2000/svg" xmlns:xlink="http://www.w3.org/1999/xlink" style="isolation:isolate" viewBox="0 0 204.498 204.498" width="204.498px" height="204.498px"><defs><clipPath id="_clipPath_2jXId4Ts54p6djrFIZzzby2JvfGfTkrE"><rect width="204.498" height="204.498"/></clipPath></defs><g clip-path="url(#_clipPath_2jXId4Ts54p6djrFIZzzby2JvfGfTkrE)"><g><g><path d=" M 75.992 43.211 C 86.874 43.211 95.703 30.588 95.703 19.71 C 95.703 8.823 86.874 0 75.992 0 C 65.111 0 56.282 8.829 56.282 19.71 C 56.276 30.589 65.105 43.211 75.992 43.211 Z " fill="rgb(255,153,0)"/><path d=" M 182.041 92.156 L 164.754 92.156 C 164.413 82.821 159.377 74.89 152.247 71.51 C 152.338 68.17 150.371 65.019 147.041 63.911 L 109.642 51.44 C 107.827 50.792 90.64 44.806 75.993 44.806 C 60.161 44.806 47.727 51.763 47.204 52.058 C 46.942 52.207 46.793 52.451 46.556 52.624 C 46.12 52.935 45.715 53.267 45.353 53.666 C 44.985 54.059 44.711 54.482 44.443 54.945 C 44.294 55.207 44.056 55.386 43.925 55.667 L 18.984 111.784 C 17.239 115.718 19.008 120.327 22.942 122.075 C 23.971 122.538 25.052 122.745 26.112 122.745 C 29.098 122.745 31.948 121.016 33.239 118.117 L 54.171 70.993 L 54.171 117.253 L 47.966 194.396 C 47.555 199.548 51.388 204.06 56.54 204.468 C 56.79 204.486 57.045 204.498 57.301 204.498 C 62.12 204.498 66.218 200.784 66.611 195.894 L 72.216 126.179 C 73.376 126.691 74.646 126.984 75.988 126.984 C 77.328 126.984 78.606 126.691 79.76 126.168 L 85.365 195.889 C 85.758 200.785 89.856 204.493 94.675 204.493 C 94.931 204.493 95.181 204.486 95.433 204.463 C 100.578 204.049 104.421 199.536 104.007 194.391 L 97.805 117.254 L 97.805 64.055 C 101.769 65.179 104.44 66.131 104.512 66.15 C 104.539 66.162 104.576 66.156 104.607 66.162 C 104.637 66.174 104.665 66.199 104.702 66.21 L 131.685 75.21 C 127.423 79.305 124.634 85.318 124.39 92.138 L 107.103 92.138 C 104.82 92.138 102.942 94.017 102.942 96.297 C 102.942 98.586 104.071 100.459 105.444 100.459 C 106.811 100.459 108.303 102.298 108.754 104.551 L 114.606 133.846 C 115.057 136.093 117.304 137.932 119.587 137.932 L 169.548 137.932 C 171.838 137.932 174.078 136.093 174.529 133.846 L 180.381 104.551 C 180.831 102.298 182.323 100.459 183.693 100.459 C 185.063 100.459 186.189 98.586 186.189 96.297 C 186.2 94.035 184.337 92.156 182.041 92.156 Z  M 134.99 76.33 L 142.108 78.702 C 142.93 78.97 143.764 79.101 144.581 79.101 C 147.528 79.101 150.201 77.359 151.517 74.635 C 157.283 77.667 161.32 84.332 161.637 92.156 L 127.513 92.156 C 127.78 85.586 130.648 79.798 134.99 76.33 Z  M 133.827 129.589 L 124.213 129.589 L 124.213 119.968 L 133.827 119.968 L 133.827 129.589 L 133.827 129.589 Z  M 133.827 113.185 L 124.213 113.185 L 124.213 103.577 L 133.827 103.577 L 133.827 113.185 L 133.827 113.185 Z  M 149.379 129.589 L 139.765 129.589 L 139.765 119.968 L 149.379 119.968 L 149.379 129.589 L 149.379 129.589 Z  M 149.379 113.185 L 139.765 113.185 L 139.765 103.577 L 149.379 103.577 L 149.379 113.185 L 149.379 113.185 Z  M 164.937 129.589 L 155.316 129.589 L 155.316 119.968 L 164.937 119.968 L 164.937 129.589 L 164.937 129.589 Z  M 164.937 113.185 L 155.316 113.185 L 155.316 103.577 L 164.937 103.577 L 164.937 113.185 L 164.937 113.185 Z " fill="rgb(255,153,0)"/></g></g></g></svg>