<?xml version="1.0" standalone="no"?><!-- Generator: Gravit.io --><svg xmlns="http://www.w3.org/2000/svg" xmlns:xlink="http://www.w3.org/1999/xlink" style="isolation:isolate" viewBox="0 0 612 612" width="612px" height="612px"><defs><clipPath id="_clipPath_vpjUSTIJHEONze0B7sgrCtmKrheolfcO"><rect width="612" height="612"/></clipPath></defs><g clip-path="url(#_clipPath_vpjUSTIJHEONze0B7sgrCtmKrheolfcO)"><g><path d=" M 336.884 124.068 L 290.118 124.068 L 290.118 147.246 L 268.271 147.246 L 268.271 124.068 L 221.218 124.068 C 204.212 124.068 190.426 137.854 190.426 154.861 L 190.426 227.101 L 243.875 277.091 C 247.369 280.362 250.082 284.207 252.222 288.332 L 336.885 288.332 C 353.891 288.332 367.678 274.546 367.678 257.54 L 367.678 154.86 C 367.677 137.854 353.892 124.068 336.884 124.068 Z  M 292.657 213.346 L 292.657 258.596 L 265.325 258.596 L 265.325 213.346 C 246.694 213.346 246.699 213.346 246.003 213.346 L 279.11 174.168 L 312.096 213.49 C 312.099 213.49 311.909 213.346 292.657 213.346 Z  M 11.757 63.349 C 11.757 28.362 40.12 0 75.106 0 C 110.092 0 138.455 28.362 138.455 63.349 C 138.455 98.336 110.093 126.698 75.106 126.698 C 40.119 126.697 11.757 98.335 11.757 63.349 Z  M 230.728 321.411 C 226.661 325.762 221.149 327.962 215.628 327.962 C 210.571 327.962 205.5 326.114 201.512 322.39 L 116.45 242.83 L 116.45 364.782 C 116.45 377.8 110.312 389.27 100.906 396.848 L 147.038 586.443 C 149.738 597.535 142.93 608.718 131.837 611.414 C 130.197 611.818 128.551 611.999 126.937 611.999 C 117.621 611.999 109.167 605.67 106.866 596.214 L 80.376 487.347 L 65.458 591.602 C 63.833 602.896 53.351 610.759 42.066 609.134 C 30.762 607.519 22.914 597.052 24.528 585.747 L 51.324 398.514 C 40.729 391.028 33.763 378.742 33.763 364.783 L 33.763 204.267 C 33.763 181.435 52.275 162.924 75.106 162.924 C 80.39 162.924 85.4 164.008 90.046 165.815 C 93.684 166.545 97.183 168.2 100.092 170.918 L 229.752 292.19 C 238.091 299.993 238.53 313.074 230.728 321.411 Z  M 536.896 126.697 C 501.91 126.697 473.545 98.335 473.545 63.348 C 473.545 28.361 501.909 0 536.896 0 C 571.882 0 600.243 28.362 600.243 63.349 C 600.243 98.336 571.882 126.697 536.896 126.697 Z  M 382.247 292.19 L 511.907 170.918 C 514.815 168.2 518.315 166.545 521.954 165.815 C 526.599 164.007 531.608 162.924 536.893 162.924 C 559.725 162.924 578.237 181.435 578.237 204.267 L 578.237 364.782 C 578.237 378.741 571.27 391.027 560.676 398.513 L 587.471 585.746 C 589.086 597.051 581.239 607.517 569.934 609.133 C 558.649 610.758 548.168 602.895 546.543 591.601 L 531.625 487.346 L 505.133 596.213 C 502.833 605.671 494.38 612 485.063 612 C 483.448 612 481.803 611.818 480.163 611.415 C 469.071 608.72 462.263 597.536 464.964 586.443 L 511.095 396.849 C 501.689 389.271 495.55 377.8 495.55 364.782 L 495.55 242.83 L 410.489 322.39 C 406.501 326.116 401.428 327.962 396.372 327.962 C 390.852 327.962 385.341 325.762 381.272 321.411 C 373.472 313.074 373.911 299.993 382.247 292.19 Z " fill="rgb(0,150,136)"/></g></g></svg>