<?xml version="1.0" standalone="no"?><!-- Generator: Gravit.io --><svg xmlns="http://www.w3.org/2000/svg" xmlns:xlink="http://www.w3.org/1999/xlink" style="isolation:isolate" viewBox="0 0 512.171 512.171" width="512.171px" height="512.171px"><defs><clipPath id="_clipPath_awh2SMREGcibQRvlimDFPWzaaruuAc4s"><rect width="512.171" height="512.171"/></clipPath></defs><g clip-path="url(#_clipPath_awh2SMREGcibQRvlimDFPWzaaruuAc4s)"><g><g><path d=" M 479.046 283.925 C 477.382 279.936 473.499 277.333 469.19 277.333 L 352.305 277.333 L 352.305 10.667 C 352.305 4.779 347.526 0 341.638 0 L 170.971 0 C 165.083 0 160.304 4.779 160.304 10.667 L 160.304 277.334 L 42.971 277.334 C 38.662 277.334 34.779 279.937 33.115 283.905 C 31.472 287.894 32.368 292.481 35.419 295.532 L 248.219 509.036 C 250.224 511.041 252.934 512.172 255.771 512.172 C 258.608 512.172 261.318 511.041 263.323 509.057 L 476.742 295.553 C 479.793 292.501 480.71 287.915 479.046 283.925 Z " fill="rgb(91,187,113)"/></g></g></g></svg>