<?xml version="1.0" standalone="no"?><!-- Generator: Gravit.io --><svg xmlns="http://www.w3.org/2000/svg" xmlns:xlink="http://www.w3.org/1999/xlink" style="isolation:isolate" viewBox="0 0 28 28" width="28px" height="28px"><defs><clipPath id="_clipPath_5dnE67dnCLntgnjL8YtuAkgR0hPXGBDQ"><rect width="28" height="28"/></clipPath></defs><g clip-path="url(#_clipPath_5dnE67dnCLntgnjL8YtuAkgR0hPXGBDQ)"><g><g><path d=" M 6 18 C 6 16 6 8 6 8 C 6 8 6.005 7.55 6.239 7 C 4.16 7 2 7 2 7 C 2 7 0 7 0 9 L 0 16 C 0 18 2 18 2 18 L 2 28 L 8 28 L 8 20 C 8 20 6 20 6 18 Z " fill="rgb(190,221,77)"/><path d=" M 6 6 C 6.52 6 7.001 5.856 7.427 5.624 C 7.486 5.588 7.552 5.556 7.615 5.521 C 8.446 4.988 9 4.061 9 3 C 9 1.343 7.657 0 6 0 C 4.343 0 3 1.343 3 3 C 3 4.657 4.343 6 6 6 Z " fill="rgb(166,160,172)"/><path d=" M 26 7 L 21.762 7 C 21.995 7.55 22 8 22 8 C 22 8 22 16 22 18 C 22 20 20 20 20 20 L 20 28 L 26 28 L 26 18 C 26 18 28 18 28 16 C 28 14 28 9 28 9 C 28 9 28 7 26 7 Z " fill="rgb(65,183,151)"/><path d=" M 20.38 5.519 C 20.445 5.554 20.514 5.587 20.574 5.624 C 21 5.856 21.48 6 22 6 C 23.657 6 25 4.657 25 3 C 25 1.343 23.657 0 22 0 C 20.343 0 19 1.343 19 3 C 19 4.059 19.552 4.985 20.38 5.519 Z " fill="rgb(166,160,172)"/><circle vector-effect="non-scaling-stroke" cx="14" cy="3" r="3" fill="rgb(166,160,172)"/><path d=" M 20 9 C 20 9 20 7 18 7 C 17.5 7 10 7 10 7 C 10 7 8 7 8 9 L 8 16 C 8 18 10 18 10 18 L 10 28 L 18 28 L 18 18 C 18 18 20 18 20 16 C 20 14 20 9 20 9 Z " fill="rgb(183,49,49)"/></g></g></g></svg>