<?xml version="1.0" encoding="UTF-8" standalone="no"?>
<svg
   xmlns:dc="http://purl.org/dc/elements/1.1/"
   xmlns:cc="http://creativecommons.org/ns#"
   xmlns:rdf="http://www.w3.org/1999/02/22-rdf-syntax-ns#"
   xmlns:svg="http://www.w3.org/2000/svg"
   xmlns="http://www.w3.org/2000/svg"
   viewBox="0 0 1461.3333 1040"
   height="1040"
   width="1461.3333"
   xml:space="preserve"
   id="svg2"
   version="1.1"><metadata
     id="metadata8"><rdf:RDF><cc:Work
         rdf:about=""><dc:format>image/svg+xml</dc:format><dc:type
           rdf:resource="http://purl.org/dc/dcmitype/StillImage" /></cc:Work></rdf:RDF></metadata><defs
     id="defs6" /><g
     transform="matrix(1.3333333,0,0,-1.3333333,0,1040)"
     id="g10"><g
       transform="scale(0.1)"
       id="g12"><path
         id="path14"
         style="fill:#70d1f6;fill-opacity:1;fill-rule:nonzero;stroke:none"
         d="M 0,0 H 10960 V 7800 H 0 Z" /><path
         id="path16"
         style="fill:#00adef;fill-opacity:1;fill-rule:nonzero;stroke:none"
         d="m 3368.92,5787.93 c 0,-710.14 -575.68,-1285.82 -1285.82,-1285.82 -710.14,0 -1285.827,575.68 -1285.827,1285.82 0,710.14 575.687,1285.82 1285.827,1285.82 710.14,0 1285.82,-575.68 1285.82,-1285.82" /><path
         id="path18"
         style="fill:#00adef;fill-opacity:1;fill-rule:nonzero;stroke:none"
         d="m 3368.92,2078.74 c 0,-710.14 -575.68,-1285.818 -1285.82,-1285.818 -710.14,0 -1285.827,575.678 -1285.827,1285.818 0,710.13 575.687,1285.82 1285.827,1285.82 710.14,0 1285.82,-575.69 1285.82,-1285.82" /><path
         id="path20"
         style="fill:#00adef;fill-opacity:1;fill-rule:nonzero;stroke:none"
         d="m 6974.92,5787.93 c 0,-710.14 -575.68,-1285.82 -1285.82,-1285.82 -710.14,0 -1285.82,575.68 -1285.82,1285.82 0,710.14 575.68,1285.82 1285.82,1285.82 710.14,0 1285.82,-575.68 1285.82,-1285.82" /><path
         id="path22"
         style="fill:#00adef;fill-opacity:1;fill-rule:nonzero;stroke:none"
         d="m 10373.7,5787.93 c 0,-710.14 -575.73,-1285.82 -1285.87,-1285.82 -710.13,0 -1285.81,575.68 -1285.81,1285.82 0,710.14 575.68,1285.82 1285.81,1285.82 710.14,0 1285.87,-575.68 1285.87,-1285.82" /><path
         id="path24"
         style="fill:#00adef;fill-opacity:1;fill-rule:nonzero;stroke:none"
         d="m 6974.92,2078.74 c 0,-710.14 -575.68,-1285.818 -1285.82,-1285.818 -710.14,0 -1285.82,575.678 -1285.82,1285.818 0,710.13 575.68,1285.82 1285.82,1285.82 710.14,0 1285.82,-575.69 1285.82,-1285.82" /><path
         id="path26"
         style="fill:#00adef;fill-opacity:1;fill-rule:nonzero;stroke:none"
         d="m 10373.7,2078.74 c 0,-710.14 -575.73,-1285.818 -1285.87,-1285.818 -710.13,0 -1285.81,575.678 -1285.81,1285.818 0,710.13 575.68,1285.82 1285.81,1285.82 710.14,0 1285.87,-575.69 1285.87,-1285.82" /><path
         id="path28"
         style="fill:#ffffff;fill-opacity:1;fill-rule:nonzero;stroke:none"
         d="m 3265.28,5863.9 c 0,-710.14 -575.68,-1285.82 -1285.82,-1285.82 -710.14,0 -1285.819,575.68 -1285.819,1285.82 0,710.14 575.679,1285.82 1285.819,1285.82 710.14,0 1285.82,-575.68 1285.82,-1285.82" /><path
         id="path30"
         style="fill:#ed1c24;fill-opacity:1;fill-rule:nonzero;stroke:none"
         d="m 1545.41,5172.52 c 131.78,-143.25 353.48,-163.86 509.67,-42.05 156.2,121.81 190.23,341.85 83.4,504.56 l -593.07,-462.51" /><path
         id="path32"
         style="fill:#ed1c24;fill-opacity:1;fill-rule:nonzero;stroke:none"
         d="m 2100.32,5683.96 c -131.78,143.25 -353.48,163.86 -509.67,42.05 -156.2,-121.81 -190.23,-341.85 -83.4,-504.56 l 593.07,462.51" /><path
         id="path34"
         style="fill:#ed1c24;fill-opacity:1;fill-rule:nonzero;stroke:none"
         d="m 1234.94,6154.6 c 44.68,-189.44 227.84,-316.05 423.68,-286.4 195.85,29.64 333.34,204.78 319.94,398.96 L 1234.94,6154.6" /><path
         id="path36"
         style="fill:#ed1c24;fill-opacity:1;fill-rule:nonzero;stroke:none"
         d="m 1969.27,6328.52 c -44.67,189.44 -227.83,316.04 -423.68,286.4 -195.84,-29.65 -333.33,-204.78 -319.94,-398.96 l 743.62,112.56" /><path
         id="path38"
         style="fill:#00adef;fill-opacity:1;fill-rule:nonzero;stroke:none"
         d="m 2179.76,6153.61 c -119.6,-153.56 -103.42,-375.63 42.44,-509.64 145.86,-134.01 368.5,-131.35 511.4,0.81 l -553.84,508.83" /><path
         id="path40"
         style="fill:#00adef;fill-opacity:1;fill-rule:nonzero;stroke:none"
         d="m 2775.58,5690.47 c 119.6,153.57 103.43,375.63 -42.43,509.64 -145.86,134.01 -368.51,131.35 -511.4,-0.81 l 553.83,-508.83" /><path
         id="path42"
         style="fill:#ffffff;fill-opacity:1;fill-rule:nonzero;stroke:none"
         d="m 3265.28,2154.7 c 0,-710.14 -575.68,-1285.821 -1285.82,-1285.821 -710.14,0 -1285.819,575.681 -1285.819,1285.821 0,710.14 575.679,1285.82 1285.819,1285.82 710.14,0 1285.82,-575.68 1285.82,-1285.82" /><path
         id="path44"
         style="fill:#ed1c24;fill-opacity:1;fill-rule:nonzero;stroke:none"
         d="m 2158.2,2154.7 c -119.6,-153.56 -103.42,-375.63 42.44,-509.64 145.86,-134.01 368.5,-131.35 511.4,0.81 L 2158.2,2154.7" /><path
         id="path46"
         style="fill:#ed1c24;fill-opacity:1;fill-rule:nonzero;stroke:none"
         d="m 2754.02,1691.56 c 119.6,153.57 103.43,375.63 -42.43,509.65 -145.86,134 -368.51,131.34 -511.4,-0.81 l 553.83,-508.84" /><path
         id="path48"
         style="fill:#ed1c24;fill-opacity:1;fill-rule:nonzero;stroke:none"
         d="m 1979.46,2264.77 v 355.49 c 0,196.79 -159.52,356.32 -356.31,356.32 v 0 c -196.79,0 -356.31,-159.53 -356.31,-356.32 v -355.49 h 712.62" /><path
         id="path50"
         style="fill:#00adef;fill-opacity:1;fill-rule:nonzero;stroke:none"
         d="m 1266.84,2154.7 v -355.5 c 0,-196.79 159.52,-356.31 356.31,-356.31 v 0 c 196.79,0 356.31,159.52 356.31,356.31 v 355.5 h -712.62" /><path
         id="path52"
         style="fill:#ffffff;fill-opacity:1;fill-rule:nonzero;stroke:none"
         d="m 6871.29,5863.9 c 0,-710.14 -575.68,-1285.82 -1285.82,-1285.82 -710.14,0 -1285.83,575.68 -1285.83,1285.82 0,710.14 575.69,1285.82 1285.83,1285.82 710.14,0 1285.82,-575.68 1285.82,-1285.82" /><path
         id="path54"
         style="fill:#ed1c24;fill-opacity:1;fill-rule:nonzero;stroke:none"
         d="m 5800.44,6166.5 -303.54,303.54 c -168.02,168.03 -440.45,168.03 -608.47,0.01 l -0.01,-0.01 c -168.02,-168.02 -168.01,-440.45 0.01,-608.47 l 303.54,-303.54 608.47,608.47" /><path
         id="path56"
         style="fill:#a61217;fill-opacity:1;fill-rule:nonzero;stroke:none"
         d="m 5285.95,5464.05 303.54,-303.54 c 168.03,-168.03 440.45,-168.02 608.47,0 v 0 c 168.03,168.03 168.03,440.44 0,608.47 l -303.54,303.54 -608.47,-608.47" /><path
         id="path58"
         style="fill:#ffffff;fill-opacity:1;fill-rule:nonzero;stroke:none"
         d="m 10270,5863.9 c 0,-710.14 -575.66,-1285.82 -1285.8,-1285.82 -710.14,0 -1285.82,575.68 -1285.82,1285.82 0,710.14 575.68,1285.82 1285.82,1285.82 710.14,0 1285.8,-575.68 1285.8,-1285.82" /><path
         id="path60"
         style="fill:#00adef;fill-opacity:1;fill-rule:nonzero;stroke:none"
         d="m 9483.16,4806.58 h -997.92 c -50.17,0 -90.83,40.67 -90.83,90.83 v 1932.97 c 0,50.17 40.66,90.83 90.83,90.83 h 997.92 c 50.17,0 90.83,-40.66 90.83,-90.83 V 4897.41 c 0,-50.16 -40.66,-90.83 -90.83,-90.83" /><path
         id="path62"
         style="fill:#ffffff;fill-opacity:1;fill-rule:nonzero;stroke:none"
         d="m 8894.29,6581.36 c 0,-97.86 -79.33,-177.19 -177.19,-177.19 -97.85,0 -177.18,79.33 -177.18,177.19 0,97.86 79.33,177.19 177.18,177.19 97.86,0 177.19,-79.33 177.19,-177.19" /><path
         id="path64"
         style="fill:#ffffff;fill-opacity:1;fill-rule:nonzero;stroke:none"
         d="m 9428.76,6581.36 c 0,-97.86 -79.33,-177.19 -177.19,-177.19 -97.86,0 -177.19,79.33 -177.19,177.19 0,97.86 79.33,177.19 177.19,177.19 97.86,0 177.19,-79.33 177.19,-177.19" /><path
         id="path66"
         style="fill:#ffffff;fill-opacity:1;fill-rule:nonzero;stroke:none"
         d="m 8894.29,6093.37 c 0,-97.86 -79.33,-177.19 -177.19,-177.19 -97.85,0 -177.18,79.33 -177.18,177.19 0,97.86 79.33,177.19 177.18,177.19 97.86,0 177.19,-79.33 177.19,-177.19" /><path
         id="path68"
         style="fill:#ffffff;fill-opacity:1;fill-rule:nonzero;stroke:none"
         d="m 9428.76,6093.37 c 0,-97.86 -79.33,-177.19 -177.19,-177.19 -97.86,0 -177.19,79.33 -177.19,177.19 0,97.86 79.33,177.19 177.19,177.19 97.86,0 177.19,-79.33 177.19,-177.19" /><path
         id="path70"
         style="fill:#ffffff;fill-opacity:1;fill-rule:nonzero;stroke:none"
         d="m 8894.29,5605.38 c 0,-97.86 -79.33,-177.19 -177.19,-177.19 -97.85,0 -177.18,79.33 -177.18,177.19 0,97.85 79.33,177.19 177.18,177.19 97.86,0 177.19,-79.34 177.19,-177.19" /><path
         id="path72"
         style="fill:#ffffff;fill-opacity:1;fill-rule:nonzero;stroke:none"
         d="m 9428.76,5605.38 c 0,-97.86 -79.33,-177.19 -177.19,-177.19 -97.86,0 -177.19,79.33 -177.19,177.19 0,97.85 79.33,177.19 177.19,177.19 97.86,0 177.19,-79.34 177.19,-177.19" /><path
         id="path74"
         style="fill:#ffffff;fill-opacity:1;fill-rule:nonzero;stroke:none"
         d="m 8894.29,5117.39 c 0,-97.86 -79.33,-177.19 -177.19,-177.19 -97.85,0 -177.18,79.33 -177.18,177.19 0,97.85 79.33,177.18 177.18,177.18 97.86,0 177.19,-79.33 177.19,-177.18" /><path
         id="path76"
         style="fill:#ffffff;fill-opacity:1;fill-rule:nonzero;stroke:none"
         d="m 9428.76,5117.39 c 0,-97.86 -79.33,-177.19 -177.19,-177.19 -97.86,0 -177.19,79.33 -177.19,177.19 0,97.85 79.33,177.18 177.19,177.18 97.86,0 177.19,-79.33 177.19,-177.18" /><path
         id="path78"
         style="fill:#ffffff;fill-opacity:1;fill-rule:nonzero;stroke:none"
         d="m 6871.29,2154.7 c 0,-710.14 -575.68,-1285.821 -1285.82,-1285.821 -710.14,0 -1285.83,575.681 -1285.83,1285.821 0,710.14 575.69,1285.82 1285.83,1285.82 710.14,0 1285.82,-575.68 1285.82,-1285.82" /><path
         id="path80"
         style="fill:#00adef;fill-opacity:1;fill-rule:nonzero;stroke:none"
         d="m 5036.39,1333.69 h 1030.2 v 1293.57 h -1030.2 z" /><path
         id="path82"
         style="fill:#00adef;fill-opacity:1;fill-rule:nonzero;stroke:none"
         d="m 5261.02,2662.11 h 580.941 v 209.141 H 5261.02 Z" /><path
         id="path84"
         style="fill:#00adef;fill-opacity:1;fill-rule:nonzero;stroke:none"
         d="m 5280.38,2913.85 h 542.223 v 108.449 H 5280.38 Z" /><path
         id="path86"
         style="fill:#ffffff;fill-opacity:1;fill-rule:nonzero;stroke:none"
         d="m 5117.72,1426.64 h 867.543 v 945 H 5117.72 Z" /><path
         id="path88"
         style="fill:#ed1c24;fill-opacity:1;fill-rule:nonzero;stroke:none"
         d="m 5169.2,1611.16 c -31.41,-40.33 -27.16,-98.64 11.14,-133.83 38.3,-35.18 96.76,-34.49 134.28,0.22 l -145.42,133.61" /><path
         id="path90"
         style="fill:#ed1c24;fill-opacity:1;fill-rule:nonzero;stroke:none"
         d="m 5325.65,1489.55 c 31.4,40.32 27.16,98.63 -11.14,133.82 -38.31,35.19 -96.77,34.49 -134.29,-0.22 l 145.43,-133.6" /><path
         id="path92"
         style="fill:#ed1c24;fill-opacity:1;fill-rule:nonzero;stroke:none"
         d="m 5424.59,1532.54 c 9.03,-50.31 55.26,-86.09 107.03,-81.09 51.77,5 90.3,48.97 89.54,100.08 l -196.57,-18.99" /><path
         id="path94"
         style="fill:#ed1c24;fill-opacity:1;fill-rule:nonzero;stroke:none"
         d="m 5619.59,1567.75 c -9.03,50.3 -55.27,86.09 -107.04,81.09 -51.77,-5 -90.3,-48.98 -89.53,-100.08 l 196.57,18.99" /><path
         id="path96"
         style="fill:#ed1c24;fill-opacity:1;fill-rule:nonzero;stroke:none"
         d="m 5329.29,1829.06 c -41.02,-30.49 -52.47,-87.82 -24.94,-131.95 27.53,-44.13 84.07,-59.04 129.48,-35.59 l -104.54,167.54" /><path
         id="path98"
         style="fill:#ed1c24;fill-opacity:1;fill-rule:nonzero;stroke:none"
         d="m 5447.66,1670.14 c 41.01,30.49 52.47,87.83 24.93,131.95 -27.53,44.13 -84.06,59.04 -129.48,35.6 l 104.55,-167.55" /><path
         id="path100"
         style="fill:#ed1c24;fill-opacity:1;fill-rule:nonzero;stroke:none"
         d="m 5696.88,1831.98 c -46.47,21.28 -102.24,3.73 -127.67,-41.65 -25.43,-45.36 -11.3,-102.1 31.11,-130.63 l 96.56,172.28" /><path
         id="path102"
         style="fill:#ed1c24;fill-opacity:1;fill-rule:nonzero;stroke:none"
         d="m 5614.53,1651.74 c 46.47,-21.29 102.24,-3.74 127.67,41.63 25.43,45.38 11.3,102.11 -31.11,130.64 l -96.56,-172.27" /><path
         id="path104"
         style="fill:#ed1c24;fill-opacity:1;fill-rule:nonzero;stroke:none"
         d="m 5884.72,1992.7 c -46.47,21.28 -102.24,3.73 -127.67,-41.64 -25.43,-45.37 -11.3,-102.1 31.11,-130.63 l 96.56,172.27" /><path
         id="path106"
         style="fill:#ed1c24;fill-opacity:1;fill-rule:nonzero;stroke:none"
         d="m 5802.37,1812.46 c 46.47,-21.28 102.24,-3.73 127.67,41.64 25.43,45.37 11.3,102.1 -31.11,130.63 l -96.56,-172.27" /><path
         id="path108"
         style="fill:#ed1c24;fill-opacity:1;fill-rule:nonzero;stroke:none"
         d="m 5450.68,2011.79 c -34.4,-37.8 -34.62,-96.27 0.88,-134.28 35.5,-38.02 93.84,-41.78 133.91,-10.05 l -134.79,144.33" /><path
         id="path110"
         style="fill:#ed1c24;fill-opacity:1;fill-rule:nonzero;stroke:none"
         d="m 5597.38,1878.58 c 34.39,37.8 34.61,96.27 -0.89,134.28 -35.5,38.01 -93.84,41.79 -133.91,10.05 l 134.8,-144.33" /><path
         id="path112"
         style="fill:#ed1c24;fill-opacity:1;fill-rule:nonzero;stroke:none"
         d="m 5172.85,1897.02 c 33.8,-38.34 91.88,-44.98 133.56,-13.87 41.69,31.11 51.85,88.69 24.71,131.99 l -158.27,-118.12" /><path
         id="path114"
         style="fill:#ed1c24;fill-opacity:1;fill-rule:nonzero;stroke:none"
         d="m 5321.37,2028.2 c -33.8,38.34 -91.89,44.99 -133.57,13.88 -41.68,-31.11 -51.84,-88.69 -24.7,-132 l 158.27,118.12" /><path
         id="path116"
         style="fill:#ed1c24;fill-opacity:1;fill-rule:nonzero;stroke:none"
         d="m 5724.42,1498.04 c 29.83,-41.5 86.98,-53.86 131.54,-27.03 44.56,26.82 60.37,83.11 37.65,128.89 l -169.19,-101.86" /><path
         id="path118"
         style="fill:#ed1c24;fill-opacity:1;fill-rule:nonzero;stroke:none"
         d="m 5885.21,1613.86 c -29.84,41.5 -86.98,53.87 -131.54,27.04 -44.56,-26.83 -60.37,-83.11 -37.65,-128.9 l 169.19,101.86" /><path
         id="path120"
         style="fill:#ffffff;fill-opacity:1;fill-rule:nonzero;stroke:none"
         d="m 10270,2154.7 c 0,-710.14 -575.66,-1285.821 -1285.8,-1285.821 -710.14,0 -1285.82,575.681 -1285.82,1285.821 0,710.14 575.68,1285.82 1285.82,1285.82 710.14,0 1285.8,-575.68 1285.8,-1285.82" /><path
         id="path122"
         style="fill:#ed1c24;fill-opacity:1;fill-rule:nonzero;stroke:none"
         d="m 9439.27,2828.6 h -875.29 c -153.36,0 -278.85,-125.48 -278.85,-278.86 v -77.37 c 0,-153.36 125.49,-278.85 278.85,-278.85 h 875.29 c 153.37,0 278.86,125.49 278.86,278.85 v 77.37 c 0,153.38 -125.49,278.86 -278.86,278.86" /><path
         id="path124"
         style="fill:#ffffff;fill-opacity:1;fill-rule:nonzero;stroke:none"
         d="m 9397.96,2778.25 h -378.9 v -534.38 h 378.9 c 132.77,0 241.42,105.59 241.42,234.64 v 65.1 c 0,129.05 -108.65,234.64 -241.42,234.64" /><path
         id="path126"
         style="fill:#00adef;fill-opacity:1;fill-rule:nonzero;stroke:none"
         d="m 8563.98,1455.72 h 875.29 c 153.37,0 278.86,125.48 278.86,278.86 v 77.37 c 0,153.36 -125.49,278.85 -278.86,278.85 h -875.29 c -153.36,0 -278.85,-125.49 -278.85,-278.85 v -77.37 c 0,-153.38 125.49,-278.86 278.85,-278.86" /><path
         id="path128"
         style="fill:#ffffff;fill-opacity:1;fill-rule:nonzero;stroke:none"
         d="m 8605.3,1506.07 h 378.9 v 534.38 h -378.9 c -132.77,0 -241.42,-105.59 -241.42,-234.64 v -65.1 c 0,-129.05 108.65,-234.64 241.42,-234.64" /><path
         id="path130"
         style="fill:#5690a0;fill-opacity:1;fill-rule:nonzero;stroke:none"
         d="m 5587.89,116.813 c -5.39,0 -10.37,4.699 -10.37,4.699 l -30.45,190.218 c 18.46,0 41.56,1.391 48.48,1.391 5.41,0 10.37,-4.711 10.37,-4.711 l 9.31,-93.058 c 0.8,-8.012 0.86,-19.141 0.54,-30.864 3,12.801 6.29,24.91 9.51,33.082 l 37.02,94.18 c 16.42,0 36.8,1.371 43.13,1.371 h 0.02 c 5.4,0 10.37,-4.711 10.37,-4.711 l -89.05,-190.219 c -9.76,0 -33.17,-1.378 -38.88,-1.378" /><path
         id="path132"
         style="fill:#5690a0;fill-opacity:1;fill-rule:nonzero;stroke:none"
         d="m 5729.76,115.43 c -31.23,0 -51.61,19.742 -51.61,53.062 0,38.488 27.28,90.719 75.82,90.719 26.58,0 43.24,-15.742 43.24,-39.93 0,-20.711 -11.56,-34.41 -40.37,-40.34 l -30.22,-6.242 c 2.32,-13.027 10.51,-19.398 24.1,-19.398 16.65,0 27.79,12.57 27.79,12.57 0,0 8.5,-4.742 8.5,-14.461 0,-17.262 -26.46,-35.98 -57.25,-35.98 m 16.22,111.679 c -11.98,0 -17.25,-19.339 -19.17,-33.847 l 19.3,6.117 c 6.45,2.031 8.38,7.351 8.38,13.43 0,5.742 -1.86,14.3 -8.51,14.3" /><path
         id="path134"
         style="fill:#5690a0;fill-opacity:1;fill-rule:nonzero;stroke:none"
         d="m 5852.3,115.43 c -31.51,0 -50.93,19.742 -50.93,52.539 0,39.011 27.89,91.23 77.23,91.242 24.49,0 42.89,-12.981 42.89,-29.832 0,-21.078 -25.52,-28.777 -25.52,-28.777 0,0 -7.47,23.007 -24.63,23.007 -11.63,0 -18.32,-11.75 -18.32,-36.82 0,-23.098 6.08,-33.488 21.02,-33.488 15.33,0 24.77,10.441 24.77,10.441 0,0 8.5,-4.722 8.5,-14.191 0,-16.512 -25.42,-34.121 -55.01,-34.121 m 26.3,143.781 c 0,0 0,0 -0.01,0 h 0.02 -0.01" /><path
         id="path136"
         style="fill:#5690a0;fill-opacity:1;fill-rule:nonzero;stroke:none"
         d="m 5969.15,115.43 c -26.5,0 -37.18,16.211 -32.69,44.57 l 10,63.262 h -16.67 l 7.26,23.078 c 1.86,5.922 6.75,10.101 12.72,10.101 h 8.11 l 9.72,26.707 c 12.02,2.954 23.22,6.801 28.68,6.801 5.9,0 9.82,-4.5 9.82,-4.5 l -4.61,-29.008 h 30.74 l -6.94,-22.121 c -2.24,-7.121 -5.78,-11.058 -12.99,-11.058 h -16.05 l -8.96,-56.52 c -1.45,-9.14 0.54,-13.371 6.76,-13.441 0.03,0 0.06,0 0.09,0 5.63,0 11.14,3.449 11.14,3.449 0,0 8.57,-4.77 8.57,-13.738 0,-13.84 -19.73,-27.582 -44.7,-27.582" /><path
         id="path138"
         style="fill:#5690a0;fill-opacity:1;fill-rule:nonzero;stroke:none"
         d="m 6078.05,115.43 c -31.24,0 -51.62,19.742 -51.62,53.062 0,38.488 27.27,90.719 75.82,90.719 26.59,0 43.25,-15.742 43.25,-39.93 h -0.01 c 0,-20.711 -11.56,-34.41 -40.36,-40.34 l -30.24,-6.242 c 2.34,-13.027 10.52,-19.398 24.09,-19.398 16.65,0 27.81,12.57 27.81,12.57 0,0 8.5,-4.742 8.5,-14.461 0,-17.262 -26.46,-35.98 -57.24,-35.98 m 16.22,111.679 c -11.99,0 -17.28,-19.339 -19.17,-33.847 l 19.29,6.117 c 6.45,2.031 8.38,7.351 8.38,13.43 0,5.742 -1.86,14.3 -8.5,14.3" /><path
         id="path140"
         style="fill:#5690a0;fill-opacity:1;fill-rule:nonzero;stroke:none"
         d="m 6201.35,115.43 c -31.24,0 -51.62,19.742 -51.62,53.062 0,38.488 27.28,90.719 75.82,90.719 26.59,0 43.25,-15.742 43.25,-39.93 h -0.02 c 0,-20.711 -11.56,-34.41 -40.35,-40.34 l -30.24,-6.242 c 2.33,-13.027 10.51,-19.398 24.09,-19.398 16.67,0 27.8,12.57 27.8,12.57 0,0 8.51,-4.742 8.51,-14.461 0,-17.262 -26.46,-35.98 -57.24,-35.98 m 16.22,111.679 c -11.99,0 -17.28,-19.339 -19.18,-33.847 l 19.3,6.117 c 6.45,2.031 8.38,7.351 8.38,13.43 0,5.742 -1.87,14.3 -8.5,14.3" /><path
         id="path142"
         style="fill:#5690a0;fill-opacity:1;fill-rule:nonzero;stroke:none"
         d="m 6347.07,115.43 c -19.59,0 -33.84,9.34 -48.74,14.379 -4.15,-4.789 -8.23,-9.59 -12.12,-14.379 0,0 -22.08,0.562 -22.08,15.601 0,18.34 30.57,49.789 63.51,85.438 -3.8,0.683 -7.45,1.152 -10.74,1.152 -18.72,0 -25.97,-9.359 -25.97,-9.359 0,0 -9.63,11.078 -8.82,25.488 1.09,19.98 20.09,25.461 35.02,25.461 15.83,0 27.44,-6.109 38.87,-11.121 l 9.27,11.121 c 0,0 22.28,-0.68 22.28,-15.801 0,-17.691 -29.59,-48.582 -61.58,-83.07 6.77,-1.891 13.07,-3.418 19.32,-3.418 16.59,0 24.36,10.719 24.36,10.719 0,0 10.39,-9.602 10.39,-25.481 0,-21.18 -17.94,-26.73 -32.97,-26.73" /><path
         id="path144"
         style="fill:#5690a0;fill-opacity:1;fill-rule:nonzero;stroke:none"
         d="m 6429.84,54.6016 c -26.83,0 -46.84,14.0898 -46.84,30.4179 0,10.7696 8.96,15.7615 8.96,15.7615 0,0 9.12,-8.3005 27.1,-8.3005 16.87,0 39.73,7.1914 43.74,32.6405 l 3.16,19.809 c -11.32,-16.282 -26.34,-29.5 -45.31,-29.5 -21.31,0 -30.81,17.441 -25.19,52.879 l 6.06,38.363 c 3.73,23.5 4.76,42.668 4.76,42.668 15.16,2.801 35.16,9.871 42.17,9.871 5.41,0 10.44,-4.52 10.44,-4.52 l -7.59,-48.019 -7.03,-44.301 c -0.64,-4.082 0.13,-6.371 3.83,-6.371 17.67,0 27.63,50.672 27.63,50.672 3.71,23.5 4.75,42.668 4.75,42.668 15.14,2.801 35.15,9.871 42.16,9.871 5.42,0 10.45,-4.52 10.45,-4.52 l -7.6,-48.019 -12.5,-79.043 c -7.95,-48.4181 -41.14,-73.0274 -83.15,-73.0274" /><path
         id="path146"
         style="fill:#5690a0;fill-opacity:1;fill-rule:nonzero;stroke:none"
         d="m 4514.47,122.602 h -48.95 v 128.847 h 47.54 c 10.73,0 18.9,-0.82 24.53,-2.469 7.55,-2.218 14.03,-6.179 19.42,-11.859 5.39,-5.68 9.49,-12.641 12.3,-20.871 2.82,-8.238 4.22,-18.391 4.22,-30.461 0,-10.598 -1.32,-19.738 -3.95,-27.418 -3.23,-9.371 -7.82,-16.961 -13.8,-22.762 -4.51,-4.398 -10.6,-7.828 -18.28,-10.289 -5.74,-1.808 -13.42,-2.718 -23.03,-2.718 m -22.94,107.05 v -85.339 h 19.43 c 7.26,0 12.51,0.406 15.73,1.226 4.21,1.051 7.72,2.84 10.5,5.363 2.78,2.52 5.05,6.657 6.81,12.438 1.76,5.762 2.64,13.629 2.64,23.601 0,9.957 -0.88,17.598 -2.64,22.938 -1.76,5.332 -4.22,9.492 -7.38,12.473 -3.16,2.988 -7.18,5.007 -12.04,6.07 -3.63,0.82 -10.75,1.23 -21.36,1.23 h -11.69" /><path
         id="path148"
         style="fill:#5690a0;fill-opacity:1;fill-rule:nonzero;stroke:none"
         d="m 4629.88,120.492 c -16.24,0 -28.24,5.297 -36.04,15.91 -6.15,8.489 -9.23,19.219 -9.23,32.168 0,15.469 4.04,27.571 12.13,36.328 8.09,8.762 18.31,13.153 30.68,13.153 13.88,0 24.84,-4.59 32.87,-13.75 8.02,-9.18 11.86,-23.231 11.51,-42.149 h -61.88 c 0.18,-7.324 2.17,-13.031 5.98,-17.093 3.81,-4.079 8.56,-6.11 14.24,-6.11 3.87,0 7.12,1.051 9.75,3.16 2.64,2.11 4.63,5.512 5.98,10.2 l 24.61,-4.129 c -3.16,-9.032 -8.16,-15.899 -14.98,-20.621 -6.83,-4.719 -15.37,-7.067 -25.62,-7.067 m -0.97,78.656 c -5.39,0 -9.85,-1.957 -13.36,-5.886 -3.52,-3.922 -5.24,-9.25 -5.19,-15.992 h 36.92 c -0.18,7.152 -2.02,12.582 -5.54,16.308 -3.51,3.711 -7.79,5.57 -12.83,5.57" /><path
         id="path150"
         style="fill:#5690a0;fill-opacity:1;fill-rule:nonzero;stroke:none"
         d="m 4724.36,120.492 c -12.72,0 -22.78,2.578 -30.19,7.738 -7.41,5.149 -12.26,12.149 -14.55,21 l 24.79,3.782 c 1.05,-4.813 3.19,-8.461 6.41,-10.942 3.23,-2.5 7.74,-3.738 13.54,-3.738 6.39,0 11.19,1.18 14.41,3.52 2.17,1.64 3.25,3.839 3.25,6.589 0,1.868 -0.58,3.43 -1.75,4.661 -1.23,1.168 -3.99,2.25 -8.26,3.25 -19.93,4.386 -32.55,8.41 -37.89,12.039 -7.38,5.039 -11.07,12.039 -11.07,21.007 0,8.082 3.19,14.883 9.58,20.391 6.39,5.5 16.29,8.262 29.71,8.262 12.77,0 22.26,-2.082 28.47,-6.238 6.21,-4.161 10.49,-10.313 12.83,-18.461 l -23.28,-4.301 c -1,3.629 -2.89,6.41 -5.67,8.34 -2.79,1.941 -6.76,2.898 -11.91,2.898 -6.51,0 -11.17,-0.898 -13.98,-2.719 -1.87,-1.289 -2.81,-2.961 -2.81,-5.011 0,-1.758 0.82,-3.246 2.46,-4.477 2.23,-1.641 9.92,-3.961 23.07,-6.941 13.16,-2.993 22.34,-6.661 27.56,-10.989 5.15,-4.402 7.73,-10.523 7.73,-18.371 0,-8.551 -3.57,-15.91 -10.72,-22.062 -7.15,-6.149 -17.73,-9.227 -31.73,-9.227" /><path
         id="path152"
         style="fill:#5690a0;fill-opacity:1;fill-rule:nonzero;stroke:none"
         d="m 4809.53,122.602 h -24.7 v 93.339 h 24.7 v -93.339 m 0,106 h -24.7 v 22.847 h 24.7 v -22.847" /><path
         id="path154"
         style="fill:#5690a0;fill-opacity:1;fill-rule:nonzero;stroke:none"
         d="m 4872.47,84.7188 c -15.82,0 -27.05,2.7109 -33.67,8.1328 -6.62,5.4179 -9.93,12.2894 -9.93,20.6094 0,0.82 0.03,1.809 0.09,2.988 l 28.21,-3.429 c 0.47,-3.278 1.55,-5.54 3.25,-6.77 2.35,-1.762 6.04,-2.641 11.08,-2.641 6.44,0 11.28,0.973 14.5,2.903 2.17,1.289 3.81,3.367 4.92,6.25 0.76,2.047 1.14,5.828 1.14,11.328 v 13.629 c -7.38,-10.078 -16.7,-15.117 -27.95,-15.117 -12.54,0 -22.46,5.296 -29.79,15.91 -5.74,8.379 -8.61,18.808 -8.61,31.289 0,15.64 3.76,27.59 11.29,35.859 7.53,8.262 16.89,12.391 28.08,12.391 11.54,0 21.07,-5.071 28.56,-15.211 v 13.101 h 23.12 V 132.18 c 0,-11.02 -0.91,-19.25 -2.72,-24.7 -1.82,-5.449 -4.37,-9.7183 -7.65,-12.8277 -3.28,-3.1132 -7.66,-5.5429 -13.14,-7.3007 -5.48,-1.75 -12.41,-2.6328 -20.78,-2.6328 m -1.06,114.4292 c -5.92,0 -10.8,-2.296 -14.64,-6.898 -3.83,-4.598 -5.75,-11.609 -5.75,-21.051 0,-9.898 1.92,-17.16 5.75,-21.75 3.84,-4.609 8.58,-6.898 14.2,-6.898 6.04,0 11.13,2.347 15.29,7.078 4.16,4.711 6.24,11.703 6.24,20.961 0,9.66 -1.99,16.84 -5.97,21.531 -3.99,4.692 -9.03,7.027 -15.12,7.027" /><path
         id="path156"
         style="fill:#5690a0;fill-opacity:1;fill-rule:nonzero;stroke:none"
         d="m 5022.5,122.602 h -24.7 v 47.636 c 0,10.071 -0.53,16.594 -1.58,19.551 -1.06,2.961 -2.77,5.262 -5.14,6.902 -2.37,1.641 -5.23,2.457 -8.57,2.457 -4.28,0 -8.12,-1.168 -11.51,-3.507 -3.4,-2.352 -5.73,-5.45 -6.99,-9.321 -1.26,-3.871 -1.89,-11.019 -1.89,-21.441 v -42.277 h -24.7 v 93.339 h 22.94 V 202.23 c 8.14,10.551 18.4,15.821 30.76,15.821 5.45,0 10.43,-0.992 14.94,-2.949 4.52,-1.961 7.93,-4.461 10.24,-7.512 2.32,-3.051 3.93,-6.512 4.84,-10.371 0.9,-3.867 1.36,-9.41 1.36,-16.61 v -58.007" /><path
         id="path158"
         style="fill:#5690a0;fill-opacity:1;fill-rule:nonzero;stroke:none"
         d="m 5082,120.492 c -16.23,0 -28.24,5.297 -36.04,15.91 -6.15,8.489 -9.23,19.219 -9.23,32.168 0,15.469 4.05,27.571 12.13,36.328 8.09,8.762 18.32,13.153 30.68,13.153 13.89,0 24.84,-4.59 32.87,-13.75 8.03,-9.18 11.87,-23.231 11.51,-42.149 h -61.87 c 0.17,-7.324 2.17,-13.031 5.97,-17.093 3.82,-4.079 8.56,-6.11 14.24,-6.11 3.87,0 7.12,1.051 9.76,3.16 2.63,2.11 4.63,5.512 5.98,10.2 l 24.6,-4.129 c -3.16,-9.032 -8.15,-15.899 -14.98,-20.621 -6.82,-4.719 -15.37,-7.067 -25.62,-7.067 m -0.97,78.656 c -5.39,0 -9.84,-1.957 -13.35,-5.886 -3.52,-3.922 -5.25,-9.25 -5.19,-15.992 h 36.91 c -0.17,7.152 -2.02,12.582 -5.54,16.308 -3.51,3.711 -7.79,5.57 -12.83,5.57" /><path
         id="path160"
         style="fill:#5690a0;fill-opacity:1;fill-rule:nonzero;stroke:none"
         d="m 5173.94,120.492 c -10.72,0 -19.91,4.317 -27.56,12.969 -7.64,8.629 -11.46,20.687 -11.46,36.16 0,15.82 3.72,27.84 11.16,36.078 7.44,8.231 16.84,12.352 28.21,12.352 10.43,0 19.45,-4.34 27.07,-13.012 v 46.41 h 24.7 V 122.602 h -22.94 v 13.707 c -3.81,-5.329 -8.31,-9.309 -13.49,-11.911 -5.19,-2.597 -10.42,-3.906 -15.69,-3.906 m 6.85,78.656 c -5.85,0 -10.76,-2.328 -14.72,-6.976 -3.95,-4.672 -5.93,-11.621 -5.93,-20.883 0,-9.957 1.38,-17.168 4.13,-21.617 3.99,-6.442 9.55,-9.672 16.7,-9.672 5.68,0 10.52,2.422 14.5,7.25 3.99,4.84 5.98,12.063 5.98,21.672 0,10.719 -1.94,18.437 -5.8,23.148 -3.87,4.719 -8.82,7.078 -14.86,7.078" /><path
         id="path162"
         style="fill:#5690a0;fill-opacity:1;fill-rule:nonzero;stroke:none"
         d="m 5344.28,120.492 c -5.34,0 -10.6,1.34 -15.78,3.996 -5.19,2.664 -9.65,6.602 -13.4,11.821 v -13.707 h -22.94 v 128.847 h 24.69 v -46.41 c 7.62,8.672 16.65,13.012 27.07,13.012 11.37,0 20.77,-4.121 28.22,-12.352 7.44,-8.238 11.16,-20.051 11.16,-35.461 0,-15.937 -3.79,-28.218 -11.38,-36.828 -7.59,-8.609 -16.81,-12.918 -27.64,-12.918 m -6.95,78.656 c -5.91,0 -10.84,-2.296 -14.77,-6.898 -3.92,-4.598 -5.88,-11.578 -5.88,-20.961 0,-9.668 1.52,-16.82 4.57,-21.437 4.27,-6.571 9.96,-9.852 17.05,-9.852 5.45,0 10.09,2.328 13.93,6.988 3.84,4.653 5.76,11.992 5.76,22.024 0,10.66 -1.94,18.347 -5.8,23.058 -3.87,4.719 -8.82,7.078 -14.86,7.078" /><path
         id="path164"
         style="fill:#5690a0;fill-opacity:1;fill-rule:nonzero;stroke:none"
         d="m 5410.02,84.7188 c -4.74,0 -9.4,0.5 -13.97,1.4921 l -2.2,19.3401 c 3.87,-0.762 7.35,-1.141 10.46,-1.141 5.74,0 9.99,1.68 12.74,5.051 2.76,3.371 4.87,7.66 6.33,12.867 l -35.51,93.613 h 26.28 l 22.33,-66.269 21.79,66.269 h 25.58 l -32.96,-89.82 -5.89,-16.262 c -2.16,-5.449 -4.23,-9.621 -6.19,-12.4879 -1.97,-2.8711 -4.22,-5.1914 -6.77,-6.9805 -2.55,-1.7812 -5.69,-3.1797 -9.4,-4.1797 -3.72,-0.9921 -7.93,-1.4921 -12.62,-1.4921" /></g></g></svg>