<svg height="512pt" viewBox="-15 0 512 512" width="512pt" xmlns="http://www.w3.org/2000/svg"><path d="m129.179688 25.226562 27.714843-11.484374 11.480469 27.71875-27.714844 11.480468zm0 0" fill="#ffa433"/><path d="m325.117188 13.753906 27.714843 11.480469-11.480469 27.714844-27.71875-11.480469zm0 0" fill="#ff852b"/><path d="m436.367188 240.238281c-3.902344-48.976562-25.953126-94.417969-62.09375-127.949219-36.339844-33.71875-83.671876-52.289062-133.273438-52.289062l-100 392h312.242188zm0 0" fill="#ff1b10"/><path d="m107.726562 112.289062c-36.140624 33.53125-58.191406 78.972657-62.09375 127.949219l-16.875 211.761719h212.242188v-392c-49.601562 0-96.933594 18.570312-133.273438 52.289062zm0 0" fill="#ff451b"/><path d="m406.460938 242.621094c-6.816407-85.582032-79.496094-152.621094-165.460938-152.621094l-100 362h282.144531zm0 0" fill="#ff451b"/><path d="m75.539062 242.621094-16.683593 209.378906h182.144531v-362c-85.964844 0-158.644531 67.039062-165.460938 152.621094zm0 0" fill="#ff6523"/><path d="m316 376v-120h-75l-30 150zm0 0" fill="#ff852b"/><path d="m241 256h-75v120l75 30zm0 0" fill="#ffa433"/><path d="m316 376h-75l-60 76h135zm0 0" fill="#ff6523"/><path d="m166 376h75v76h-75zm0 0" fill="#ff852b"/><path d="m482 422h-241l-60 45 60 45h241zm0 0" fill="#3c4047"/><path d="m0 422h241v90h-241zm0 0" fill="#50545b"/><path d="m241 181-37.5 75 37.5 75c41.421875 0 75-33.578125 75-75s-33.578125-75-75-75zm0 0" fill="#ffd87c"/><path d="m166 256c0 41.421875 33.578125 75 75 75v-150c-41.421875 0-75 33.578125-75 75zm0 0" fill="#fff"/><path d="m256 0h-15l-10 15 10 15h15zm0 0" fill="#ff852b"/><path d="m226 0h15v30h-15zm0 0" fill="#ffa433"/></svg>