<?xml version="1.0" encoding="UTF-8" standalone="no"?>
<svg
   xmlns:dc="http://purl.org/dc/elements/1.1/"
   xmlns:cc="http://creativecommons.org/ns#"
   xmlns:rdf="http://www.w3.org/1999/02/22-rdf-syntax-ns#"
   xmlns:svg="http://www.w3.org/2000/svg"
   xmlns="http://www.w3.org/2000/svg"
   viewBox="0 0 491.51999 433.60001"
   height="433.60001"
   width="491.51999"
   xml:space="preserve"
   id="svg2"
   version="1.1"><metadata
     id="metadata8"><rdf:RDF><cc:Work
         rdf:about=""><dc:format>image/svg+xml</dc:format><dc:type
           rdf:resource="http://purl.org/dc/dcmitype/StillImage" /></cc:Work></rdf:RDF></metadata><defs
     id="defs6" /><g
     transform="matrix(1.3333333,0,0,-1.3333333,0,433.6)"
     id="g10"><g
       transform="scale(0.1)"
       id="g12"><path
         id="path14"
         style="fill:#3f5461;fill-opacity:1;fill-rule:nonzero;stroke:none"
         d="m 3338.54,2679.98 -0.24,-0.23 h 0.23 l 0.01,0.01 v 0.22" /><path
         id="path16"
         style="fill:#ef3a48;fill-opacity:1;fill-rule:evenodd;stroke:none"
         d="m 178.711,2868.05 h 178.723 v -88.25 h 391.718 v 88.25 H 2937.25 v -88.25 h 391.72 v 88.25 h 178.72 c 98.29,0 178.71,-80.42 178.71,-178.71 V 254.328 c 0,-98.293 -80.42,-178.7108 -178.71,-178.7108 H 178.711 C 80.4219,75.6172 0,156.035 0,254.328 V 2689.34 c 0,98.29 80.4219,178.71 178.711,178.71" /><path
         id="path18"
         style="fill:#983038;fill-opacity:1;fill-rule:evenodd;stroke:none"
         d="M 379.766,2488.28 V 455.383 H 3306.64 V 2488.28 H 379.766 Z M 335.09,433.047 V 2510.63 h 22.336 v 22.33 H 3351.31 V 410.703 H 335.09 v 22.344" /><path
         id="path20"
         style="fill:#a12f37;fill-opacity:1;fill-rule:evenodd;stroke:none"
         d="m 1137.09,2868.05 h 268.06 v -100.12 h -268.06 z m 1179.02,0 h 268.07 v -100.12 h -268.07 v 100.12" /><path
         id="path22"
         style="fill:#201e1d;fill-opacity:1;fill-rule:nonzero;stroke:none"
         d="m 1509.41,3251.98 h 702.45 c 90.19,0 172.13,-36.83 231.46,-96.17 59.34,-59.33 96.18,-141.27 96.18,-231.47 v -111.73 h -178.71 v 111.73 c 0,40.87 -16.79,78.08 -43.82,105.11 -27.03,27.03 -64.25,43.82 -105.11,43.82 h -702.45 c -40.86,0 -78.09,-16.79 -105.12,-43.82 -27.03,-27.03 -43.82,-64.24 -43.82,-105.11 v -111.73 h -178.71 v 111.73 c 0,90.2 36.84,172.14 96.17,231.47 59.34,59.34 141.28,96.17 231.48,96.17" /><path
         id="path24"
         style="fill:#201e1d;fill-opacity:1;fill-rule:evenodd;stroke:none"
         d="m 357.434,2779.81 h 391.719 v 38.7852 H 357.434 Z" /><path
         id="path26"
         style="fill:#201e1d;fill-opacity:1;fill-rule:evenodd;stroke:none"
         d="m 2937.25,2779.81 h 391.719 v 38.7852 H 2937.25 Z" /><path
         id="path28"
         style="fill:#201e1d;fill-opacity:1;fill-rule:evenodd;stroke:none"
         d="M 357.434,0 H 749.153 V 75.6172 H 357.434 Z" /><path
         id="path30"
         style="fill:#201e1d;fill-opacity:1;fill-rule:evenodd;stroke:none"
         d="m 2937.25,0 h 391.719 V 75.6172 H 2937.25 Z" /><path
         id="path32"
         style="fill:#f7fcfd;fill-opacity:1;fill-rule:evenodd;stroke:none"
         d="m 1315.03,1660.47 h 339.54 V 2000 h 377.26 v -339.53 h 339.54 V 1283.2 H 2031.83 V 943.66 h -377.26 v 339.54 h -339.54 v 377.27" /></g></g></svg>